SplineFontDB: 3.0
FontName: Orbitron-Medium
FullName: Orbitron-Medium
FamilyName: Orbitron
Weight: Medium
Copyright: Generated in 2009 by FontLab Studio. Copyright info pending.
Version: 1.000
ItalicAngle: 0
UnderlinePosition: -102.4
UnderlineWidth: 51.2
Ascent: 768
Descent: 256
InvalidEm: 0
sfntRevision: 0x00010000
LayerCount: 2
Layer: 0 1 "Back" 1
Layer: 1 1 "Fore" 0
XUID: [1021 720 -2080188286 3004]
StyleMap: 0x0000
FSType: 4
OS2Version: 2
OS2_WeightWidthSlopeOnly: 0
OS2_UseTypoMetrics: 0
CreationTime: 1259834326
ModificationTime: 1451335552
PfmFamily: 17
TTFWeight: 500
TTFWidth: 5
LineGap: 0
VLineGap: 0
Panose: 2 0 0 0 0 0 0 0 0 0
OS2TypoAscent: 768
OS2TypoAOffset: 0
OS2TypoDescent: -256
OS2TypoDOffset: 0
OS2TypoLinegap: 0
OS2WinAscent: 1013
OS2WinAOffset: 0
OS2WinDescent: 236
OS2WinDOffset: 0
HheadAscent: 768
HheadAOffset: 0
HheadDescent: -256
HheadDOffset: 0
OS2SubXSize: 717
OS2SubYSize: 666
OS2SubXOff: 0
OS2SubYOff: 143
OS2SupXSize: 717
OS2SupYSize: 666
OS2SupXOff: 0
OS2SupYOff: 488
OS2StrikeYSize: 51
OS2StrikeYPos: 256
OS2CapHeight: 721
OS2XHeight: 580
OS2Vendor: 'pyrs'
OS2CodePages: 00000001.00000000
OS2UnicodeRanges: 80000027.10000042.00000000.00000000
Lookup: 1 0 0 "'aalt' Access All Alternates in Latin lookup 0" { "'aalt' Access All Alternates in Latin lookup 0 subtable"  } ['aalt' ('latn' <'dflt' > ) ]
Lookup: 3 0 0 "'aalt' Access All Alternates in Latin lookup 1" { "'aalt' Access All Alternates in Latin lookup 1 subtable"  } ['aalt' ('latn' <'dflt' > ) ]
Lookup: 1 0 0 "'salt' Stylistic Alternatives in Latin lookup 2" { "'salt' Stylistic Alternatives in Latin lookup 2 subtable"  } ['salt' ('latn' <'dflt' > ) ]
Lookup: 1 0 0 "'smcp' Lowercase to Small Capitals in Latin lookup 3" { "'smcp' Lowercase to Small Capitals in Latin lookup 3 subtable"  } ['smcp' ('latn' <'dflt' > ) ]
Lookup: 1 0 0 "'ss01' Style Set 1 in Latin lookup 4" { "'ss01' Style Set 1 in Latin lookup 4 subtable"  } ['ss01' ('latn' <'dflt' > ) ]

StartChar: exclam
Encoding: 33 33 4
Width: 225
GlyphClass: 2
Flags: W
LayerCount: 2
Fore
SplineSet
170 0 m 1,0,-1
 59 0 l 1,1,-1
 59 111 l 1,2,-1
 170 111 l 1,3,-1
 170 0 l 1,0,-1
59 205 m 1,4,-1
 59 737 l 1,5,-1
 170 737 l 1,6,-1
 170 205 l 1,7,-1
 59 205 l 1,4,-1
EndSplineSet
Validated: 1
EndChar

StartChar: quotedbl
Encoding: 34 34 5
Width: 380
GlyphClass: 2
Flags: W
LayerCount: 2
Fore
SplineSet
171 736 m 1,0,-1
 171 570 l 1,1,-1
 60 570 l 1,2,-1
 60 736 l 1,3,-1
 171 736 l 1,0,-1
322 736 m 1,4,-1
 322 570 l 1,5,-1
 211 570 l 1,6,-1
 211 736 l 1,7,-1
 322 736 l 1,4,-1
EndSplineSet
Validated: 1
EndChar

StartChar: numbersign
Encoding: 35 35 6
Width: 816
GlyphClass: 2
Flags: W
LayerCount: 2
Fore
SplineSet
783 571 m 1,0,-1
 783 461 l 1,1,-1
 662 461 l 1,2,-1
 602 279 l 1,3,-1
 752 279 l 1,4,-1
 752 168 l 1,5,-1
 567 168 l 1,6,-1
 516 0 l 1,7,-1
 406 0 l 1,8,-1
 457 168 l 1,9,-1
 237 168 l 1,10,-1
 185 0 l 1,11,-1
 75 0 l 1,12,-1
 126 168 l 1,13,-1
 33 168 l 1,14,-1
 33 279 l 1,15,-1
 161 279 l 1,16,-1
 220 461 l 1,17,-1
 65 461 l 1,18,-1
 65 571 l 1,19,-1
 255 571 l 1,20,-1
 310 734 l 1,21,-1
 421 734 l 1,22,-1
 366 571 l 1,23,-1
 586 571 l 1,24,-1
 641 734 l 1,25,-1
 752 734 l 1,26,-1
 696 571 l 1,27,-1
 783 571 l 1,0,-1
271 279 m 1,28,-1
 492 279 l 1,29,-1
 551 461 l 1,30,-1
 331 461 l 1,31,-1
 271 279 l 1,28,-1
EndSplineSet
Validated: 1
EndChar

StartChar: dollar
Encoding: 36 36 7
Width: 806
GlyphClass: 2
Flags: W
LayerCount: 2
Fore
SplineSet
772 604 m 2,0,-1
 772 561 l 1,1,-1
 662 561 l 1,2,-1
 662 604 l 2,3,4
 662 613 662 613 655 620 c 128,-1,5
 648 627 648 627 639 627 c 2,6,-1
 459 627 l 1,7,-1
 459 424 l 1,8,-1
 639 424 l 2,9,10
 694 424 694 424 733 385 c 128,-1,11
 772 346 772 346 772 291 c 2,12,-1
 772 133 l 2,13,14
 772 78 772 78 733 39 c 128,-1,15
 694 0 694 0 639 0 c 2,16,-1
 459 0 l 1,17,-1
 459 -111 l 1,18,-1
 348 -111 l 1,19,-1
 348 0 l 1,20,-1
 168 0 l 2,21,22
 113 0 113 0 74 39 c 128,-1,23
 35 78 35 78 35 133 c 2,24,-1
 35 176 l 1,25,-1
 145 176 l 1,26,-1
 145 133 l 2,27,28
 145 124 145 124 152 117.5 c 128,-1,29
 159 111 159 111 168 111 c 2,30,-1
 348 111 l 1,31,-1
 348 313 l 1,32,-1
 168 313 l 2,33,34
 113 313 113 313 74 352 c 128,-1,35
 35 391 35 391 35 446 c 2,36,-1
 35 604 l 2,37,38
 35 659 35 659 74 698 c 128,-1,39
 113 737 113 737 168 737 c 2,40,-1
 348 737 l 1,41,-1
 348 848 l 1,42,-1
 459 848 l 1,43,-1
 459 737 l 1,44,-1
 639 737 l 2,45,46
 694 737 694 737 733 698 c 128,-1,47
 772 659 772 659 772 604 c 2,0,-1
639 313 m 2,48,-1
 459 313 l 1,49,-1
 459 111 l 1,50,-1
 639 111 l 2,51,52
 648 111 648 111 655 117.5 c 128,-1,53
 662 124 662 124 662 133 c 2,54,-1
 662 291 l 2,55,56
 662 300 662 300 655 306.5 c 128,-1,57
 648 313 648 313 639 313 c 2,48,-1
267 424 m 1,58,-1
 348 424 l 1,59,-1
 348 627 l 1,60,-1
 168 627 l 2,61,62
 159 627 159 627 152 620 c 128,-1,63
 145 613 145 613 145 604 c 2,64,-1
 145 446 l 2,65,66
 145 437 145 437 152 430.5 c 128,-1,67
 159 424 159 424 168 424 c 2,68,-1
 267 424 l 1,58,-1
EndSplineSet
Validated: 1
EndChar

StartChar: percent
Encoding: 37 37 8
Width: 989
GlyphClass: 2
Flags: W
LayerCount: 2
Fore
SplineSet
857 737 m 1,0,-1
 872 737 l 1,1,-1
 872 606 l 1,2,-1
 151 0 l 1,3,-1
 135 0 l 1,4,-1
 135 131 l 1,5,-1
 857 737 l 1,0,-1
182 737 m 2,6,-1
 274 737 l 2,7,8
 329 737 329 737 368.5 698 c 128,-1,9
 408 659 408 659 408 604 c 2,10,-1
 408 522 l 2,11,12
 408 467 408 467 369 428 c 128,-1,13
 330 389 330 389 274 389 c 2,14,-1
 182 389 l 2,15,16
 127 389 127 389 88 428 c 128,-1,17
 49 467 49 467 49 522 c 2,18,-1
 49 604 l 2,19,20
 49 659 49 659 88 698 c 128,-1,21
 127 737 127 737 182 737 c 2,6,-1
162 479 m 2,22,-1
 295 479 l 2,23,24
 304 479 304 479 310.5 486 c 128,-1,25
 317 493 317 493 317 502 c 2,26,-1
 317 625 l 2,27,28
 317 634 317 634 310.5 640.5 c 128,-1,29
 304 647 304 647 295 647 c 2,30,-1
 162 647 l 2,31,32
 153 647 153 647 146 640.5 c 128,-1,33
 139 634 139 634 139 625 c 2,34,-1
 139 502 l 2,35,36
 139 493 139 493 146 486 c 128,-1,37
 153 479 153 479 162 479 c 2,22,-1
713 347 m 2,38,-1
 805 347 l 2,39,40
 860 347 860 347 899 308 c 128,-1,41
 938 269 938 269 938 214 c 2,42,-1
 938 132 l 2,43,44
 938 77 938 77 899 38 c 128,-1,45
 860 -1 860 -1 805 -1 c 2,46,-1
 713 -1 l 2,47,48
 658 -1 658 -1 619 38 c 128,-1,49
 580 77 580 77 580 132 c 2,50,-1
 580 214 l 2,51,52
 580 269 580 269 619 308 c 128,-1,53
 658 347 658 347 713 347 c 2,38,-1
692 89 m 2,54,-1
 825 89 l 2,55,56
 834 89 834 89 841 95.5 c 128,-1,57
 848 102 848 102 848 112 c 2,58,-1
 848 234 l 2,59,60
 848 243 848 243 841.5 250 c 128,-1,61
 835 257 835 257 825 257 c 2,62,-1
 692 257 l 2,63,64
 683 257 683 257 676.5 250.5 c 128,-1,65
 670 244 670 244 670 234 c 2,66,-1
 670 112 l 2,67,68
 670 103 670 103 676.5 96 c 128,-1,69
 683 89 683 89 692 89 c 2,54,-1
EndSplineSet
Validated: 1
EndChar

StartChar: ampersand
Encoding: 38 38 9
Width: 960
GlyphClass: 2
Flags: W
LayerCount: 2
Fore
SplineSet
792 185 m 1,0,-1
 922 110 l 1,1,-1
 922 3 l 1,2,-1
 781 83 l 1,3,4
 767 46 767 46 733.5 23 c 128,-1,5
 700 0 700 0 658 0 c 2,6,-1
 187 0 l 2,7,8
 132 0 132 0 93 39 c 128,-1,9
 54 78 54 78 54 133 c 2,10,-1
 54 342 l 2,11,12
 54 368 54 368 72.5 394 c 128,-1,13
 91 420 91 420 121 420 c 1,14,15
 95 439 95 439 95 498 c 2,16,-1
 95 604 l 2,17,18
 95 659 95 659 134 698 c 128,-1,19
 173 737 173 737 228 737 c 2,20,-1
 628 737 l 2,21,22
 677 737 677 737 715 705.5 c 128,-1,23
 753 674 753 674 761 627 c 1,24,-1
 761 554 l 1,25,-1
 650 554 l 1,26,-1
 650 603 l 2,27,28
 650 612 650 612 643.5 619 c 128,-1,29
 637 626 637 626 628 626 c 2,30,-1
 228 626 l 2,31,32
 219 626 219 626 212.5 619 c 128,-1,33
 206 612 206 612 206 603 c 2,34,-1
 206 468 l 1,35,-1
 681 228 l 1,36,-1
 681 354 l 1,37,-1
 792 354 l 1,38,-1
 792 185 l 1,0,-1
187 111 m 2,39,-1
 658 111 l 2,40,41
 672 111 672 111 678 123 c 1,42,-1
 199 365 l 1,43,-1
 187 365 l 2,44,45
 178 365 178 365 171.5 358 c 128,-1,46
 165 351 165 351 165 342 c 2,47,-1
 165 133 l 2,48,49
 165 124 165 124 171.5 117.5 c 128,-1,50
 178 111 178 111 187 111 c 2,39,-1
EndSplineSet
Validated: 1
EndChar

StartChar: quotesingle
Encoding: 39 39 10
Width: 229
GlyphClass: 2
Flags: W
LayerCount: 2
Fore
SplineSet
171 736 m 1,0,-1
 171 570 l 1,1,-1
 60 570 l 1,2,-1
 60 736 l 1,3,-1
 171 736 l 1,0,-1
EndSplineSet
Validated: 1
EndChar

StartChar: parenleft
Encoding: 40 40 11
Width: 283
GlyphClass: 2
Flags: W
LayerCount: 2
Fore
SplineSet
186 111 m 2,0,-1
 229 111 l 1,1,-1
 229 0 l 1,2,-1
 186 0 l 2,3,4
 131 0 131 0 92 39 c 128,-1,5
 53 78 53 78 53 133 c 2,6,-1
 53 604 l 2,7,8
 53 659 53 659 92 698 c 128,-1,9
 131 737 131 737 186 737 c 2,10,-1
 229 737 l 1,11,-1
 229 627 l 1,12,-1
 186 627 l 2,13,14
 177 627 177 627 170.5 620 c 128,-1,15
 164 613 164 613 164 604 c 2,16,-1
 164 133 l 2,17,18
 164 124 164 124 170.5 117.5 c 128,-1,19
 177 111 177 111 186 111 c 2,0,-1
EndSplineSet
Validated: 1
EndChar

StartChar: parenright
Encoding: 41 41 12
Width: 284
GlyphClass: 2
Flags: W
LayerCount: 2
Fore
SplineSet
57 0 m 1,0,-1
 57 111 l 1,1,-1
 100 111 l 2,2,3
 109 111 109 111 116 117.5 c 128,-1,4
 123 124 123 124 123 133 c 2,5,-1
 123 604 l 2,6,7
 123 613 123 613 116.5 620 c 128,-1,8
 110 627 110 627 100 627 c 2,9,-1
 57 627 l 1,10,-1
 57 737 l 1,11,-1
 100 737 l 2,12,13
 154 737 154 737 193.5 698 c 128,-1,14
 233 659 233 659 233 604 c 2,15,-1
 233 133 l 2,16,17
 233 78 233 78 194 39 c 128,-1,18
 155 0 155 0 100 0 c 2,19,-1
 57 0 l 1,0,-1
EndSplineSet
Validated: 1
EndChar

StartChar: asterisk
Encoding: 42 42 13
Width: 502
GlyphClass: 2
Flags: W
LayerCount: 2
Fore
SplineSet
442 638 m 1,0,-1
 477 532 l 1,1,-1
 341 488 l 1,2,-1
 425 372 l 1,3,-1
 336 307 l 1,4,-1
 251 423 l 1,5,-1
 167 307 l 1,6,-1
 78 372 l 1,7,-1
 162 488 l 1,8,-1
 26 532 l 1,9,-1
 59 638 l 1,10,-1
 196 593 l 1,11,-1
 196 736 l 1,12,-1
 306 736 l 1,13,-1
 306 593 l 1,14,-1
 442 638 l 1,0,-1
EndSplineSet
Validated: 1
EndChar

StartChar: plus
Encoding: 43 43 14
Width: 443
GlyphClass: 2
Flags: W
LayerCount: 2
Fore
SplineSet
165 507 m 1,0,-1
 275 507 l 1,1,-1
 275 358 l 1,2,-1
 427 358 l 1,3,-1
 427 248 l 1,4,-1
 275 248 l 1,5,-1
 275 97 l 1,6,-1
 165 97 l 1,7,-1
 165 248 l 1,8,-1
 17 248 l 1,9,-1
 17 358 l 1,10,-1
 165 358 l 1,11,-1
 165 507 l 1,0,-1
EndSplineSet
Validated: 1
EndChar

StartChar: comma
Encoding: 44 44 15
Width: 197
GlyphClass: 2
Flags: W
LayerCount: 2
Fore
SplineSet
55 111 m 1,0,-1
 166 111 l 1,1,-1
 166 0 l 2,2,3
 166 -49 166 -49 134 -86 c 128,-1,4
 102 -123 102 -123 55 -131 c 1,5,-1
 55 111 l 1,0,-1
EndSplineSet
Validated: 1
EndChar

StartChar: hyphen
Encoding: 45 45 16
Width: 529
GlyphClass: 2
Flags: W
LayerCount: 2
Fore
SplineSet
470 358 m 1,0,-1
 470 248 l 1,1,-1
 60 248 l 1,2,-1
 60 358 l 1,3,-1
 470 358 l 1,0,-1
EndSplineSet
Validated: 1
EndChar

StartChar: period
Encoding: 46 46 17
Width: 219
GlyphClass: 2
Flags: W
LayerCount: 2
Fore
SplineSet
166 111 m 1,0,-1
 166 0 l 1,1,-1
 55 0 l 1,2,-1
 55 111 l 1,3,-1
 166 111 l 1,0,-1
EndSplineSet
Validated: 1
EndChar

StartChar: slash
Encoding: 47 47 18
Width: 533
GlyphClass: 2
Flags: W
LayerCount: 2
Fore
SplineSet
6 131 m 1,0,-1
 513 737 l 1,1,-1
 528 737 l 1,2,-1
 528 606 l 1,3,-1
 22 0 l 1,4,-1
 6 0 l 1,5,-1
 6 131 l 1,0,-1
EndSplineSet
Validated: 1
EndChar

StartChar: zero
Encoding: 48 48 19
Width: 854
GlyphClass: 2
Flags: W
LayerCount: 2
Fore
SplineSet
191 737 m 2,0,-1
 663 737 l 2,1,2
 718 737 718 737 757 698 c 128,-1,3
 796 659 796 659 796 604 c 2,4,-1
 796 133 l 2,5,6
 796 78 796 78 757 39 c 128,-1,7
 718 0 718 0 663 0 c 2,8,-1
 191 0 l 2,9,10
 136 0 136 0 97 39 c 128,-1,11
 58 78 58 78 58 133 c 2,12,-1
 58 604 l 2,13,14
 58 659 58 659 97 698 c 128,-1,15
 136 737 136 737 191 737 c 2,0,-1
648 627 m 1,16,-1
 191 627 l 2,17,18
 182 627 182 627 175.5 620 c 128,-1,19
 169 613 169 613 169 604 c 2,20,-1
 169 224 l 1,21,-1
 648 627 l 1,16,-1
206 111 m 1,22,-1
 663 111 l 2,23,24
 672 111 672 111 678.5 117.5 c 128,-1,25
 685 124 685 124 685 133 c 2,26,-1
 685 513 l 1,27,-1
 206 111 l 1,22,-1
EndSplineSet
Validated: 1
EndChar

StartChar: one
Encoding: 49 49 20
Width: 854
GlyphClass: 2
Flags: WO
LayerCount: 2
Fore
SplineSet
169 508 m 1,0,-1
 357 737 l 1,1,-1
 489 737 l 1,2,-1
 489 111 l 1,3,-1
 775 111 l 1,4,-1
 775 0 l 1,5,-1
 78 0 l 1,6,-1
 78 111 l 1,7,-1
 378 111 l 1,8,-1
 378 590 l 1,9,-1
 313 508 l 1,10,-1
 169 508 l 1,0,-1
EndSplineSet
Validated: 1
EndChar

StartChar: two
Encoding: 50 50 21
Width: 854
GlyphClass: 2
Flags: W
LayerCount: 2
Fore
SplineSet
191 737 m 2,0,-1
 663 737 l 2,1,2
 718 737 718 737 757 698 c 128,-1,3
 796 659 796 659 796 604 c 2,4,-1
 796 436 l 2,5,6
 796 381 796 381 757 342 c 128,-1,7
 718 303 718 303 663 303 c 2,8,-1
 191 303 l 2,9,10
 182 303 182 303 175.5 296.5 c 128,-1,11
 169 290 169 290 169 281 c 2,12,-1
 169 133 l 2,13,14
 169 124 169 124 175.5 117.5 c 128,-1,15
 182 111 182 111 191 111 c 2,16,-1
 796 111 l 1,17,-1
 796 0 l 5,18,-1
 58 0 l 5,19,-1
 58 281 l 2,20,21
 58 336 58 336 97 375 c 128,-1,22
 136 414 136 414 191 414 c 2,23,-1
 663 414 l 2,24,25
 672 414 672 414 678.5 420.5 c 128,-1,26
 685 427 685 427 685 436 c 2,27,-1
 685 604 l 2,28,29
 685 613 685 613 678.5 620 c 128,-1,30
 672 627 672 627 663 627 c 2,31,-1
 191 627 l 2,32,33
 182 627 182 627 175.5 620 c 128,-1,34
 169 613 169 613 169 604 c 2,35,-1
 169 561 l 1,36,-1
 58 561 l 1,37,-1
 58 604 l 2,38,39
 58 659 58 659 97 698 c 128,-1,40
 136 737 136 737 191 737 c 2,0,-1
EndSplineSet
Validated: 1
Substitution2: "'ss03' Style Set 3 in Latin lookup 6 subtable" two.alt
Substitution2: "'aalt' Access All Alternates in Latin lookup 0 subtable" two.alt
EndChar

StartChar: three
Encoding: 51 51 22
Width: 854
GlyphClass: 2
Flags: W
LayerCount: 2
Fore
SplineSet
752 396 m 1,0,1
 796 357 796 357 796 298 c 2,2,-1
 796 133 l 2,3,4
 796 78 796 78 757 39 c 128,-1,5
 718 0 718 0 663 0 c 2,6,-1
 191 0 l 2,7,8
 136 0 136 0 97 39 c 128,-1,9
 58 78 58 78 58 133 c 2,10,-1
 58 164 l 1,11,-1
 169 164 l 1,12,-1
 169 133 l 2,13,14
 169 124 169 124 175.5 117.5 c 128,-1,15
 182 111 182 111 191 111 c 2,16,-1
 663 111 l 2,17,18
 672 111 672 111 678.5 117.5 c 128,-1,19
 685 124 685 124 685 133 c 2,20,-1
 685 298 l 2,21,22
 685 307 685 307 678.5 314 c 128,-1,23
 672 321 672 321 663 321 c 2,24,-1
 191 321 l 1,25,-1
 191 431 l 1,26,-1
 632 431 l 2,27,28
 641 431 641 431 647.5 437.5 c 128,-1,29
 654 444 654 444 654 454 c 2,30,-1
 654 604 l 2,31,32
 654 613 654 613 647.5 620 c 128,-1,33
 641 627 641 627 632 627 c 2,34,-1
 191 627 l 2,35,36
 182 627 182 627 175.5 620 c 128,-1,37
 169 613 169 613 169 604 c 2,38,-1
 169 563 l 1,39,-1
 58 563 l 1,40,-1
 58 604 l 2,41,42
 58 659 58 659 97 698 c 128,-1,43
 136 737 136 737 191 737 c 2,44,-1
 632 737 l 2,45,46
 687 737 687 737 726 698 c 128,-1,47
 765 659 765 659 765 604 c 2,48,-1
 765 454 l 2,49,50
 765 425 765 425 752 396 c 1,0,1
EndSplineSet
Validated: 1
EndChar

StartChar: four
Encoding: 52 52 23
Width: 854
GlyphClass: 2
Flags: W
LayerCount: 2
Fore
SplineSet
672 298 m 1,0,-1
 780 298 l 1,1,-1
 780 187 l 1,2,-1
 672 187 l 1,3,-1
 672 0 l 1,4,-1
 561 0 l 1,5,-1
 561 187 l 1,6,-1
 74 187 l 1,7,-1
 74 298 l 1,8,-1
 561 737 l 1,9,-1
 672 737 l 1,10,-1
 672 298 l 1,0,-1
561 563 m 1,11,-1
 234 298 l 1,12,-1
 561 298 l 1,13,-1
 561 563 l 1,11,-1
EndSplineSet
Validated: 1
Substitution2: "'ss03' Style Set 3 in Latin lookup 6 subtable" four.alt
Substitution2: "'aalt' Access All Alternates in Latin lookup 0 subtable" four.alt
EndChar

StartChar: five
Encoding: 53 53 24
Width: 854
GlyphClass: 2
Flags: W
LayerCount: 2
Fore
SplineSet
169 604 m 2,0,-1
 169 457 l 2,1,2
 169 448 169 448 175.5 441 c 128,-1,3
 182 434 182 434 191 434 c 2,4,-1
 663 434 l 2,5,6
 718 434 718 434 757 395 c 128,-1,7
 796 356 796 356 796 301 c 2,8,-1
 796 133 l 2,9,10
 796 78 796 78 757 39 c 128,-1,11
 718 0 718 0 663 0 c 2,12,-1
 191 0 l 2,13,14
 136 0 136 0 97 39 c 128,-1,15
 58 78 58 78 58 133 c 2,16,-1
 58 176 l 1,17,-1
 169 176 l 1,18,-1
 169 133 l 2,19,20
 169 124 169 124 175.5 117.5 c 128,-1,21
 182 111 182 111 191 111 c 2,22,-1
 663 111 l 2,23,24
 672 111 672 111 678.5 117.5 c 128,-1,25
 685 124 685 124 685 133 c 2,26,-1
 685 301 l 2,27,28
 685 310 685 310 678.5 317 c 128,-1,29
 672 324 672 324 663 324 c 2,30,-1
 58 324 l 1,31,-1
 58 434 l 1,32,-1
 60 434 l 1,33,34
 58 448 58 448 58 457 c 2,35,-1
 58 737 l 1,36,-1
 796 737 l 1,37,-1
 796 627 l 1,38,-1
 191 627 l 2,39,40
 182 627 182 627 175.5 620 c 128,-1,41
 169 613 169 613 169 604 c 2,0,-1
EndSplineSet
Validated: 1
EndChar

StartChar: six
Encoding: 54 54 25
Width: 854
GlyphClass: 2
Flags: W
LayerCount: 2
Fore
SplineSet
540 434 m 1,0,-1
 663 434 l 2,1,2
 718 434 718 434 757 395 c 128,-1,3
 796 356 796 356 796 301 c 2,4,-1
 796 133 l 2,5,6
 796 78 796 78 757 39 c 128,-1,7
 718 0 718 0 663 0 c 2,8,-1
 191 0 l 2,9,10
 136 0 136 0 97 39 c 128,-1,11
 58 78 58 78 58 133 c 2,12,-1
 58 604 l 2,13,14
 58 659 58 659 97 698 c 128,-1,15
 136 737 136 737 191 737 c 2,16,-1
 673 737 l 1,17,-1
 673 627 l 1,18,-1
 191 627 l 2,19,20
 182 627 182 627 175.5 620 c 128,-1,21
 169 613 169 613 169 604 c 2,22,-1
 169 457 l 2,23,24
 169 448 169 448 175.5 441 c 128,-1,25
 182 434 182 434 191 434 c 2,26,-1
 540 434 l 1,0,-1
685 133 m 2,27,-1
 685 301 l 2,28,29
 685 310 685 310 678.5 317 c 128,-1,30
 672 324 672 324 663 324 c 2,31,-1
 169 324 l 1,32,-1
 169 133 l 2,33,34
 169 124 169 124 175.5 117.5 c 128,-1,35
 182 111 182 111 191 111 c 2,36,-1
 663 111 l 2,37,38
 672 111 672 111 678.5 117.5 c 128,-1,39
 685 124 685 124 685 133 c 2,27,-1
EndSplineSet
Validated: 1
EndChar

StartChar: seven
Encoding: 55 55 26
Width: 854
GlyphClass: 2
Flags: W
LayerCount: 2
Fore
SplineSet
130 737 m 1,0,-1
 601 737 l 2,1,2
 656 737 656 737 695 698 c 128,-1,3
 734 659 734 659 734 604 c 2,4,-1
 734 0 l 1,5,-1
 624 0 l 1,6,-1
 624 604 l 2,7,8
 624 613 624 613 617 620 c 128,-1,9
 610 627 610 627 601 627 c 2,10,-1
 120 627 l 1,11,-1
 120 737 l 1,12,-1
 130 737 l 1,0,-1
EndSplineSet
Validated: 1
Substitution2: "'ss03' Style Set 3 in Latin lookup 6 subtable" seven.alt
Substitution2: "'aalt' Access All Alternates in Latin lookup 0 subtable" seven.alt
EndChar

StartChar: eight
Encoding: 56 56 27
Width: 854
GlyphClass: 2
Flags: W
LayerCount: 2
Fore
SplineSet
796 627 m 1,0,-1
 796 457 l 2,1,2
 796 413 796 413 770 379 c 1,3,4
 796 345 796 345 796 301 c 2,5,-1
 796 133 l 2,6,7
 796 78 796 78 757 39 c 128,-1,8
 718 0 718 0 663 0 c 2,9,-1
 191 0 l 2,10,11
 136 0 136 0 97 39 c 128,-1,12
 58 78 58 78 58 133 c 2,13,-1
 58 301 l 2,14,15
 58 345 58 345 84 379 c 1,16,17
 58 413 58 413 58 457 c 2,18,-1
 58 604 l 2,19,20
 58 659 58 659 97 698 c 128,-1,21
 136 737 136 737 191 737 c 2,22,-1
 663 737 l 2,23,24
 712 737 712 737 750 705.5 c 128,-1,25
 788 674 788 674 796 627 c 1,0,-1
685 133 m 2,26,-1
 685 301 l 2,27,28
 685 310 685 310 678.5 317 c 128,-1,29
 672 324 672 324 663 324 c 2,30,-1
 191 324 l 2,31,32
 182 324 182 324 175.5 317 c 128,-1,33
 169 310 169 310 169 301 c 2,34,-1
 169 133 l 2,35,36
 169 124 169 124 175.5 117.5 c 128,-1,37
 182 111 182 111 191 111 c 2,38,-1
 663 111 l 2,39,40
 672 111 672 111 678.5 117.5 c 128,-1,41
 685 124 685 124 685 133 c 2,26,-1
685 445 m 2,42,-1
 685 603 l 2,43,44
 685 612 685 612 678.5 619 c 128,-1,45
 672 626 672 626 663 626 c 2,46,-1
 191 626 l 2,47,48
 182 626 182 626 175.5 619 c 128,-1,49
 169 612 169 612 169 603 c 2,50,-1
 169 445 l 2,51,52
 169 436 169 436 175.5 429.5 c 128,-1,53
 182 423 182 423 191 423 c 2,54,-1
 663 423 l 2,55,56
 672 423 672 423 678.5 429.5 c 128,-1,57
 685 436 685 436 685 445 c 2,42,-1
EndSplineSet
Validated: 1
EndChar

StartChar: nine
Encoding: 57 57 28
Width: 854
GlyphClass: 2
Flags: W
LayerCount: 2
Fore
SplineSet
314 303 m 1,0,-1
 191 303 l 2,1,2
 136 303 136 303 97 342 c 128,-1,3
 58 381 58 381 58 436 c 2,4,-1
 58 604 l 2,5,6
 58 659 58 659 97 698 c 128,-1,7
 136 737 136 737 191 737 c 2,8,-1
 663 737 l 2,9,10
 718 737 718 737 757 698 c 128,-1,11
 796 659 796 659 796 604 c 2,12,-1
 796 133 l 2,13,14
 796 78 796 78 757 39 c 128,-1,15
 718 0 718 0 663 0 c 2,16,-1
 191 0 l 2,17,18
 142 0 142 0 105.5 31.5 c 128,-1,19
 69 63 69 63 60 111 c 1,20,-1
 663 111 l 2,21,22
 672 111 672 111 678.5 117.5 c 128,-1,23
 685 124 685 124 685 133 c 2,24,-1
 685 281 l 2,25,26
 685 290 685 290 678.5 296.5 c 128,-1,27
 672 303 672 303 663 303 c 2,28,-1
 314 303 l 1,0,-1
169 604 m 2,29,-1
 169 436 l 2,30,31
 169 427 169 427 175.5 420.5 c 128,-1,32
 182 414 182 414 191 414 c 2,33,-1
 685 414 l 1,34,-1
 685 604 l 2,35,36
 685 613 685 613 678.5 620 c 128,-1,37
 672 627 672 627 663 627 c 2,38,-1
 191 627 l 2,39,40
 182 627 182 627 175.5 620 c 128,-1,41
 169 613 169 613 169 604 c 2,29,-1
EndSplineSet
Validated: 1
Substitution2: "'ss03' Style Set 3 in Latin lookup 6 subtable" nine.alt
Substitution2: "'aalt' Access All Alternates in Latin lookup 0 subtable" nine.alt
EndChar

StartChar: colon
Encoding: 58 58 29
Width: 219
GlyphClass: 2
Flags: W
LayerCount: 2
Fore
SplineSet
55 111 m 1,0,-1
 166 111 l 1,1,-1
 166 0 l 1,2,-1
 55 0 l 1,3,-1
 55 111 l 1,0,-1
166 602 m 1,4,-1
 166 492 l 1,5,-1
 55 492 l 1,6,-1
 55 602 l 1,7,-1
 166 602 l 1,4,-1
EndSplineSet
Validated: 1
EndChar

StartChar: semicolon
Encoding: 59 59 30
Width: 197
GlyphClass: 2
Flags: W
LayerCount: 2
Fore
SplineSet
163 602 m 1,0,-1
 163 492 l 1,1,-1
 52 492 l 1,2,-1
 52 602 l 1,3,-1
 163 602 l 1,0,-1
52 111 m 1,4,-1
 163 111 l 1,5,-1
 163 0 l 2,6,7
 163 -49 163 -49 131 -86 c 128,-1,8
 99 -123 99 -123 52 -131 c 1,9,-1
 52 111 l 1,4,-1
EndSplineSet
Validated: 1
EndChar

StartChar: less
Encoding: 60 60 31
Width: 484
GlyphClass: 2
Flags: W
LayerCount: 2
Fore
SplineSet
130 303 m 1,0,-1
 426 132 l 1,1,-1
 426 4 l 1,2,-1
 5 248 l 1,3,-1
 5 358 l 1,4,-1
 426 601 l 1,5,-1
 426 473 l 1,6,-1
 130 303 l 1,0,-1
EndSplineSet
Validated: 1
EndChar

StartChar: equal
Encoding: 61 61 32
Width: 653
GlyphClass: 2
Flags: W
LayerCount: 2
Fore
SplineSet
593 257 m 1,0,-1
 593 146 l 1,1,-1
 60 146 l 1,2,-1
 60 257 l 1,3,-1
 593 257 l 1,0,-1
593 452 m 1,4,-1
 593 341 l 1,5,-1
 60 341 l 1,6,-1
 60 452 l 1,7,-1
 593 452 l 1,4,-1
EndSplineSet
Validated: 1
EndChar

StartChar: greater
Encoding: 62 62 33
Width: 486
GlyphClass: 2
Flags: W
LayerCount: 2
Fore
SplineSet
60 2 m 1,0,-1
 60 130 l 1,1,-1
 356 301 l 1,2,-1
 60 471 l 1,3,-1
 60 599 l 1,4,-1
 481 356 l 1,5,-1
 481 246 l 1,6,-1
 60 2 l 1,0,-1
EndSplineSet
Validated: 1
EndChar

StartChar: question
Encoding: 63 63 34
Width: 694
GlyphClass: 2
Flags: W
LayerCount: 2
Fore
SplineSet
32 737 m 1,0,-1
 541 737 l 2,1,2
 596 737 596 737 635 698 c 128,-1,3
 674 659 674 659 674 604 c 2,4,-1
 674 416 l 2,5,6
 674 361 674 361 635 322 c 128,-1,7
 596 283 596 283 541 283 c 2,8,-1
 275 283 l 2,9,10
 266 283 266 283 259.5 276 c 128,-1,11
 253 269 253 269 253 260 c 2,12,-1
 253 204 l 1,13,-1
 142 204 l 1,14,-1
 142 260 l 2,15,16
 142 315 142 315 181 354 c 128,-1,17
 220 393 220 393 275 393 c 2,18,-1
 541 393 l 2,19,20
 550 393 550 393 556.5 400 c 128,-1,21
 563 407 563 407 563 416 c 2,22,-1
 563 604 l 2,23,24
 563 613 563 613 556.5 620 c 128,-1,25
 550 627 550 627 541 627 c 2,26,-1
 32 627 l 1,27,-1
 32 737 l 1,0,-1
253 0 m 1,28,-1
 142 0 l 1,29,-1
 142 111 l 1,30,-1
 253 111 l 1,31,-1
 253 0 l 1,28,-1
EndSplineSet
Validated: 1
Substitution2: "'salt' Stylistic Alternatives in Latin lookup 2 subtable" question.alt
Substitution2: "'aalt' Access All Alternates in Latin lookup 0 subtable" question.alt
EndChar

StartChar: at
Encoding: 64 64 35
Width: 850
GlyphClass: 2
Flags: W
LayerCount: 2
Fore
SplineSet
381 543 m 2,0,-1
 473 543 l 2,1,2
 528 543 528 543 567 504 c 128,-1,3
 606 465 606 465 606 410 c 2,4,-1
 606 285 l 1,5,-1
 685 285 l 1,6,-1
 685 604 l 2,7,8
 685 613 685 613 678.5 620 c 128,-1,9
 672 627 672 627 663 627 c 2,10,-1
 191 627 l 2,11,12
 182 627 182 627 175.5 620 c 128,-1,13
 169 613 169 613 169 604 c 2,14,-1
 169 133 l 2,15,16
 169 124 169 124 175.5 117.5 c 128,-1,17
 182 111 182 111 191 111 c 2,18,-1
 796 111 l 1,19,-1
 796 0 l 1,20,-1
 191 0 l 2,21,22
 136 0 136 0 97 39 c 128,-1,23
 58 78 58 78 58 133 c 2,24,-1
 58 604 l 2,25,26
 58 659 58 659 97 698 c 128,-1,27
 136 737 136 737 191 737 c 2,28,-1
 663 737 l 2,29,30
 718 737 718 737 757 698 c 128,-1,31
 796 659 796 659 796 604 c 2,32,-1
 796 195 l 1,33,-1
 381 195 l 2,34,35
 326 195 326 195 287 233.5 c 128,-1,36
 248 272 248 272 248 328 c 2,37,-1
 248 410 l 2,38,39
 248 465 248 465 287 504 c 128,-1,40
 326 543 326 543 381 543 c 2,0,-1
360 285 m 2,41,-1
 516 285 l 1,42,-1
 516 430 l 2,43,44
 516 439 516 439 509.5 446 c 128,-1,45
 503 453 503 453 494 453 c 2,46,-1
 360 453 l 2,47,48
 351 453 351 453 344.5 446 c 128,-1,49
 338 439 338 439 338 430 c 2,50,-1
 338 307 l 2,51,52
 338 298 338 298 344.5 291.5 c 128,-1,53
 351 285 351 285 360 285 c 2,41,-1
EndSplineSet
Validated: 1
EndChar

StartChar: A
Encoding: 65 65 36
Width: 856
GlyphClass: 2
Flags: W
LayerCount: 2
Fore
SplineSet
193 737 m 2,0,-1
 664 737 l 2,1,2
 719 737 719 737 758 698 c 128,-1,3
 797 659 797 659 797 604 c 2,4,-1
 797 0 l 1,5,-1
 686 0 l 1,6,-1
 686 258 l 1,7,-1
 170 258 l 1,8,-1
 170 0 l 1,9,-1
 59 0 l 1,10,-1
 59 604 l 2,11,12
 59 659 59 659 98.5 698 c 128,-1,13
 138 737 138 737 193 737 c 2,0,-1
170 369 m 1,14,-1
 686 369 l 1,15,-1
 686 604 l 2,16,17
 686 613 686 613 679.5 620 c 128,-1,18
 673 627 673 627 664 627 c 2,19,-1
 193 627 l 2,20,21
 184 627 184 627 177 620 c 128,-1,22
 170 613 170 613 170 604 c 2,23,-1
 170 369 l 1,14,-1
EndSplineSet
Validated: 1
Substitution2: "'ss02' Style Set 2 in Latin lookup 5 subtable" A.alt2
Substitution2: "'ss01' Style Set 1 in Latin lookup 4 subtable" A.alt
AlternateSubs2: "'aalt' Access All Alternates in Latin lookup 1 subtable" A.alt A.alt2
EndChar

StartChar: B
Encoding: 66 66 37
Width: 851
GlyphClass: 2
Flags: W
LayerCount: 2
Fore
SplineSet
754 396 m 1,0,1
 798 357 798 357 798 298 c 2,2,-1
 798 133 l 2,3,4
 798 78 798 78 759 39 c 128,-1,5
 720 0 720 0 665 0 c 2,6,-1
 60 0 l 1,7,-1
 60 737 l 1,8,-1
 634 737 l 2,9,10
 689 737 689 737 728 698 c 128,-1,11
 767 659 767 659 767 604 c 2,12,-1
 767 454 l 2,13,14
 767 425 767 425 754 396 c 1,0,1
634 627 m 2,15,-1
 194 627 l 2,16,17
 185 627 185 627 178 620 c 128,-1,18
 171 613 171 613 171 604 c 2,19,-1
 171 454 l 2,20,21
 171 445 171 445 177.5 438 c 128,-1,22
 184 431 184 431 194 431 c 2,23,-1
 634 431 l 2,24,25
 643 431 643 431 649.5 437.5 c 128,-1,26
 656 444 656 444 656 454 c 2,27,-1
 656 604 l 2,28,29
 656 613 656 613 649.5 620 c 128,-1,30
 643 627 643 627 634 627 c 2,15,-1
687 133 m 2,31,-1
 687 298 l 2,32,33
 687 307 687 307 680.5 314 c 128,-1,34
 674 321 674 321 665 321 c 2,35,-1
 194 321 l 2,36,37
 185 321 185 321 178 314 c 128,-1,38
 171 307 171 307 171 298 c 2,39,-1
 171 133 l 2,40,41
 171 124 171 124 177.5 117.5 c 128,-1,42
 184 111 184 111 194 111 c 2,43,-1
 665 111 l 2,44,45
 674 111 674 111 680.5 117.5 c 128,-1,46
 687 124 687 124 687 133 c 2,31,-1
EndSplineSet
Validated: 1
EndChar

StartChar: C
Encoding: 67 67 38
Width: 841
GlyphClass: 2
Flags: W
LayerCount: 2
Fore
SplineSet
793 627 m 1,0,-1
 190 627 l 2,1,2
 181 627 181 627 174.5 620 c 128,-1,3
 168 613 168 613 168 604 c 2,4,-1
 168 133 l 2,5,6
 168 124 168 124 174.5 117.5 c 128,-1,7
 181 111 181 111 190 111 c 2,8,-1
 793 111 l 1,9,-1
 793 0 l 1,10,-1
 190 0 l 2,11,12
 135 0 135 0 96 39 c 128,-1,13
 57 78 57 78 57 133 c 2,14,-1
 57 604 l 2,15,16
 57 659 57 659 96 698 c 128,-1,17
 135 737 135 737 190 737 c 2,18,-1
 793 737 l 1,19,-1
 793 627 l 1,0,-1
EndSplineSet
Validated: 1
Substitution2: "'salt' Stylistic Alternatives in Latin lookup 2 subtable" C.alt
Substitution2: "'aalt' Access All Alternates in Latin lookup 0 subtable" C.alt
EndChar

StartChar: D
Encoding: 68 68 39
Width: 854
GlyphClass: 2
Flags: W
LayerCount: 2
Fore
SplineSet
59 737 m 1,0,-1
 664 737 l 2,1,2
 719 737 719 737 758 698 c 128,-1,3
 797 659 797 659 797 604 c 2,4,-1
 797 133 l 2,5,6
 797 78 797 78 758 39 c 128,-1,7
 719 0 719 0 664 0 c 2,8,-1
 59 0 l 1,9,-1
 59 737 l 1,0,-1
686 133 m 2,10,-1
 686 604 l 2,11,12
 686 613 686 613 679.5 620 c 128,-1,13
 673 627 673 627 664 627 c 2,14,-1
 193 627 l 2,15,16
 184 627 184 627 177 620 c 128,-1,17
 170 613 170 613 170 604 c 2,18,-1
 170 133 l 2,19,20
 170 124 170 124 176.5 117.5 c 128,-1,21
 183 111 183 111 193 111 c 2,22,-1
 664 111 l 2,23,24
 673 111 673 111 679.5 117.5 c 128,-1,25
 686 124 686 124 686 133 c 2,10,-1
EndSplineSet
Validated: 1
EndChar

StartChar: E
Encoding: 69 69 40
Width: 784
GlyphClass: 2
Flags: W
LayerCount: 2
Fore
SplineSet
735 737 m 1,0,-1
 735 627 l 1,1,-1
 170 627 l 1,2,-1
 170 424 l 1,3,-1
 625 424 l 1,4,-1
 625 313 l 1,5,-1
 170 313 l 1,6,-1
 170 111 l 1,7,-1
 735 111 l 1,8,-1
 735 0 l 1,9,-1
 59 0 l 1,10,-1
 59 737 l 1,11,-1
 735 737 l 1,0,-1
EndSplineSet
Validated: 1
EndChar

StartChar: F
Encoding: 70 70 41
Width: 740
GlyphClass: 2
Flags: W
LayerCount: 2
Fore
SplineSet
59 737 m 1,0,-1
 735 737 l 1,1,-1
 735 627 l 1,2,-1
 170 627 l 1,3,-1
 170 424 l 1,4,-1
 625 424 l 1,5,-1
 625 313 l 1,6,-1
 170 313 l 1,7,-1
 170 0 l 1,8,-1
 59 0 l 1,9,-1
 59 737 l 1,0,-1
EndSplineSet
Validated: 1
EndChar

StartChar: G
Encoding: 71 71 42
Width: 849
GlyphClass: 2
Flags: W
LayerCount: 2
Fore
SplineSet
795 604 m 2,0,-1
 795 560 l 1,1,-1
 684 560 l 1,2,-1
 684 604 l 2,3,4
 684 613 684 613 677.5 620 c 128,-1,5
 671 627 671 627 662 627 c 2,6,-1
 190 627 l 2,7,8
 181 627 181 627 174.5 620 c 128,-1,9
 168 613 168 613 168 604 c 2,10,-1
 168 133 l 2,11,12
 168 124 168 124 174.5 117.5 c 128,-1,13
 181 111 181 111 190 111 c 2,14,-1
 662 111 l 2,15,16
 671 111 671 111 677.5 117.5 c 128,-1,17
 684 124 684 124 684 133 c 2,18,-1
 684 293 l 1,19,-1
 510 293 l 1,20,-1
 510 403 l 1,21,-1
 795 403 l 1,22,-1
 795 133 l 2,23,24
 795 78 795 78 756 39 c 128,-1,25
 717 0 717 0 662 0 c 2,26,-1
 190 0 l 2,27,28
 135 0 135 0 96 39 c 128,-1,29
 57 78 57 78 57 133 c 2,30,-1
 57 604 l 2,31,32
 57 659 57 659 96 698 c 128,-1,33
 135 737 135 737 190 737 c 2,34,-1
 662 737 l 2,35,36
 717 737 717 737 756 698 c 128,-1,37
 795 659 795 659 795 604 c 2,0,-1
EndSplineSet
Validated: 1
EndChar

StartChar: H
Encoding: 72 72 43
Width: 871
GlyphClass: 2
Flags: W
LayerCount: 2
Fore
SplineSet
702 737 m 1,0,-1
 813 737 l 1,1,-1
 813 0 l 1,2,-1
 702 0 l 1,3,-1
 702 313 l 1,4,-1
 169 313 l 1,5,-1
 169 0 l 1,6,-1
 58 0 l 1,7,-1
 58 737 l 1,8,-1
 169 737 l 1,9,-1
 169 424 l 1,10,-1
 702 424 l 1,11,-1
 702 737 l 1,0,-1
EndSplineSet
Validated: 1
EndChar

StartChar: I
Encoding: 73 73 44
Width: 225
GlyphClass: 2
Flags: W
LayerCount: 2
Fore
SplineSet
58 0 m 1,0,-1
 58 737 l 1,1,-1
 169 737 l 1,2,-1
 169 0 l 1,3,-1
 58 0 l 1,0,-1
EndSplineSet
Validated: 1
Substitution2: "'salt' Stylistic Alternatives in Latin lookup 2 subtable" I.alt
Substitution2: "'aalt' Access All Alternates in Latin lookup 0 subtable" I.alt
EndChar

StartChar: J
Encoding: 74 74 45
Width: 798
GlyphClass: 2
Flags: W
LayerCount: 2
Fore
SplineSet
631 133 m 2,0,-1
 631 737 l 1,1,-1
 741 737 l 1,2,-1
 741 133 l 2,3,4
 741 78 741 78 702.5 39 c 128,-1,5
 664 0 664 0 608 0 c 2,6,-1
 137 0 l 2,7,8
 82 0 82 0 43 39 c 128,-1,9
 4 78 4 78 4 133 c 2,10,-1
 4 205 l 1,11,-1
 115 205 l 1,12,-1
 115 133 l 2,13,14
 115 124 115 124 121.5 117.5 c 128,-1,15
 128 111 128 111 137 111 c 2,16,-1
 608 111 l 2,17,18
 617 111 617 111 624 117.5 c 128,-1,19
 631 124 631 124 631 133 c 2,0,-1
EndSplineSet
Validated: 1
Substitution2: "'salt' Stylistic Alternatives in Latin lookup 2 subtable" J.alt
Substitution2: "'aalt' Access All Alternates in Latin lookup 0 subtable" J.alt
EndChar

StartChar: K
Encoding: 75 75 46
Width: 816
GlyphClass: 2
Flags: W
LayerCount: 2
Fore
SplineSet
637 737 m 1,0,-1
 768 737 l 1,1,-1
 768 722 l 1,2,-1
 472 369 l 1,3,-1
 768 15 l 1,4,-1
 768 0 l 1,5,-1
 637 0 l 1,6,-1
 374 313 l 1,7,-1
 169 313 l 1,8,-1
 169 0 l 1,9,-1
 58 0 l 1,10,-1
 58 737 l 1,11,-1
 169 737 l 1,12,-1
 169 424 l 1,13,-1
 374 424 l 1,14,-1
 637 737 l 1,0,-1
EndSplineSet
Validated: 1
Substitution2: "'salt' Stylistic Alternatives in Latin lookup 2 subtable" K.alt
Substitution2: "'aalt' Access All Alternates in Latin lookup 0 subtable" K.alt
EndChar

StartChar: L
Encoding: 76 76 47
Width: 797
GlyphClass: 2
Flags: W
LayerCount: 2
Fore
SplineSet
58 0 m 1,0,-1
 58 738 l 1,1,-1
 169 738 l 1,2,-1
 169 111 l 1,3,-1
 796 111 l 1,4,-1
 796 0 l 1,5,-1
 58 0 l 1,0,-1
EndSplineSet
Validated: 1
EndChar

StartChar: M
Encoding: 77 77 48
Width: 950
GlyphClass: 2
Flags: W
LayerCount: 2
Fore
SplineSet
475 396 m 1,0,-1
 761 737 l 1,1,-1
 893 737 l 1,2,-1
 893 0 l 1,3,-1
 782 0 l 1,4,-1
 782 590 l 1,5,-1
 475 224 l 1,6,-1
 168 590 l 1,7,-1
 168 0 l 1,8,-1
 57 0 l 1,9,-1
 57 737 l 1,10,-1
 188 737 l 1,11,-1
 475 396 l 1,0,-1
EndSplineSet
Validated: 1
Substitution2: "'salt' Stylistic Alternatives in Latin lookup 2 subtable" M.alt
Substitution2: "'aalt' Access All Alternates in Latin lookup 0 subtable" M.alt
EndChar

StartChar: N
Encoding: 78 78 49
Width: 851
GlyphClass: 2
Flags: W
LayerCount: 2
Fore
SplineSet
684 147 m 1,0,-1
 684 737 l 1,1,-1
 795 737 l 1,2,-1
 795 0 l 1,3,-1
 664 0 l 1,4,-1
 168 590 l 1,5,-1
 168 0 l 1,6,-1
 57 0 l 1,7,-1
 57 737 l 1,8,-1
 188 737 l 1,9,-1
 684 147 l 1,0,-1
EndSplineSet
Validated: 1
Substitution2: "'salt' Stylistic Alternatives in Latin lookup 2 subtable" N.alt
Substitution2: "'aalt' Access All Alternates in Latin lookup 0 subtable" N.alt
EndChar

StartChar: O
Encoding: 79 79 50
Width: 847
GlyphClass: 2
Flags: W
LayerCount: 2
Fore
SplineSet
188 737 m 2,0,-1
 659 737 l 2,1,2
 714 737 714 737 753.5 698 c 128,-1,3
 793 659 793 659 793 604 c 2,4,-1
 793 133 l 2,5,6
 793 78 793 78 754 39 c 128,-1,7
 715 0 715 0 659 0 c 2,8,-1
 188 0 l 2,9,10
 133 0 133 0 94 39 c 128,-1,11
 55 78 55 78 55 133 c 2,12,-1
 55 604 l 2,13,14
 55 659 55 659 94 698 c 128,-1,15
 133 737 133 737 188 737 c 2,0,-1
188 111 m 2,16,-1
 659 111 l 2,17,18
 668 111 668 111 675 117.5 c 128,-1,19
 682 124 682 124 682 133 c 2,20,-1
 682 604 l 2,21,22
 682 613 682 613 675.5 620 c 128,-1,23
 669 627 669 627 659 627 c 2,24,-1
 188 627 l 2,25,26
 179 627 179 627 172.5 620 c 128,-1,27
 166 613 166 613 166 604 c 2,28,-1
 166 133 l 2,29,30
 166 124 166 124 172.5 117.5 c 128,-1,31
 179 111 179 111 188 111 c 2,16,-1
EndSplineSet
Validated: 1
Substitution2: "'salt' Stylistic Alternatives in Latin lookup 2 subtable" O.alt
Substitution2: "'aalt' Access All Alternates in Latin lookup 0 subtable" O.alt
EndChar

StartChar: P
Encoding: 80 80 51
Width: 809
GlyphClass: 2
Flags: W
LayerCount: 2
Fore
SplineSet
57 736 m 1,0,-1
 662 736 l 2,1,2
 717 736 717 736 756 696.5 c 128,-1,3
 795 657 795 657 795 603 c 2,4,-1
 795 396 l 2,5,6
 795 342 795 342 756 302.5 c 128,-1,7
 717 263 717 263 662 263 c 2,8,-1
 190 263 l 2,9,10
 182 263 182 263 168 265 c 1,11,-1
 168 0 l 1,12,-1
 57 0 l 1,13,-1
 57 736 l 1,0,-1
684 396 m 2,14,-1
 684 603 l 2,15,16
 684 612 684 612 677.5 619 c 128,-1,17
 671 626 671 626 662 626 c 2,18,-1
 190 626 l 2,19,20
 181 626 181 626 174.5 619 c 128,-1,21
 168 612 168 612 168 603 c 2,22,-1
 168 396 l 2,23,24
 168 387 168 387 174.5 380.5 c 128,-1,25
 181 374 181 374 190 374 c 2,26,-1
 662 374 l 2,27,28
 671 374 671 374 677.5 380.5 c 128,-1,29
 684 387 684 387 684 396 c 2,14,-1
EndSplineSet
Validated: 1
EndChar

StartChar: Q
Encoding: 81 81 52
Width: 905
GlyphClass: 2
Flags: W
LayerCount: 2
Fore
SplineSet
791 111 m 1,0,-1
 885 111 l 1,1,-1
 885 0 l 1,2,-1
 188 0 l 2,3,4
 133 0 133 0 94 39 c 128,-1,5
 55 78 55 78 55 133 c 2,6,-1
 55 604 l 2,7,8
 55 659 55 659 94 698 c 128,-1,9
 133 737 133 737 188 737 c 2,10,-1
 659 737 l 2,11,12
 714 737 714 737 753.5 698 c 128,-1,13
 793 659 793 659 793 604 c 2,14,-1
 793 133 l 2,15,16
 793 125 793 125 791 111 c 1,0,-1
188 111 m 2,17,-1
 659 111 l 2,18,19
 668 111 668 111 675 117.5 c 128,-1,20
 682 124 682 124 682 133 c 2,21,-1
 682 604 l 2,22,23
 682 613 682 613 675.5 620 c 128,-1,24
 669 627 669 627 659 627 c 2,25,-1
 188 627 l 2,26,27
 179 627 179 627 172.5 620 c 128,-1,28
 166 613 166 613 166 604 c 2,29,-1
 166 133 l 2,30,31
 166 124 166 124 172.5 117.5 c 128,-1,32
 179 111 179 111 188 111 c 2,17,-1
EndSplineSet
Validated: 1
Substitution2: "'salt' Stylistic Alternatives in Latin lookup 2 subtable" Q.alt
Substitution2: "'aalt' Access All Alternates in Latin lookup 0 subtable" Q.alt
EndChar

StartChar: R
Encoding: 82 82 53
Width: 844
GlyphClass: 2
Flags: W
LayerCount: 2
Fore
SplineSet
794 603 m 2,0,-1
 794 396 l 2,1,2
 794 342 794 342 755 302.5 c 128,-1,3
 716 263 716 263 660 263 c 2,4,-1
 586 263 l 1,5,-1
 794 15 l 1,6,-1
 794 0 l 1,7,-1
 663 0 l 1,8,-1
 441 263 l 1,9,-1
 189 263 l 2,10,11
 181 263 181 263 167 265 c 1,12,-1
 167 0 l 1,13,-1
 56 0 l 1,14,-1
 56 736 l 1,15,-1
 660 736 l 2,16,17
 715 736 715 736 754.5 696.5 c 128,-1,18
 794 657 794 657 794 603 c 2,0,-1
189 374 m 2,19,-1
 660 374 l 2,20,21
 669 374 669 374 676 380.5 c 128,-1,22
 683 387 683 387 683 396 c 2,23,-1
 683 603 l 2,24,25
 683 612 683 612 676.5 619 c 128,-1,26
 670 626 670 626 660 626 c 2,27,-1
 189 626 l 2,28,29
 180 626 180 626 173.5 619 c 128,-1,30
 167 612 167 612 167 603 c 2,31,-1
 167 396 l 2,32,33
 167 387 167 387 173.5 380.5 c 128,-1,34
 180 374 180 374 189 374 c 2,19,-1
EndSplineSet
Validated: 1
Substitution2: "'salt' Stylistic Alternatives in Latin lookup 2 subtable" R.alt
Substitution2: "'aalt' Access All Alternates in Latin lookup 0 subtable" R.alt
EndChar

StartChar: S
Encoding: 83 83 54
Width: 841
GlyphClass: 2
Flags: W
LayerCount: 2
Fore
SplineSet
790 604 m 2,0,-1
 790 561 l 1,1,-1
 679 561 l 1,2,-1
 679 604 l 2,3,4
 679 613 679 613 672.5 620 c 128,-1,5
 666 627 666 627 656 627 c 2,6,-1
 185 627 l 2,7,8
 176 627 176 627 169.5 620 c 128,-1,9
 163 613 163 613 163 604 c 2,10,-1
 163 446 l 2,11,12
 163 437 163 437 169.5 430.5 c 128,-1,13
 176 424 176 424 185 424 c 2,14,-1
 656 424 l 2,15,16
 711 424 711 424 750.5 385 c 128,-1,17
 790 346 790 346 790 291 c 2,18,-1
 790 133 l 2,19,20
 790 78 790 78 751 39 c 128,-1,21
 712 0 712 0 656 0 c 2,22,-1
 185 0 l 2,23,24
 130 0 130 0 91 39 c 128,-1,25
 52 78 52 78 52 133 c 2,26,-1
 52 176 l 1,27,-1
 163 176 l 1,28,-1
 163 133 l 2,29,30
 163 124 163 124 169.5 117.5 c 128,-1,31
 176 111 176 111 185 111 c 2,32,-1
 656 111 l 2,33,34
 665 111 665 111 672 117.5 c 128,-1,35
 679 124 679 124 679 133 c 2,36,-1
 679 291 l 2,37,38
 679 300 679 300 672.5 306.5 c 128,-1,39
 666 313 666 313 656 313 c 2,40,-1
 185 313 l 2,41,42
 130 313 130 313 91 352 c 128,-1,43
 52 391 52 391 52 446 c 2,44,-1
 52 604 l 2,45,46
 52 659 52 659 91 698 c 128,-1,47
 130 737 130 737 185 737 c 2,48,-1
 656 737 l 2,49,50
 711 737 711 737 750.5 698 c 128,-1,51
 790 659 790 659 790 604 c 2,0,-1
EndSplineSet
Validated: 1
Substitution2: "'salt' Stylistic Alternatives in Latin lookup 2 subtable" S.alt
Substitution2: "'aalt' Access All Alternates in Latin lookup 0 subtable" S.alt
EndChar

StartChar: T
Encoding: 84 84 55
Width: 777
GlyphClass: 2
Flags: W
LayerCount: 2
Fore
SplineSet
20 737 m 1,0,-1
 758 737 l 1,1,-1
 758 627 l 1,2,-1
 444 627 l 1,3,-1
 444 0 l 1,4,-1
 334 0 l 1,5,-1
 334 627 l 1,6,-1
 20 627 l 1,7,-1
 20 737 l 1,0,-1
EndSplineSet
Validated: 1
EndChar

StartChar: U
Encoding: 85 85 56
Width: 847
GlyphClass: 2
Flags: W
LayerCount: 2
Fore
SplineSet
682 133 m 2,0,-1
 682 737 l 1,1,-1
 793 737 l 1,2,-1
 793 133 l 2,3,4
 793 78 793 78 754 39 c 128,-1,5
 715 0 715 0 659 0 c 2,6,-1
 188 0 l 2,7,8
 133 0 133 0 94 39 c 128,-1,9
 55 78 55 78 55 133 c 2,10,-1
 55 737 l 1,11,-1
 166 737 l 1,12,-1
 166 133 l 2,13,14
 166 124 166 124 172.5 117.5 c 128,-1,15
 179 111 179 111 188 111 c 2,16,-1
 659 111 l 2,17,18
 668 111 668 111 675 117.5 c 128,-1,19
 682 124 682 124 682 133 c 2,0,-1
EndSplineSet
Validated: 1
EndChar

StartChar: V
Encoding: 86 86 57
Width: 1027
GlyphClass: 2
Flags: W
LayerCount: 2
Fore
SplineSet
517 125 m 1,0,-1
 870 737 l 1,1,-1
 997 737 l 1,2,-1
 572 0 l 1,3,-1
 462 0 l 1,4,-1
 36 737 l 1,5,-1
 164 737 l 1,6,-1
 517 125 l 1,0,-1
EndSplineSet
Validated: 1
Substitution2: "'ss02' Style Set 2 in Latin lookup 5 subtable" V.alt2
Substitution2: "'ss01' Style Set 1 in Latin lookup 4 subtable" V.alt
Substitution2: "'salt' Stylistic Alternatives in Latin lookup 2 subtable" V.alt3
AlternateSubs2: "'aalt' Access All Alternates in Latin lookup 1 subtable" V.alt3 V.alt V.alt2
EndChar

StartChar: W
Encoding: 87 87 58
Width: 1207
GlyphClass: 2
Flags: W
LayerCount: 2
Fore
SplineSet
1054 737 m 1,0,-1
 1171 737 l 1,1,-1
 903 0 l 1,2,-1
 813 0 l 1,3,-1
 603 574 l 1,4,-1
 394 0 l 1,5,-1
 392 1 l 1,6,-1
 393 0 l 1,7,-1
 304 0 l 1,8,-1
 36 737 l 1,9,-1
 154 737 l 1,10,-1
 349 200 l 1,11,-1
 545 737 l 1,12,-1
 663 737 l 1,13,-1
 858 200 l 1,14,-1
 1054 737 l 1,0,-1
EndSplineSet
Validated: 1
Substitution2: "'ss02' Style Set 2 in Latin lookup 5 subtable" W.alt2
Substitution2: "'ss01' Style Set 1 in Latin lookup 4 subtable" W.alt
Substitution2: "'salt' Stylistic Alternatives in Latin lookup 2 subtable" W.alt4
AlternateSubs2: "'aalt' Access All Alternates in Latin lookup 1 subtable" W.alt4 W.alt W.alt2
EndChar

StartChar: X
Encoding: 88 88 59
Width: 831
GlyphClass: 2
Flags: W
LayerCount: 2
Fore
SplineSet
653 737 m 1,0,-1
 784 737 l 1,1,-1
 784 722 l 1,2,-1
 487 369 l 1,3,-1
 784 15 l 1,4,-1
 784 0 l 1,5,-1
 653 0 l 1,6,-1
 416 283 l 1,7,-1
 178 0 l 1,8,-1
 47 0 l 1,9,-1
 47 15 l 1,10,-1
 343 369 l 1,11,-1
 47 722 l 1,12,-1
 47 737 l 1,13,-1
 178 737 l 1,14,-1
 416 455 l 1,15,-1
 653 737 l 1,0,-1
EndSplineSet
Validated: 1
Substitution2: "'salt' Stylistic Alternatives in Latin lookup 2 subtable" X.alt
Substitution2: "'aalt' Access All Alternates in Latin lookup 0 subtable" X.alt
EndChar

StartChar: Y
Encoding: 89 89 60
Width: 825
GlyphClass: 2
Flags: W
LayerCount: 2
Fore
SplineSet
677 737 m 1,0,-1
 808 737 l 1,1,-1
 468 276 l 1,2,-1
 468 0 l 1,3,-1
 357 0 l 1,4,-1
 357 276 l 1,5,-1
 17 737 l 1,6,-1
 147 737 l 1,7,-1
 413 401 l 1,8,-1
 677 737 l 1,0,-1
EndSplineSet
Validated: 1
Substitution2: "'salt' Stylistic Alternatives in Latin lookup 2 subtable" Y.alt
Substitution2: "'aalt' Access All Alternates in Latin lookup 0 subtable" Y.alt
EndChar

StartChar: Z
Encoding: 90 90 61
Width: 840
GlyphClass: 2
Flags: W
LayerCount: 2
Fore
SplineSet
52 627 m 1,0,-1
 52 737 l 1,1,-1
 790 737 l 1,2,-1
 790 606 l 1,3,-1
 200 111 l 1,4,-1
 790 111 l 1,5,-1
 790 0 l 1,6,-1
 52 0 l 1,7,-1
 52 131 l 1,8,-1
 642 627 l 1,9,-1
 52 627 l 1,0,-1
EndSplineSet
Validated: 1
Substitution2: "'salt' Stylistic Alternatives in Latin lookup 2 subtable" Z.alt
Substitution2: "'aalt' Access All Alternates in Latin lookup 0 subtable" Z.alt
EndChar

StartChar: bracketleft
Encoding: 91 91 62
Width: 281
GlyphClass: 2
Flags: W
LayerCount: 2
Fore
SplineSet
55 0 m 1,0,-1
 55 737 l 1,1,-1
 231 737 l 1,2,-1
 231 627 l 1,3,-1
 166 627 l 1,4,-1
 166 111 l 1,5,-1
 231 111 l 1,6,-1
 231 0 l 1,7,-1
 55 0 l 1,0,-1
EndSplineSet
Validated: 1
EndChar

StartChar: backslash
Encoding: 92 92 63
Width: 532
GlyphClass: 2
Flags: W
LayerCount: 2
Fore
SplineSet
5 737 m 1,0,-1
 20 737 l 1,1,-1
 527 131 l 1,2,-1
 527 0 l 1,3,-1
 512 0 l 1,4,-1
 5 606 l 1,5,-1
 5 737 l 1,0,-1
EndSplineSet
Validated: 1
EndChar

StartChar: bracketright
Encoding: 93 93 64
Width: 282
GlyphClass: 2
Flags: W
LayerCount: 2
Fore
SplineSet
52 627 m 1,0,-1
 52 737 l 1,1,-1
 228 737 l 1,2,-1
 228 0 l 1,3,-1
 52 0 l 1,4,-1
 52 111 l 1,5,-1
 118 111 l 1,6,-1
 118 627 l 1,7,-1
 52 627 l 1,0,-1
EndSplineSet
Validated: 1
EndChar

StartChar: underscore
Encoding: 95 95 65
Width: 847
GlyphClass: 2
Flags: W
LayerCount: 2
Fore
SplineSet
793 0 m 1,0,-1
 793 -111 l 1,1,-1
 55 -111 l 1,2,-1
 55 0 l 1,3,-1
 793 0 l 1,0,-1
EndSplineSet
Validated: 1
EndChar

StartChar: grave
Encoding: 96 96 66
Width: 218
GlyphClass: 2
Flags: W
LayerCount: 2
Fore
SplineSet
143 1013 m 1,0,-1
 184 847 l 1,1,-1
 74 847 l 1,2,-1
 33 1013 l 1,3,-1
 143 1013 l 1,0,-1
EndSplineSet
Validated: 1
EndChar

StartChar: a
Encoding: 97 97 67
Width: 710
GlyphClass: 2
Flags: W
LayerCount: 2
Fore
SplineSet
524 594 m 2,0,1
 579 594 579 594 618 555 c 128,-1,2
 657 516 657 516 657 461 c 2,3,-1
 657 0 l 1,4,-1
 186 0 l 2,5,6
 131 0 131 0 92 39 c 128,-1,7
 53 78 53 78 53 133 c 2,8,-1
 53 352 l 1,9,-1
 547 352 l 1,10,-1
 547 461 l 2,11,12
 547 470 547 470 540.5 476.5 c 128,-1,13
 534 483 534 483 524 483 c 2,14,-1
 53 483 l 1,15,-1
 53 594 l 1,16,-1
 524 594 l 2,0,1
547 111 m 1,17,-1
 547 242 l 1,18,-1
 164 242 l 1,19,-1
 164 133 l 2,20,21
 164 124 164 124 170.5 117.5 c 128,-1,22
 177 111 177 111 186 111 c 2,23,-1
 547 111 l 1,17,-1
EndSplineSet
Validated: 1
Substitution2: "'smcp' Lowercase to Small Capitals in Latin lookup 3 subtable" a.sc
Substitution2: "'salt' Stylistic Alternatives in Latin lookup 2 subtable" a.alt
AlternateSubs2: "'aalt' Access All Alternates in Latin lookup 1 subtable" a.sc a.alt
EndChar

StartChar: b
Encoding: 98 98 68
Width: 683
GlyphClass: 2
Flags: W
LayerCount: 2
Fore
SplineSet
526 594 m 2,0,1
 581 594 581 594 620 555 c 128,-1,2
 659 516 659 516 659 461 c 2,3,-1
 659 133 l 2,4,5
 659 78 659 78 620.5 39 c 128,-1,6
 582 0 582 0 526 0 c 2,7,-1
 55 0 l 1,8,-1
 55 788 l 1,9,-1
 166 788 l 1,10,-1
 166 594 l 1,11,-1
 526 594 l 2,0,1
549 133 m 2,12,-1
 549 461 l 2,13,14
 549 470 549 470 542.5 476.5 c 128,-1,15
 536 483 536 483 526 483 c 2,16,-1
 188 483 l 2,17,18
 179 483 179 483 172.5 476.5 c 128,-1,19
 166 470 166 470 166 461 c 2,20,-1
 166 133 l 2,21,22
 166 124 166 124 172.5 117.5 c 128,-1,23
 179 111 179 111 188 111 c 2,24,-1
 526 111 l 2,25,26
 535 111 535 111 542 117.5 c 128,-1,27
 549 124 549 124 549 133 c 2,12,-1
EndSplineSet
Validated: 1
Substitution2: "'smcp' Lowercase to Small Capitals in Latin lookup 3 subtable" b.sc
Substitution2: "'aalt' Access All Alternates in Latin lookup 0 subtable" b.sc
EndChar

StartChar: c
Encoding: 99 99 69
Width: 711
GlyphClass: 2
Flags: W
LayerCount: 2
Fore
SplineSet
185 111 m 2,0,-1
 656 111 l 1,1,-1
 656 0 l 1,2,-1
 185 0 l 2,3,4
 130 0 130 0 91 39 c 128,-1,5
 52 78 52 78 52 133 c 2,6,-1
 52 461 l 2,7,8
 52 516 52 516 91 555 c 128,-1,9
 130 594 130 594 185 594 c 2,10,-1
 654 594 l 1,11,-1
 654 483 l 1,12,-1
 185 483 l 2,13,14
 176 483 176 483 169.5 476.5 c 128,-1,15
 163 470 163 470 163 461 c 2,16,-1
 163 133 l 2,17,18
 163 124 163 124 169.5 117.5 c 128,-1,19
 176 111 176 111 185 111 c 2,0,-1
EndSplineSet
Validated: 1
Substitution2: "'smcp' Lowercase to Small Capitals in Latin lookup 3 subtable" c.sc
Substitution2: "'aalt' Access All Alternates in Latin lookup 0 subtable" c.sc
EndChar

StartChar: d
Encoding: 100 100 70
Width: 683
GlyphClass: 2
Flags: W
LayerCount: 2
Fore
SplineSet
517 788 m 1,0,-1
 628 788 l 1,1,-1
 628 0 l 1,2,-1
 157 0 l 2,3,4
 102 0 102 0 63 39 c 128,-1,5
 24 78 24 78 24 133 c 2,6,-1
 24 461 l 2,7,8
 24 516 24 516 62.5 555 c 128,-1,9
 101 594 101 594 157 594 c 2,10,-1
 517 594 l 1,11,-1
 517 788 l 1,0,-1
157 111 m 2,12,-1
 495 111 l 2,13,14
 504 111 504 111 510.5 117.5 c 128,-1,15
 517 124 517 124 517 133 c 2,16,-1
 517 461 l 2,17,18
 517 470 517 470 510.5 476.5 c 128,-1,19
 504 483 504 483 495 483 c 2,20,-1
 157 483 l 2,21,22
 148 483 148 483 141 476.5 c 128,-1,23
 134 470 134 470 134 461 c 2,24,-1
 134 133 l 2,25,26
 134 124 134 124 141 117.5 c 128,-1,27
 148 111 148 111 157 111 c 2,12,-1
EndSplineSet
Validated: 1
Substitution2: "'smcp' Lowercase to Small Capitals in Latin lookup 3 subtable" d.sc
Substitution2: "'aalt' Access All Alternates in Latin lookup 0 subtable" d.sc
EndChar

StartChar: e
Encoding: 101 101 71
Width: 708
GlyphClass: 2
Flags: W
LayerCount: 2
Fore
SplineSet
523 594 m 2,0,1
 578 594 578 594 617 555 c 128,-1,2
 656 516 656 516 656 461 c 2,3,-1
 656 242 l 1,4,-1
 163 242 l 1,5,-1
 163 133 l 2,6,7
 163 124 163 124 169.5 117.5 c 128,-1,8
 176 111 176 111 185 111 c 2,9,-1
 656 111 l 1,10,-1
 656 0 l 1,11,-1
 185 0 l 2,12,13
 130 0 130 0 91 39 c 128,-1,14
 52 78 52 78 52 133 c 2,15,-1
 52 461 l 2,16,17
 52 516 52 516 91 555 c 128,-1,18
 130 594 130 594 185 594 c 2,19,-1
 523 594 l 2,0,1
163 352 m 1,20,-1
 546 352 l 1,21,-1
 546 461 l 2,22,23
 546 470 546 470 539 476.5 c 128,-1,24
 532 483 532 483 523 483 c 2,25,-1
 185 483 l 2,26,27
 176 483 176 483 169.5 476.5 c 128,-1,28
 163 470 163 470 163 461 c 2,29,-1
 163 352 l 1,20,-1
EndSplineSet
Validated: 1
Substitution2: "'smcp' Lowercase to Small Capitals in Latin lookup 3 subtable" e.sc
Substitution2: "'aalt' Access All Alternates in Latin lookup 0 subtable" e.sc
EndChar

StartChar: f
Encoding: 102 102 72
Width: 416
GlyphClass: 2
Flags: W
LayerCount: 2
Fore
SplineSet
187 678 m 2,0,1
 178 678 178 678 171.5 671.5 c 128,-1,2
 165 665 165 665 165 655 c 2,3,-1
 165 594 l 1,4,-1
 409 594 l 1,5,-1
 409 483 l 1,6,-1
 165 483 l 1,7,-1
 165 0 l 1,8,-1
 54 0 l 1,9,-1
 54 328 l 1,10,-1
 54 655 l 2,11,12
 54 710 54 710 93 749 c 128,-1,13
 132 788 132 788 187 788 c 2,14,-1
 409 788 l 1,15,-1
 409 678 l 1,16,-1
 187 678 l 2,0,1
EndSplineSet
Validated: 1
Substitution2: "'smcp' Lowercase to Small Capitals in Latin lookup 3 subtable" f.sc
Substitution2: "'aalt' Access All Alternates in Latin lookup 0 subtable" f.sc
EndChar

StartChar: g
Encoding: 103 103 73
Width: 699
GlyphClass: 2
Flags: W
LayerCount: 2
Fore
SplineSet
646 226 m 1,0,-1
 646 225 l 1,1,-1
 646 -102 l 2,2,3
 646 -157 646 -157 607 -196.5 c 128,-1,4
 568 -236 568 -236 513 -236 c 2,5,-1
 146 -236 l 1,6,-1
 146 -125 l 1,7,-1
 513 -125 l 2,8,9
 522 -125 522 -125 529 -118.5 c 128,-1,10
 536 -112 536 -112 536 -102 c 2,11,-1
 536 0 l 1,12,-1
 175 0 l 2,13,14
 120 0 120 0 81 39 c 128,-1,15
 42 78 42 78 42 133 c 2,16,-1
 42 461 l 2,17,18
 42 516 42 516 81 555 c 128,-1,19
 120 594 120 594 175 594 c 2,20,-1
 513 594 l 2,21,22
 568 594 568 594 607 555 c 128,-1,23
 646 516 646 516 646 461 c 2,24,-1
 646 226 l 1,0,-1
175 111 m 2,25,-1
 513 111 l 2,26,27
 522 111 522 111 529 117.5 c 128,-1,28
 536 124 536 124 536 133 c 2,29,-1
 536 461 l 2,30,31
 536 470 536 470 529 476.5 c 128,-1,32
 522 483 522 483 513 483 c 2,33,-1
 175 483 l 2,34,35
 166 483 166 483 159.5 476.5 c 128,-1,36
 153 470 153 470 153 461 c 2,37,-1
 153 133 l 2,38,39
 153 124 153 124 159.5 117.5 c 128,-1,40
 166 111 166 111 175 111 c 2,25,-1
EndSplineSet
Validated: 1
Substitution2: "'smcp' Lowercase to Small Capitals in Latin lookup 3 subtable" g.sc
Substitution2: "'aalt' Access All Alternates in Latin lookup 0 subtable" g.sc
EndChar

StartChar: h
Encoding: 104 104 74
Width: 684
GlyphClass: 2
Flags: W
LayerCount: 2
Fore
SplineSet
526 594 m 2,0,1
 580 594 580 594 619.5 555 c 128,-1,2
 659 516 659 516 659 461 c 2,3,-1
 659 0 l 1,4,-1
 549 0 l 1,5,-1
 549 461 l 2,6,7
 549 470 549 470 542.5 476.5 c 128,-1,8
 536 483 536 483 526 483 c 2,9,-1
 188 483 l 2,10,11
 179 483 179 483 172.5 476.5 c 128,-1,12
 166 470 166 470 166 461 c 2,13,-1
 166 0 l 1,14,-1
 55 0 l 1,15,-1
 55 788 l 1,16,-1
 166 788 l 1,17,-1
 166 594 l 1,18,-1
 526 594 l 2,0,1
EndSplineSet
Validated: 1
Substitution2: "'smcp' Lowercase to Small Capitals in Latin lookup 3 subtable" h.sc
Substitution2: "'aalt' Access All Alternates in Latin lookup 0 subtable" h.sc
EndChar

StartChar: i
Encoding: 105 105 75
Width: 212
GlyphClass: 2
Flags: W
LayerCount: 2
Fore
SplineSet
53 0 m 1,0,-1
 53 594 l 1,1,-1
 164 594 l 1,2,-1
 164 0 l 1,3,-1
 53 0 l 1,0,-1
53 788 m 1,4,-1
 164 788 l 1,5,-1
 164 678 l 1,6,-1
 53 678 l 1,7,-1
 53 788 l 1,4,-1
EndSplineSet
Validated: 1
Substitution2: "'smcp' Lowercase to Small Capitals in Latin lookup 3 subtable" i.sc
Substitution2: "'aalt' Access All Alternates in Latin lookup 0 subtable" i.sc
EndChar

StartChar: j
Encoding: 106 106 76
Width: 244
GlyphClass: 2
Flags: W
LayerCount: 2
Fore
SplineSet
85 788 m 1,0,-1
 196 788 l 1,1,-1
 196 678 l 1,2,-1
 85 678 l 1,3,-1
 85 788 l 1,0,-1
196 592 m 1,4,-1
 196 225 l 1,5,-1
 196 -102 l 2,6,7
 196 -157 196 -157 157 -196.5 c 128,-1,8
 118 -236 118 -236 62 -236 c 2,9,-1
 -191 -236 l 1,10,-1
 -191 -125 l 1,11,-1
 62 -125 l 2,12,13
 71 -125 71 -125 78 -118.5 c 128,-1,14
 85 -112 85 -112 85 -102 c 2,15,-1
 85 592 l 1,16,-1
 196 592 l 1,4,-1
EndSplineSet
Validated: 1
Substitution2: "'smcp' Lowercase to Small Capitals in Latin lookup 3 subtable" j.sc
Substitution2: "'aalt' Access All Alternates in Latin lookup 0 subtable" j.sc
EndChar

StartChar: k
Encoding: 107 107 77
Width: 661
GlyphClass: 2
Flags: W
LayerCount: 2
Fore
SplineSet
521 594 m 1,0,-1
 652 594 l 1,1,-1
 652 579 l 1,2,-1
 397 297 l 1,3,-1
 652 15 l 1,4,-1
 652 0 l 1,5,-1
 521 0 l 1,6,-1
 299 242 l 1,7,-1
 166 242 l 1,8,-1
 166 0 l 1,9,-1
 55 0 l 1,10,-1
 55 788 l 1,11,-1
 166 788 l 1,12,-1
 166 352 l 1,13,-1
 299 352 l 1,14,-1
 521 594 l 1,0,-1
EndSplineSet
Validated: 1
Substitution2: "'smcp' Lowercase to Small Capitals in Latin lookup 3 subtable" k.sc
Substitution2: "'salt' Stylistic Alternatives in Latin lookup 2 subtable" k.alt
AlternateSubs2: "'aalt' Access All Alternates in Latin lookup 1 subtable" k.sc k.alt
EndChar

StartChar: l
Encoding: 108 108 78
Width: 309
GlyphClass: 2
Flags: W
LayerCount: 2
Fore
SplineSet
53 461 m 1,0,-1
 53 788 l 1,1,-1
 164 788 l 1,2,-1
 164 133 l 2,3,4
 164 124 164 124 170.5 117.5 c 128,-1,5
 177 111 177 111 186 111 c 2,6,-1
 297 111 l 1,7,-1
 297 0 l 1,8,-1
 186 0 l 2,9,10
 131 0 131 0 92 39 c 128,-1,11
 53 78 53 78 53 133 c 2,12,-1
 53 461 l 1,0,-1
EndSplineSet
Validated: 1
Substitution2: "'smcp' Lowercase to Small Capitals in Latin lookup 3 subtable" l.sc
Substitution2: "'aalt' Access All Alternates in Latin lookup 0 subtable" l.sc
EndChar

StartChar: m
Encoding: 109 109 79
Width: 1001
GlyphClass: 2
Flags: W
LayerCount: 2
Fore
SplineSet
814 594 m 2,0,1
 869 594 869 594 908 555 c 128,-1,2
 947 516 947 516 947 461 c 2,3,-1
 947 0 l 1,4,-1
 838 0 l 1,5,-1
 838 461 l 2,6,7
 838 470 838 470 831 476.5 c 128,-1,8
 824 483 824 483 814 483 c 2,9,-1
 580 483 l 2,10,11
 571 483 571 483 564 476.5 c 128,-1,12
 557 470 557 470 557 461 c 2,13,-1
 557 0 l 1,14,-1
 446 0 l 1,15,-1
 446 461 l 2,16,17
 446 470 446 470 439.5 476.5 c 128,-1,18
 433 483 433 483 424 483 c 2,19,-1
 188 483 l 2,20,21
 179 483 179 483 172.5 476.5 c 128,-1,22
 166 470 166 470 166 461 c 2,23,-1
 166 0 l 1,24,-1
 55 0 l 1,25,-1
 55 594 l 1,26,-1
 814 594 l 2,0,1
EndSplineSet
Validated: 1
Substitution2: "'smcp' Lowercase to Small Capitals in Latin lookup 3 subtable" m.sc
Substitution2: "'aalt' Access All Alternates in Latin lookup 0 subtable" m.sc
EndChar

StartChar: n
Encoding: 110 110 80
Width: 712
GlyphClass: 2
Flags: W
LayerCount: 2
Fore
SplineSet
526 594 m 2,0,1
 581 594 581 594 620 555 c 128,-1,2
 659 516 659 516 659 461 c 2,3,-1
 659 0 l 1,4,-1
 549 0 l 1,5,-1
 549 461 l 2,6,7
 549 470 549 470 542.5 476.5 c 128,-1,8
 536 483 536 483 526 483 c 2,9,-1
 188 483 l 2,10,11
 179 483 179 483 172.5 476.5 c 128,-1,12
 166 470 166 470 166 461 c 2,13,-1
 166 0 l 1,14,-1
 55 0 l 1,15,-1
 55 594 l 1,16,-1
 526 594 l 2,0,1
EndSplineSet
Validated: 1
Substitution2: "'smcp' Lowercase to Small Capitals in Latin lookup 3 subtable" n.sc
Substitution2: "'aalt' Access All Alternates in Latin lookup 0 subtable" n.sc
EndChar

StartChar: o
Encoding: 111 111 81
Width: 708
GlyphClass: 2
Flags: W
LayerCount: 2
Fore
SplineSet
185 594 m 2,0,-1
 523 594 l 2,1,2
 578 594 578 594 617 555 c 128,-1,3
 656 516 656 516 656 461 c 2,4,-1
 656 133 l 2,5,6
 656 78 656 78 617.5 39 c 128,-1,7
 579 0 579 0 523 0 c 2,8,-1
 185 0 l 2,9,10
 130 0 130 0 91 39 c 128,-1,11
 52 78 52 78 52 133 c 2,12,-1
 52 461 l 2,13,14
 52 516 52 516 91 555 c 128,-1,15
 130 594 130 594 185 594 c 2,0,-1
523 483 m 2,16,-1
 185 483 l 2,17,18
 176 483 176 483 169.5 476.5 c 128,-1,19
 163 470 163 470 163 461 c 2,20,-1
 163 133 l 2,21,22
 163 124 163 124 169.5 117.5 c 128,-1,23
 176 111 176 111 185 111 c 2,24,-1
 523 111 l 2,25,26
 532 111 532 111 539 117.5 c 128,-1,27
 546 124 546 124 546 133 c 2,28,-1
 546 461 l 2,29,30
 546 470 546 470 539 476.5 c 128,-1,31
 532 483 532 483 523 483 c 2,16,-1
EndSplineSet
Validated: 1
Substitution2: "'smcp' Lowercase to Small Capitals in Latin lookup 3 subtable" o.sc
Substitution2: "'aalt' Access All Alternates in Latin lookup 0 subtable" o.sc
EndChar

StartChar: p
Encoding: 112 112 82
Width: 679
GlyphClass: 2
Flags: W
LayerCount: 2
Fore
SplineSet
526 594 m 2,0,1
 581 594 581 594 620 555 c 128,-1,2
 659 516 659 516 659 461 c 2,3,-1
 659 133 l 2,4,5
 659 78 659 78 620.5 39 c 128,-1,6
 582 0 582 0 526 0 c 2,7,-1
 166 0 l 1,8,-1
 166 -236 l 1,9,-1
 55 -236 l 1,10,-1
 55 594 l 1,11,-1
 526 594 l 2,0,1
549 133 m 2,12,-1
 549 461 l 2,13,14
 549 470 549 470 542.5 476.5 c 128,-1,15
 536 483 536 483 526 483 c 2,16,-1
 188 483 l 2,17,18
 179 483 179 483 172.5 476.5 c 128,-1,19
 166 470 166 470 166 461 c 2,20,-1
 166 133 l 2,21,22
 166 124 166 124 172.5 117.5 c 128,-1,23
 179 111 179 111 188 111 c 2,24,-1
 526 111 l 2,25,26
 535 111 535 111 542 117.5 c 128,-1,27
 549 124 549 124 549 133 c 2,12,-1
EndSplineSet
Validated: 1
Substitution2: "'smcp' Lowercase to Small Capitals in Latin lookup 3 subtable" p.sc
Substitution2: "'aalt' Access All Alternates in Latin lookup 0 subtable" p.sc
EndChar

StartChar: q
Encoding: 113 113 83
Width: 679
GlyphClass: 2
Flags: W
LayerCount: 2
Fore
SplineSet
20 461 m 2,0,1
 20 516 20 516 59 555 c 128,-1,2
 98 594 98 594 154 594 c 2,3,-1
 625 594 l 1,4,-1
 625 -236 l 1,5,-1
 514 -236 l 1,6,-1
 514 0 l 1,7,-1
 154 0 l 2,8,9
 99 0 99 0 59.5 39 c 128,-1,10
 20 78 20 78 20 133 c 2,11,-1
 20 461 l 2,0,1
131 461 m 2,12,-1
 131 133 l 2,13,14
 131 124 131 124 137.5 117.5 c 128,-1,15
 144 111 144 111 154 111 c 2,16,-1
 492 111 l 2,17,18
 501 111 501 111 507.5 117.5 c 128,-1,19
 514 124 514 124 514 133 c 2,20,-1
 514 461 l 2,21,22
 514 470 514 470 507.5 476.5 c 128,-1,23
 501 483 501 483 492 483 c 2,24,-1
 154 483 l 2,25,26
 145 483 145 483 138 476.5 c 128,-1,27
 131 470 131 470 131 461 c 2,12,-1
EndSplineSet
Validated: 1
Substitution2: "'smcp' Lowercase to Small Capitals in Latin lookup 3 subtable" q.sc
Substitution2: "'aalt' Access All Alternates in Latin lookup 0 subtable" q.sc
EndChar

StartChar: r
Encoding: 114 114 84
Width: 524
GlyphClass: 2
Flags: W
LayerCount: 2
Fore
SplineSet
186 594 m 2,0,-1
 518 594 l 1,1,-1
 518 483 l 1,2,-1
 186 483 l 2,3,4
 177 483 177 483 170.5 476.5 c 128,-1,5
 164 470 164 470 164 461 c 2,6,-1
 164 0 l 1,7,-1
 53 0 l 1,8,-1
 53 133 l 1,9,-1
 53 461 l 2,10,11
 53 516 53 516 92 555 c 128,-1,12
 131 594 131 594 186 594 c 2,0,-1
EndSplineSet
Validated: 1
Substitution2: "'smcp' Lowercase to Small Capitals in Latin lookup 3 subtable" r.sc
Substitution2: "'aalt' Access All Alternates in Latin lookup 0 subtable" r.sc
EndChar

StartChar: s
Encoding: 115 115 85
Width: 702
GlyphClass: 2
Flags: W
LayerCount: 2
Fore
SplineSet
653 461 m 2,0,-1
 653 438 l 1,1,-1
 543 438 l 1,2,-1
 543 461 l 2,3,4
 543 470 543 470 536 476.5 c 128,-1,5
 529 483 529 483 520 483 c 2,6,-1
 182 483 l 2,7,8
 173 483 173 483 166.5 476.5 c 128,-1,9
 160 470 160 470 160 461 c 2,10,-1
 160 375 l 2,11,12
 160 366 160 366 166.5 359 c 128,-1,13
 173 352 173 352 182 352 c 2,14,-1
 520 352 l 2,15,16
 575 352 575 352 614 313 c 128,-1,17
 653 274 653 274 653 219 c 2,18,-1
 653 133 l 2,19,20
 653 78 653 78 614 39 c 128,-1,21
 575 0 575 0 520 0 c 2,22,-1
 182 0 l 2,23,24
 127 0 127 0 88 39 c 128,-1,25
 49 78 49 78 49 133 c 2,26,-1
 49 156 l 1,27,-1
 160 156 l 1,28,-1
 160 133 l 2,29,30
 160 124 160 124 166.5 117.5 c 128,-1,31
 173 111 173 111 182 111 c 2,32,-1
 520 111 l 2,33,34
 529 111 529 111 536 117.5 c 128,-1,35
 543 124 543 124 543 133 c 2,36,-1
 543 219 l 2,37,38
 543 228 543 228 536 235 c 128,-1,39
 529 242 529 242 520 242 c 2,40,-1
 182 242 l 2,41,42
 127 242 127 242 88 280.5 c 128,-1,43
 49 319 49 319 49 375 c 2,44,-1
 49 461 l 2,45,46
 49 516 49 516 88 555 c 128,-1,47
 127 594 127 594 182 594 c 2,48,-1
 520 594 l 2,49,50
 575 594 575 594 614 555 c 128,-1,51
 653 516 653 516 653 461 c 2,0,-1
EndSplineSet
Validated: 1
Substitution2: "'smcp' Lowercase to Small Capitals in Latin lookup 3 subtable" s.sc
Substitution2: "'aalt' Access All Alternates in Latin lookup 0 subtable" s.sc
EndChar

StartChar: t
Encoding: 116 116 86
Width: 419
GlyphClass: 2
Flags: W
LayerCount: 2
Fore
SplineSet
409 483 m 1,0,-1
 165 483 l 1,1,-1
 165 133 l 2,2,3
 165 124 165 124 171.5 117.5 c 128,-1,4
 178 111 178 111 187 111 c 2,5,-1
 409 111 l 5,6,-1
 409 0 l 1,7,-1
 187 0 l 2,8,9
 132 0 132 0 93 39 c 128,-1,10
 54 78 54 78 54 133 c 2,11,-1
 54 461 l 1,12,-1
 54 788 l 1,13,-1
 165 788 l 1,14,-1
 165 594 l 1,15,-1
 409 594 l 1,16,-1
 409 483 l 1,0,-1
EndSplineSet
Validated: 1
Substitution2: "'smcp' Lowercase to Small Capitals in Latin lookup 3 subtable" t.sc
Substitution2: "'aalt' Access All Alternates in Latin lookup 0 subtable" t.sc
EndChar

StartChar: u
Encoding: 117 117 87
Width: 711
GlyphClass: 2
Flags: W
LayerCount: 2
Fore
SplineSet
548 594 m 1,0,-1
 658 594 l 1,1,-1
 658 133 l 2,2,3
 658 78 658 78 619.5 39 c 128,-1,4
 581 0 581 0 525 0 c 2,5,-1
 187 0 l 2,6,7
 132 0 132 0 93 39 c 128,-1,8
 54 78 54 78 54 133 c 2,9,-1
 54 594 l 1,10,-1
 165 594 l 1,11,-1
 165 133 l 2,12,13
 165 124 165 124 171.5 117.5 c 128,-1,14
 178 111 178 111 187 111 c 2,15,-1
 525 111 l 2,16,17
 534 111 534 111 541 117.5 c 128,-1,18
 548 124 548 124 548 133 c 2,19,-1
 548 594 l 1,0,-1
EndSplineSet
Validated: 1
Substitution2: "'smcp' Lowercase to Small Capitals in Latin lookup 3 subtable" u.sc
Substitution2: "'aalt' Access All Alternates in Latin lookup 0 subtable" u.sc
EndChar

StartChar: v
Encoding: 118 118 88
Width: 808
GlyphClass: 2
Flags: W
LayerCount: 2
Fore
SplineSet
660 594 m 1,0,-1
 787 594 l 1,1,-1
 460 0 l 1,2,-1
 349 0 l 1,3,-1
 22 594 l 1,4,-1
 150 594 l 1,5,-1
 404 125 l 1,6,-1
 660 594 l 1,0,-1
EndSplineSet
Validated: 1
Substitution2: "'smcp' Lowercase to Small Capitals in Latin lookup 3 subtable" v.sc
Substitution2: "'salt' Stylistic Alternatives in Latin lookup 2 subtable" v.alt
AlternateSubs2: "'aalt' Access All Alternates in Latin lookup 1 subtable" v.sc v.alt
EndChar

StartChar: w
Encoding: 119 119 89
Width: 1085
GlyphClass: 2
Flags: W
LayerCount: 2
Fore
SplineSet
943 594 m 1,0,-1
 1061 594 l 1,1,-1
 838 0 l 1,2,-1
 748 0 l 1,3,-1
 548 441 l 1,4,-1
 359 0 l 1,5,-1
 357 1 l 1,6,-1
 358 0 l 1,7,-1
 269 0 l 1,8,-1
 36 594 l 1,9,-1
 154 594 l 1,10,-1
 314 200 l 1,11,-1
 485 594 l 1,12,-1
 611 594 l 1,13,-1
 793 200 l 1,14,-1
 943 594 l 1,0,-1
EndSplineSet
Validated: 1
Substitution2: "'smcp' Lowercase to Small Capitals in Latin lookup 3 subtable" w.sc
Substitution2: "'salt' Stylistic Alternatives in Latin lookup 2 subtable" w.alt
AlternateSubs2: "'aalt' Access All Alternates in Latin lookup 1 subtable" w.sc w.alt
EndChar

StartChar: x
Encoding: 120 120 90
Width: 708
GlyphClass: 2
Flags: W
LayerCount: 2
Fore
SplineSet
530 594 m 1,0,-1
 662 594 l 1,1,-1
 662 579 l 1,2,-1
 426 302 l 1,3,-1
 662 15 l 1,4,-1
 662 0 l 1,5,-1
 530 0 l 1,6,-1
 354 216 l 1,7,-1
 178 0 l 1,8,-1
 47 0 l 1,9,-1
 47 15 l 1,10,-1
 282 302 l 1,11,-1
 47 579 l 1,12,-1
 47 594 l 1,13,-1
 178 594 l 1,14,-1
 354 388 l 1,15,-1
 530 594 l 1,0,-1
EndSplineSet
Validated: 1
Substitution2: "'smcp' Lowercase to Small Capitals in Latin lookup 3 subtable" x.sc
Substitution2: "'salt' Stylistic Alternatives in Latin lookup 2 subtable" x.alt
AlternateSubs2: "'aalt' Access All Alternates in Latin lookup 1 subtable" x.sc x.alt
EndChar

StartChar: y
Encoding: 121 121 91
Width: 701
GlyphClass: 2
Flags: W
LayerCount: 2
Fore
SplineSet
647 227 m 1,0,-1
 647 225 l 1,1,-1
 647 -102 l 2,2,3
 647 -157 647 -157 608 -196.5 c 128,-1,4
 569 -236 569 -236 514 -236 c 2,5,-1
 147 -236 l 1,6,-1
 147 -125 l 1,7,-1
 514 -125 l 2,8,9
 523 -125 523 -125 530 -118.5 c 128,-1,10
 537 -112 537 -112 537 -102 c 2,11,-1
 537 0 l 1,12,-1
 176 0 l 2,13,14
 121 0 121 0 82 39 c 128,-1,15
 43 78 43 78 43 133 c 2,16,-1
 43 592 l 1,17,-1
 154 592 l 1,18,-1
 154 133 l 2,19,20
 154 124 154 124 160.5 117.5 c 128,-1,21
 167 111 167 111 176 111 c 2,22,-1
 514 111 l 2,23,24
 523 111 523 111 530 117.5 c 128,-1,25
 537 124 537 124 537 133 c 2,26,-1
 537 592 l 1,27,-1
 647 592 l 1,28,-1
 647 227 l 1,0,-1
EndSplineSet
Validated: 1
Substitution2: "'smcp' Lowercase to Small Capitals in Latin lookup 3 subtable" y.sc
Substitution2: "'aalt' Access All Alternates in Latin lookup 0 subtable" y.sc
EndChar

StartChar: z
Encoding: 122 122 92
Width: 714
GlyphClass: 2
Flags: W
LayerCount: 2
Fore
SplineSet
55 483 m 1,0,-1
 55 594 l 1,1,-1
 659 594 l 1,2,-1
 659 463 l 1,3,-1
 203 111 l 1,4,-1
 659 111 l 1,5,-1
 659 0 l 1,6,-1
 55 0 l 1,7,-1
 55 131 l 1,8,-1
 512 483 l 1,9,-1
 55 483 l 1,0,-1
EndSplineSet
Validated: 1
Substitution2: "'smcp' Lowercase to Small Capitals in Latin lookup 3 subtable" z.sc
Substitution2: "'salt' Stylistic Alternatives in Latin lookup 2 subtable" z.alt
AlternateSubs2: "'aalt' Access All Alternates in Latin lookup 1 subtable" z.sc z.alt
EndChar

StartChar: braceleft
Encoding: 123 123 93
Width: 295
GlyphClass: 2
Flags: W
LayerCount: 2
Fore
SplineSet
179 315 m 1,0,-1
 179 133 l 2,1,2
 179 124 179 124 186 117.5 c 128,-1,3
 193 111 193 111 202 111 c 2,4,-1
 245 111 l 1,5,-1
 245 0 l 1,6,-1
 202 0 l 2,7,8
 147 0 147 0 108 39 c 128,-1,9
 69 78 69 78 69 133 c 2,10,-1
 69 293 l 1,11,-1
 24 319 l 1,12,-1
 24 430 l 1,13,-1
 69 456 l 1,14,-1
 69 604 l 2,15,16
 69 659 69 659 107.5 698 c 128,-1,17
 146 737 146 737 202 737 c 2,18,-1
 245 737 l 1,19,-1
 245 627 l 1,20,-1
 202 627 l 2,21,22
 193 627 193 627 186 620 c 128,-1,23
 179 613 179 613 179 604 c 2,24,-1
 179 431 l 1,25,-1
 108 375 l 1,26,-1
 179 315 l 1,0,-1
EndSplineSet
Validated: 1
EndChar

StartChar: bar
Encoding: 124 124 94
Width: 219
GlyphClass: 2
Flags: W
LayerCount: 2
Fore
SplineSet
55 -112 m 1,0,-1
 55 848 l 1,1,-1
 166 848 l 1,2,-1
 166 -112 l 1,3,-1
 55 -112 l 1,0,-1
EndSplineSet
Validated: 1
EndChar

StartChar: braceright
Encoding: 125 125 95
Width: 295
GlyphClass: 2
Flags: W
LayerCount: 2
Fore
SplineSet
118 133 m 2,0,-1
 118 315 l 1,1,-1
 189 375 l 1,2,-1
 118 431 l 1,3,-1
 118 604 l 2,4,5
 118 613 118 613 111 620 c 128,-1,6
 104 627 104 627 95 627 c 2,7,-1
 52 627 l 1,8,-1
 52 737 l 1,9,-1
 95 737 l 2,10,11
 150 737 150 737 189 698 c 128,-1,12
 228 659 228 659 228 604 c 2,13,-1
 228 456 l 1,14,-1
 273 430 l 1,15,-1
 273 319 l 1,16,-1
 228 293 l 1,17,-1
 228 133 l 2,18,19
 228 78 228 78 189.5 39 c 128,-1,20
 151 0 151 0 95 0 c 2,21,-1
 52 0 l 1,22,-1
 52 111 l 1,23,-1
 95 111 l 2,24,25
 104 111 104 111 111 117.5 c 128,-1,26
 118 124 118 124 118 133 c 2,0,-1
EndSplineSet
Validated: 1
EndChar

StartChar: asciitilde
Encoding: 126 126 96
Width: 413
GlyphClass: 2
Flags: W
LayerCount: 2
Fore
SplineSet
305 305 m 1,0,1
 345 305 345 305 385 332 c 1,2,-1
 385 256 l 1,3,4
 342 238 342 238 305 238 c 0,5,6
 269 238 269 238 204.5 272.5 c 128,-1,7
 140 307 140 307 100 307 c 0,8,9
 39 307 39 307 25 284 c 1,10,-1
 25 360 l 1,11,12
 59 374 59 374 100 375 c 0,13,14
 140 375 140 375 205 342 c 128,-1,15
 270 309 270 309 305 305 c 1,0,1
EndSplineSet
Validated: 1
EndChar

StartChar: exclamdown
Encoding: 161 161 97
Width: 215
GlyphClass: 2
Flags: W
LayerCount: 2
Fore
SplineSet
165 737 m 1,0,-1
 165 627 l 1,1,-1
 54 627 l 1,2,-1
 54 737 l 1,3,-1
 165 737 l 1,0,-1
165 0 m 1,4,-1
 54 0 l 1,5,-1
 54 532 l 1,6,-1
 165 532 l 1,7,-1
 165 0 l 1,4,-1
EndSplineSet
Validated: 1
EndChar

StartChar: cent
Encoding: 162 162 98
Width: 651
GlyphClass: 2
Flags: W
LayerCount: 2
Fore
SplineSet
636 494 m 1,0,-1
 391 494 l 1,1,-1
 391 111 l 1,2,-1
 636 111 l 1,3,-1
 636 0 l 1,4,-1
 391 0 l 1,5,-1
 391 -112 l 1,6,-1
 281 -112 l 1,7,-1
 281 0 l 1,8,-1
 167 0 l 2,9,10
 112 0 112 0 73 39 c 128,-1,11
 34 78 34 78 34 133 c 2,12,-1
 34 471 l 2,13,14
 34 526 34 526 73 565 c 128,-1,15
 112 604 112 604 167 604 c 2,16,-1
 281 604 l 1,17,-1
 281 735 l 1,18,-1
 391 735 l 1,19,-1
 391 604 l 1,20,-1
 636 604 l 1,21,-1
 636 494 l 1,0,-1
281 111 m 1,22,-1
 281 494 l 1,23,-1
 167 494 l 2,24,25
 158 494 158 494 151 487 c 128,-1,26
 144 480 144 480 144 471 c 2,27,-1
 144 133 l 2,28,29
 144 124 144 124 151 117.5 c 128,-1,30
 158 111 158 111 167 111 c 2,31,-1
 281 111 l 1,22,-1
EndSplineSet
Validated: 1
EndChar

StartChar: sterling
Encoding: 163 163 99
Width: 751
GlyphClass: 2
Flags: W
LayerCount: 2
Fore
SplineSet
703 573 m 1,0,-1
 593 573 l 1,1,-1
 593 604 l 2,2,3
 593 613 593 613 586.5 620 c 128,-1,4
 580 627 580 627 570 627 c 2,5,-1
 275 627 l 2,6,7
 266 627 266 627 259.5 620 c 128,-1,8
 253 613 253 613 253 604 c 2,9,-1
 253 424 l 1,10,-1
 595 424 l 1,11,-1
 595 313 l 1,12,-1
 253 313 l 1,13,-1
 253 111 l 1,14,-1
 703 111 l 1,15,-1
 703 0 l 1,16,-1
 40 0 l 1,17,-1
 40 111 l 1,18,-1
 142 111 l 1,19,-1
 142 313 l 1,20,-1
 40 313 l 1,21,-1
 40 424 l 1,22,-1
 142 424 l 1,23,-1
 142 604 l 2,24,25
 142 659 142 659 181 698 c 128,-1,26
 220 737 220 737 275 737 c 2,27,-1
 570 737 l 2,28,29
 625 737 625 737 664 698 c 128,-1,30
 703 659 703 659 703 604 c 2,31,-1
 703 573 l 1,0,-1
EndSplineSet
Validated: 1
EndChar

StartChar: dieresis
Encoding: 168 168 100
Width: 394
GlyphClass: 2
Flags: W
LayerCount: 2
Fore
SplineSet
340 957 m 1,0,-1
 340 847 l 1,1,-1
 229 847 l 1,2,-1
 229 957 l 1,3,-1
 340 957 l 1,0,-1
166 957 m 1,4,-1
 166 847 l 1,5,-1
 55 847 l 1,6,-1
 55 957 l 1,7,-1
 166 957 l 1,4,-1
EndSplineSet
Validated: 1
EndChar

StartChar: degree
Encoding: 176 176 101
Width: 449
GlyphClass: 2
Flags: W
LayerCount: 2
Fore
SplineSet
179 737 m 2,0,-1
 271 737 l 2,1,2
 326 737 326 737 365 698 c 128,-1,3
 404 659 404 659 404 604 c 2,4,-1
 404 522 l 2,5,6
 404 467 404 467 365.5 428 c 128,-1,7
 327 389 327 389 271 389 c 2,8,-1
 179 389 l 2,9,10
 124 389 124 389 85 428 c 128,-1,11
 46 467 46 467 46 522 c 2,12,-1
 46 604 l 2,13,14
 46 659 46 659 85 698 c 128,-1,15
 124 737 124 737 179 737 c 2,0,-1
159 479 m 2,16,-1
 292 479 l 2,17,18
 301 479 301 479 307.5 486 c 128,-1,19
 314 493 314 493 314 502 c 2,20,-1
 314 625 l 2,21,22
 314 634 314 634 307.5 640.5 c 128,-1,23
 301 647 301 647 292 647 c 2,24,-1
 159 647 l 2,25,26
 150 647 150 647 143 640.5 c 128,-1,27
 136 634 136 634 136 625 c 2,28,-1
 136 502 l 2,29,30
 136 493 136 493 143 486 c 128,-1,31
 150 479 150 479 159 479 c 2,16,-1
EndSplineSet
Validated: 1
EndChar

StartChar: acute
Encoding: 180 180 102
Width: 218
GlyphClass: 2
Flags: W
LayerCount: 2
Fore
SplineSet
34 847 m 1,0,-1
 75 1013 l 1,1,-1
 185 1013 l 1,2,-1
 144 847 l 1,3,-1
 34 847 l 1,0,-1
EndSplineSet
Validated: 1
EndChar

StartChar: paragraph
Encoding: 182 182 103
Width: 852
GlyphClass: 2
Flags: W
LayerCount: 2
Fore
SplineSet
57 603 m 2,0,1
 57 657 57 657 96 696.5 c 128,-1,2
 135 736 135 736 190 736 c 2,3,-1
 795 736 l 1,4,-1
 795 0 l 1,5,-1
 684 0 l 1,6,-1
 684 263 l 1,7,-1
 581 263 l 1,8,-1
 581 0 l 1,9,-1
 470 0 l 1,10,-1
 470 263 l 1,11,-1
 190 263 l 2,12,13
 135 263 135 263 96 302.5 c 128,-1,14
 57 342 57 342 57 396 c 2,15,-1
 57 603 l 2,0,1
581 626 m 1,16,-1
 581 374 l 1,17,-1
 684 374 l 1,18,-1
 684 626 l 1,19,-1
 581 626 l 1,16,-1
168 603 m 2,20,-1
 168 396 l 2,21,22
 168 387 168 387 174.5 380.5 c 128,-1,23
 181 374 181 374 190 374 c 2,24,-1
 470 374 l 1,25,-1
 470 626 l 1,26,-1
 190 626 l 2,27,28
 181 626 181 626 174.5 619 c 128,-1,29
 168 612 168 612 168 603 c 2,20,-1
EndSplineSet
Validated: 1
EndChar

StartChar: cedilla
Encoding: 184 184 104
Width: 218
GlyphClass: 2
Flags: W
LayerCount: 2
Fore
SplineSet
34 -166 m 1,0,-1
 75 0 l 1,1,-1
 185 0 l 1,2,-1
 144 -166 l 1,3,-1
 34 -166 l 1,0,-1
EndSplineSet
Validated: 1
EndChar

StartChar: questiondown
Encoding: 191 191 105
Width: 691
GlyphClass: 2
Flags: W
LayerCount: 2
Fore
SplineSet
662 0 m 1,0,-1
 153 0 l 2,1,2
 98 0 98 0 58.5 39 c 128,-1,3
 19 78 19 78 19 133 c 2,4,-1
 19 322 l 2,5,6
 19 377 19 377 58 416 c 128,-1,7
 97 455 97 455 153 455 c 2,8,-1
 418 455 l 2,9,10
 427 455 427 455 433.5 461.5 c 128,-1,11
 440 468 440 468 440 477 c 2,12,-1
 440 540 l 1,13,-1
 551 540 l 1,14,-1
 551 477 l 2,15,16
 551 422 551 422 512 383 c 128,-1,17
 473 344 473 344 418 344 c 2,18,-1
 153 344 l 2,19,20
 144 344 144 344 137 337.5 c 128,-1,21
 130 331 130 331 130 322 c 2,22,-1
 130 133 l 2,23,24
 130 124 130 124 136.5 117.5 c 128,-1,25
 143 111 143 111 153 111 c 2,26,-1
 662 111 l 1,27,-1
 662 0 l 1,0,-1
551 737 m 1,28,-1
 551 627 l 1,29,-1
 440 627 l 1,30,-1
 440 737 l 1,31,-1
 551 737 l 1,28,-1
EndSplineSet
Validated: 1
EndChar

StartChar: Agrave
Encoding: 192 192 106
Width: 856
GlyphClass: 2
Flags: W
LayerCount: 2
Fore
SplineSet
193 737 m 2,0,-1
 664 737 l 2,1,2
 719 737 719 737 758 698 c 128,-1,3
 797 659 797 659 797 604 c 2,4,-1
 797 0 l 1,5,-1
 686 0 l 1,6,-1
 686 258 l 1,7,-1
 170 258 l 1,8,-1
 170 0 l 1,9,-1
 59 0 l 1,10,-1
 59 604 l 2,11,12
 59 659 59 659 98.5 698 c 128,-1,13
 138 737 138 737 193 737 c 2,0,-1
170 369 m 1,14,-1
 686 369 l 1,15,-1
 686 604 l 2,16,17
 686 613 686 613 679.5 620 c 128,-1,18
 673 627 673 627 664 627 c 2,19,-1
 193 627 l 2,20,21
 184 627 184 627 177 620 c 128,-1,22
 170 613 170 613 170 604 c 2,23,-1
 170 369 l 1,14,-1
463 1006 m 1,24,-1
 504 840 l 1,25,-1
 393 840 l 1,26,-1
 352 1006 l 1,27,-1
 463 1006 l 1,24,-1
EndSplineSet
Validated: 1
EndChar

StartChar: Aacute
Encoding: 193 193 107
Width: 856
GlyphClass: 2
Flags: W
LayerCount: 2
Fore
SplineSet
193 737 m 2,0,-1
 664 737 l 2,1,2
 719 737 719 737 758 698 c 128,-1,3
 797 659 797 659 797 604 c 2,4,-1
 797 0 l 1,5,-1
 686 0 l 1,6,-1
 686 258 l 1,7,-1
 170 258 l 1,8,-1
 170 0 l 1,9,-1
 59 0 l 1,10,-1
 59 604 l 2,11,12
 59 659 59 659 98.5 698 c 128,-1,13
 138 737 138 737 193 737 c 2,0,-1
170 369 m 1,14,-1
 686 369 l 1,15,-1
 686 604 l 2,16,17
 686 613 686 613 679.5 620 c 128,-1,18
 673 627 673 627 664 627 c 2,19,-1
 193 627 l 2,20,21
 184 627 184 627 177 620 c 128,-1,22
 170 613 170 613 170 604 c 2,23,-1
 170 369 l 1,14,-1
352 839 m 1,24,-1
 393 1005 l 1,25,-1
 504 1005 l 1,26,-1
 463 839 l 1,27,-1
 352 839 l 1,24,-1
EndSplineSet
Validated: 1
EndChar

StartChar: Acircumflex
Encoding: 194 194 108
Width: 856
GlyphClass: 2
Flags: W
LayerCount: 2
Fore
SplineSet
193 737 m 2,0,-1
 664 737 l 2,1,2
 719 737 719 737 758 698 c 128,-1,3
 797 659 797 659 797 604 c 2,4,-1
 797 0 l 1,5,-1
 686 0 l 1,6,-1
 686 258 l 1,7,-1
 170 258 l 1,8,-1
 170 0 l 1,9,-1
 59 0 l 1,10,-1
 59 604 l 2,11,12
 59 659 59 659 98.5 698 c 128,-1,13
 138 737 138 737 193 737 c 2,0,-1
170 369 m 1,14,-1
 686 369 l 1,15,-1
 686 604 l 2,16,17
 686 613 686 613 679.5 620 c 128,-1,18
 673 627 673 627 664 627 c 2,19,-1
 193 627 l 2,20,21
 184 627 184 627 177 620 c 128,-1,22
 170 613 170 613 170 604 c 2,23,-1
 170 369 l 1,14,-1
379 839 m 1,24,-1
 303 839 l 1,25,-1
 390 983 l 1,26,-1
 466 983 l 1,27,-1
 553 839 l 1,28,-1
 476 839 l 1,29,-1
 428 916 l 1,30,-1
 379 839 l 1,24,-1
EndSplineSet
Validated: 1
EndChar

StartChar: Atilde
Encoding: 195 195 109
Width: 856
GlyphClass: 2
Flags: W
LayerCount: 2
Fore
SplineSet
193 737 m 2,0,-1
 664 737 l 2,1,2
 719 737 719 737 758 698 c 128,-1,3
 797 659 797 659 797 604 c 2,4,-1
 797 0 l 1,5,-1
 686 0 l 1,6,-1
 686 258 l 1,7,-1
 170 258 l 1,8,-1
 170 0 l 1,9,-1
 59 0 l 1,10,-1
 59 604 l 2,11,12
 59 659 59 659 98.5 698 c 128,-1,13
 138 737 138 737 193 737 c 2,0,-1
170 369 m 1,14,-1
 686 369 l 1,15,-1
 686 604 l 2,16,17
 686 613 686 613 679.5 620 c 128,-1,18
 673 627 673 627 664 627 c 2,19,-1
 193 627 l 2,20,21
 184 627 184 627 177 620 c 128,-1,22
 170 613 170 613 170 604 c 2,23,-1
 170 369 l 1,14,-1
528 911 m 1,24,25
 568 911 568 911 608 938 c 1,26,-1
 608 862 l 1,27,28
 565 844 565 844 528 844 c 0,29,30
 492 844 492 844 428 878.5 c 128,-1,31
 364 913 364 913 324 913 c 0,32,33
 263 913 263 913 248 890 c 1,34,-1
 248 967 l 1,35,36
 282 981 282 981 324 981 c 0,37,38
 364 981 364 981 428.5 948 c 128,-1,39
 493 915 493 915 528 911 c 1,24,25
EndSplineSet
Validated: 1
EndChar

StartChar: Adieresis
Encoding: 196 196 110
Width: 856
GlyphClass: 2
Flags: W
LayerCount: 2
Fore
SplineSet
193 737 m 2,0,-1
 664 737 l 2,1,2
 719 737 719 737 758 698 c 128,-1,3
 797 659 797 659 797 604 c 2,4,-1
 797 0 l 1,5,-1
 686 0 l 1,6,-1
 686 258 l 1,7,-1
 170 258 l 1,8,-1
 170 0 l 1,9,-1
 59 0 l 1,10,-1
 59 604 l 2,11,12
 59 659 59 659 98.5 698 c 128,-1,13
 138 737 138 737 193 737 c 2,0,-1
170 369 m 1,14,-1
 686 369 l 1,15,-1
 686 604 l 2,16,17
 686 613 686 613 679.5 620 c 128,-1,18
 673 627 673 627 664 627 c 2,19,-1
 193 627 l 2,20,21
 184 627 184 627 177 620 c 128,-1,22
 170 613 170 613 170 604 c 2,23,-1
 170 369 l 1,14,-1
570 940 m 1,24,-1
 570 829 l 1,25,-1
 460 829 l 1,26,-1
 460 940 l 1,27,-1
 570 940 l 1,24,-1
396 940 m 1,28,-1
 396 829 l 1,29,-1
 286 829 l 1,30,-1
 286 940 l 1,31,-1
 396 940 l 1,28,-1
EndSplineSet
Validated: 1
EndChar

StartChar: Aring
Encoding: 197 197 111
Width: 856
GlyphClass: 2
Flags: W
LayerCount: 2
Fore
SplineSet
193 737 m 2,0,-1
 664 737 l 2,1,2
 719 737 719 737 758 698 c 128,-1,3
 797 659 797 659 797 604 c 2,4,-1
 797 0 l 1,5,-1
 686 0 l 1,6,-1
 686 258 l 1,7,-1
 170 258 l 1,8,-1
 170 0 l 1,9,-1
 59 0 l 1,10,-1
 59 604 l 2,11,12
 59 659 59 659 98.5 698 c 128,-1,13
 138 737 138 737 193 737 c 2,0,-1
170 369 m 1,14,-1
 686 369 l 1,15,-1
 686 604 l 2,16,17
 686 613 686 613 679.5 620 c 128,-1,18
 673 627 673 627 664 627 c 2,19,-1
 193 627 l 2,20,21
 184 627 184 627 177 620 c 128,-1,22
 170 613 170 613 170 604 c 2,23,-1
 170 369 l 1,14,-1
399 1005 m 2,24,-1
 457 1005 l 2,25,26
 480 1005 480 1005 496 989 c 128,-1,27
 512 973 512 973 512 950 c 2,28,-1
 512 895 l 2,29,30
 512 872 512 872 495.5 856.5 c 128,-1,31
 479 841 479 841 457 841 c 2,32,-1
 399 841 l 2,33,34
 376 841 376 841 360 856.5 c 128,-1,35
 344 872 344 872 344 895 c 2,36,-1
 344 950 l 2,37,38
 344 973 344 973 360 989 c 128,-1,39
 376 1005 376 1005 399 1005 c 2,24,-1
394 882 m 2,40,-1
 462 882 l 2,41,42
 471 882 471 882 471 892 c 2,43,-1
 471 953 l 2,44,45
 471 963 471 963 462 964 c 2,46,-1
 394 964 l 2,47,48
 385 964 385 964 385 953 c 2,49,-1
 385 892 l 2,50,51
 385 882 385 882 394 882 c 2,40,-1
EndSplineSet
Validated: 1
EndChar

StartChar: AE
Encoding: 198 198 112
Width: 1408
GlyphClass: 2
Flags: W
LayerCount: 2
Fore
SplineSet
793 627 m 1,0,-1
 793 424 l 1,1,-1
 1247 424 l 1,2,-1
 1247 313 l 1,3,-1
 793 313 l 1,4,-1
 793 111 l 1,5,-1
 1358 111 l 1,6,-1
 1358 0 l 1,7,-1
 682 0 l 1,8,-1
 682 258 l 1,9,-1
 166 258 l 1,10,-1
 166 0 l 1,11,-1
 55 0 l 1,12,-1
 55 604 l 2,13,14
 55 659 55 659 94 698 c 128,-1,15
 133 737 133 737 188 737 c 2,16,-1
 1358 737 l 1,17,-1
 1358 627 l 1,18,-1
 793 627 l 1,0,-1
682 369 m 1,19,-1
 682 604 l 2,20,21
 682 613 682 613 675.5 620 c 128,-1,22
 669 627 669 627 659 627 c 2,23,-1
 188 627 l 2,24,25
 179 627 179 627 172.5 620 c 128,-1,26
 166 613 166 613 166 604 c 2,27,-1
 166 369 l 1,28,-1
 682 369 l 1,19,-1
EndSplineSet
Validated: 1
EndChar

StartChar: Ccedilla
Encoding: 199 199 113
Width: 841
GlyphClass: 2
Flags: W
LayerCount: 2
Fore
SplineSet
793 627 m 1,0,-1
 190 627 l 2,1,2
 181 627 181 627 174.5 620 c 128,-1,3
 168 613 168 613 168 604 c 2,4,-1
 168 133 l 2,5,6
 168 124 168 124 174.5 117.5 c 128,-1,7
 181 111 181 111 190 111 c 2,8,-1
 793 111 l 1,9,-1
 793 0 l 1,10,-1
 497 0 l 1,11,-1
 456 -166 l 1,12,-1
 345 -166 l 1,13,-1
 386 0 l 1,14,-1
 190 0 l 2,15,16
 135 0 135 0 96 39 c 128,-1,17
 57 78 57 78 57 133 c 2,18,-1
 57 604 l 2,19,20
 57 659 57 659 96 698 c 128,-1,21
 135 737 135 737 190 737 c 2,22,-1
 793 737 l 1,23,-1
 793 627 l 1,0,-1
EndSplineSet
Validated: 1
EndChar

StartChar: Egrave
Encoding: 200 200 114
Width: 784
GlyphClass: 2
Flags: W
LayerCount: 2
Fore
SplineSet
735 737 m 1,0,-1
 735 627 l 1,1,-1
 170 627 l 1,2,-1
 170 424 l 1,3,-1
 625 424 l 1,4,-1
 625 313 l 1,5,-1
 170 313 l 1,6,-1
 170 111 l 1,7,-1
 735 111 l 1,8,-1
 735 0 l 1,9,-1
 59 0 l 1,10,-1
 59 737 l 1,11,-1
 735 737 l 1,0,-1
427 1006 m 1,12,-1
 468 840 l 1,13,-1
 357 840 l 1,14,-1
 316 1006 l 1,15,-1
 427 1006 l 1,12,-1
EndSplineSet
Validated: 1
EndChar

StartChar: Eacute
Encoding: 201 201 115
Width: 784
GlyphClass: 2
Flags: W
LayerCount: 2
Fore
SplineSet
735 737 m 1,0,-1
 735 627 l 1,1,-1
 170 627 l 1,2,-1
 170 424 l 1,3,-1
 625 424 l 1,4,-1
 625 313 l 1,5,-1
 170 313 l 1,6,-1
 170 111 l 1,7,-1
 735 111 l 1,8,-1
 735 0 l 1,9,-1
 59 0 l 1,10,-1
 59 737 l 1,11,-1
 735 737 l 1,0,-1
316 840 m 1,12,-1
 357 1006 l 1,13,-1
 468 1006 l 1,14,-1
 427 840 l 1,15,-1
 316 840 l 1,12,-1
EndSplineSet
Validated: 1
EndChar

StartChar: Ecircumflex
Encoding: 202 202 116
Width: 784
GlyphClass: 2
Flags: W
LayerCount: 2
Fore
SplineSet
735 737 m 1,0,-1
 735 627 l 1,1,-1
 170 627 l 1,2,-1
 170 424 l 1,3,-1
 625 424 l 1,4,-1
 625 313 l 1,5,-1
 170 313 l 1,6,-1
 170 111 l 1,7,-1
 735 111 l 1,8,-1
 735 0 l 1,9,-1
 59 0 l 1,10,-1
 59 737 l 1,11,-1
 735 737 l 1,0,-1
343 839 m 1,12,-1
 267 839 l 1,13,-1
 354 983 l 1,14,-1
 430 983 l 1,15,-1
 517 839 l 1,16,-1
 440 839 l 1,17,-1
 392 916 l 1,18,-1
 343 839 l 1,12,-1
EndSplineSet
Validated: 1
EndChar

StartChar: Edieresis
Encoding: 203 203 117
Width: 784
GlyphClass: 2
Flags: W
LayerCount: 2
Fore
SplineSet
735 737 m 1,0,-1
 735 627 l 1,1,-1
 170 627 l 1,2,-1
 170 424 l 1,3,-1
 625 424 l 1,4,-1
 625 313 l 1,5,-1
 170 313 l 1,6,-1
 170 111 l 1,7,-1
 735 111 l 1,8,-1
 735 0 l 1,9,-1
 59 0 l 1,10,-1
 59 737 l 1,11,-1
 735 737 l 1,0,-1
535 950 m 1,12,-1
 535 840 l 1,13,-1
 424 840 l 1,14,-1
 424 950 l 1,15,-1
 535 950 l 1,12,-1
360 950 m 1,16,-1
 360 840 l 1,17,-1
 250 840 l 1,18,-1
 250 950 l 1,19,-1
 360 950 l 1,16,-1
EndSplineSet
Validated: 1
EndChar

StartChar: Igrave
Encoding: 204 204 118
Width: 225
GlyphClass: 2
Flags: W
LayerCount: 2
Fore
SplineSet
58 0 m 1,0,-1
 58 737 l 1,1,-1
 169 737 l 1,2,-1
 169 0 l 1,3,-1
 58 0 l 1,0,-1
147 1006 m 1,4,-1
 188 840 l 1,5,-1
 78 840 l 1,6,-1
 37 1006 l 1,7,-1
 147 1006 l 1,4,-1
EndSplineSet
Validated: 1
EndChar

StartChar: Iacute
Encoding: 205 205 119
Width: 225
GlyphClass: 2
Flags: W
LayerCount: 2
Fore
SplineSet
58 0 m 1,0,-1
 58 737 l 1,1,-1
 169 737 l 1,2,-1
 169 0 l 1,3,-1
 58 0 l 1,0,-1
37 840 m 1,4,-1
 78 1006 l 1,5,-1
 188 1006 l 1,6,-1
 147 840 l 1,7,-1
 37 840 l 1,4,-1
EndSplineSet
Validated: 1
EndChar

StartChar: Icircumflex
Encoding: 206 206 120
Width: 225
GlyphClass: 2
Flags: W
LayerCount: 2
Fore
SplineSet
58 0 m 1,0,-1
 58 737 l 1,1,-1
 169 737 l 1,2,-1
 169 0 l 1,3,-1
 58 0 l 1,0,-1
63 839 m 1,4,-1
 -12 839 l 1,5,-1
 75 983 l 1,6,-1
 151 983 l 1,7,-1
 238 839 l 1,8,-1
 161 839 l 1,9,-1
 113 916 l 1,10,-1
 63 839 l 1,4,-1
EndSplineSet
Validated: 1
EndChar

StartChar: Idieresis
Encoding: 207 207 121
Width: 225
GlyphClass: 2
Flags: W
LayerCount: 2
Fore
SplineSet
58 0 m 1,0,-1
 58 737 l 1,1,-1
 169 737 l 1,2,-1
 169 0 l 1,3,-1
 58 0 l 1,0,-1
255 950 m 1,4,-1
 255 840 l 1,5,-1
 144 840 l 1,6,-1
 144 950 l 1,7,-1
 255 950 l 1,4,-1
81 950 m 1,8,-1
 81 840 l 1,9,-1
 -30 840 l 1,10,-1
 -30 950 l 1,11,-1
 81 950 l 1,8,-1
EndSplineSet
Validated: 1
EndChar

StartChar: Ntilde
Encoding: 209 209 122
Width: 851
GlyphClass: 2
Flags: W
LayerCount: 2
Fore
SplineSet
684 147 m 1,0,-1
 684 737 l 1,1,-1
 795 737 l 1,2,-1
 795 0 l 1,3,-1
 664 0 l 1,4,-1
 168 590 l 1,5,-1
 168 0 l 1,6,-1
 57 0 l 1,7,-1
 57 737 l 1,8,-1
 188 737 l 1,9,-1
 684 147 l 1,0,-1
526 911 m 1,10,11
 566 911 566 911 606 938 c 1,12,-1
 606 862 l 1,13,14
 563 844 563 844 526 844 c 0,15,16
 490 844 490 844 425.5 878.5 c 128,-1,17
 361 913 361 913 322 913 c 0,18,19
 261 913 261 913 246 890 c 1,20,-1
 246 967 l 1,21,22
 280 981 280 981 322 981 c 0,23,24
 362 981 362 981 426.5 948 c 128,-1,25
 491 915 491 915 526 911 c 1,10,11
EndSplineSet
Validated: 1
EndChar

StartChar: Ograve
Encoding: 210 210 123
Width: 847
GlyphClass: 2
Flags: W
LayerCount: 2
Fore
SplineSet
188 737 m 2,0,-1
 659 737 l 2,1,2
 714 737 714 737 753.5 698 c 128,-1,3
 793 659 793 659 793 604 c 2,4,-1
 793 133 l 2,5,6
 793 78 793 78 754 39 c 128,-1,7
 715 0 715 0 659 0 c 2,8,-1
 188 0 l 2,9,10
 133 0 133 0 94 39 c 128,-1,11
 55 78 55 78 55 133 c 2,12,-1
 55 604 l 2,13,14
 55 659 55 659 94 698 c 128,-1,15
 133 737 133 737 188 737 c 2,0,-1
188 111 m 2,16,-1
 659 111 l 2,17,18
 668 111 668 111 675 117.5 c 128,-1,19
 682 124 682 124 682 133 c 2,20,-1
 682 604 l 2,21,22
 682 613 682 613 675.5 620 c 128,-1,23
 669 627 669 627 659 627 c 2,24,-1
 188 627 l 2,25,26
 179 627 179 627 172.5 620 c 128,-1,27
 166 613 166 613 166 604 c 2,28,-1
 166 133 l 2,29,30
 166 124 166 124 172.5 117.5 c 128,-1,31
 179 111 179 111 188 111 c 2,16,-1
459 1006 m 1,32,-1
 500 840 l 1,33,-1
 389 840 l 1,34,-1
 348 1006 l 1,35,-1
 459 1006 l 1,32,-1
EndSplineSet
Validated: 1
EndChar

StartChar: Oacute
Encoding: 211 211 124
Width: 847
GlyphClass: 2
Flags: W
LayerCount: 2
Fore
SplineSet
188 737 m 2,0,-1
 659 737 l 2,1,2
 714 737 714 737 753.5 698 c 128,-1,3
 793 659 793 659 793 604 c 2,4,-1
 793 133 l 2,5,6
 793 78 793 78 754 39 c 128,-1,7
 715 0 715 0 659 0 c 2,8,-1
 188 0 l 2,9,10
 133 0 133 0 94 39 c 128,-1,11
 55 78 55 78 55 133 c 2,12,-1
 55 604 l 2,13,14
 55 659 55 659 94 698 c 128,-1,15
 133 737 133 737 188 737 c 2,0,-1
188 111 m 2,16,-1
 659 111 l 2,17,18
 668 111 668 111 675 117.5 c 128,-1,19
 682 124 682 124 682 133 c 2,20,-1
 682 604 l 2,21,22
 682 613 682 613 675.5 620 c 128,-1,23
 669 627 669 627 659 627 c 2,24,-1
 188 627 l 2,25,26
 179 627 179 627 172.5 620 c 128,-1,27
 166 613 166 613 166 604 c 2,28,-1
 166 133 l 2,29,30
 166 124 166 124 172.5 117.5 c 128,-1,31
 179 111 179 111 188 111 c 2,16,-1
348 840 m 1,32,-1
 389 1006 l 1,33,-1
 500 1006 l 1,34,-1
 459 840 l 1,35,-1
 348 840 l 1,32,-1
EndSplineSet
Validated: 1
EndChar

StartChar: Ocircumflex
Encoding: 212 212 125
Width: 847
GlyphClass: 2
Flags: W
LayerCount: 2
Fore
SplineSet
188 737 m 2,0,-1
 659 737 l 2,1,2
 714 737 714 737 753.5 698 c 128,-1,3
 793 659 793 659 793 604 c 2,4,-1
 793 133 l 2,5,6
 793 78 793 78 754 39 c 128,-1,7
 715 0 715 0 659 0 c 2,8,-1
 188 0 l 2,9,10
 133 0 133 0 94 39 c 128,-1,11
 55 78 55 78 55 133 c 2,12,-1
 55 604 l 2,13,14
 55 659 55 659 94 698 c 128,-1,15
 133 737 133 737 188 737 c 2,0,-1
188 111 m 2,16,-1
 659 111 l 2,17,18
 668 111 668 111 675 117.5 c 128,-1,19
 682 124 682 124 682 133 c 2,20,-1
 682 604 l 2,21,22
 682 613 682 613 675.5 620 c 128,-1,23
 669 627 669 627 659 627 c 2,24,-1
 188 627 l 2,25,26
 179 627 179 627 172.5 620 c 128,-1,27
 166 613 166 613 166 604 c 2,28,-1
 166 133 l 2,29,30
 166 124 166 124 172.5 117.5 c 128,-1,31
 179 111 179 111 188 111 c 2,16,-1
375 839 m 1,32,-1
 299 839 l 1,33,-1
 386 983 l 1,34,-1
 462 983 l 1,35,-1
 549 839 l 1,36,-1
 472 839 l 1,37,-1
 424 916 l 1,38,-1
 375 839 l 1,32,-1
EndSplineSet
Validated: 1
EndChar

StartChar: Otilde
Encoding: 213 213 126
Width: 847
GlyphClass: 2
Flags: W
LayerCount: 2
Fore
SplineSet
188 737 m 2,0,-1
 659 737 l 2,1,2
 714 737 714 737 753.5 698 c 128,-1,3
 793 659 793 659 793 604 c 2,4,-1
 793 133 l 2,5,6
 793 78 793 78 754 39 c 128,-1,7
 715 0 715 0 659 0 c 2,8,-1
 188 0 l 2,9,10
 133 0 133 0 94 39 c 128,-1,11
 55 78 55 78 55 133 c 2,12,-1
 55 604 l 2,13,14
 55 659 55 659 94 698 c 128,-1,15
 133 737 133 737 188 737 c 2,0,-1
188 111 m 2,16,-1
 659 111 l 2,17,18
 668 111 668 111 675 117.5 c 128,-1,19
 682 124 682 124 682 133 c 2,20,-1
 682 604 l 2,21,22
 682 613 682 613 675.5 620 c 128,-1,23
 669 627 669 627 659 627 c 2,24,-1
 188 627 l 2,25,26
 179 627 179 627 172.5 620 c 128,-1,27
 166 613 166 613 166 604 c 2,28,-1
 166 133 l 2,29,30
 166 124 166 124 172.5 117.5 c 128,-1,31
 179 111 179 111 188 111 c 2,16,-1
524 911 m 1,32,33
 564 911 564 911 604 938 c 1,34,-1
 604 862 l 1,35,36
 561 844 561 844 524 844 c 0,37,38
 488 844 488 844 423.5 878.5 c 128,-1,39
 359 913 359 913 319 913 c 0,40,41
 258 913 258 913 244 890 c 1,42,-1
 244 967 l 1,43,44
 278 981 278 981 319 981 c 0,45,46
 359 981 359 981 424 948 c 128,-1,47
 489 915 489 915 524 911 c 1,32,33
EndSplineSet
Validated: 1
EndChar

StartChar: Odieresis
Encoding: 214 214 127
Width: 847
GlyphClass: 2
Flags: W
LayerCount: 2
Fore
SplineSet
188 737 m 2,0,-1
 659 737 l 2,1,2
 714 737 714 737 753.5 698 c 128,-1,3
 793 659 793 659 793 604 c 2,4,-1
 793 133 l 2,5,6
 793 78 793 78 754 39 c 128,-1,7
 715 0 715 0 659 0 c 2,8,-1
 188 0 l 2,9,10
 133 0 133 0 94 39 c 128,-1,11
 55 78 55 78 55 133 c 2,12,-1
 55 604 l 2,13,14
 55 659 55 659 94 698 c 128,-1,15
 133 737 133 737 188 737 c 2,0,-1
188 111 m 2,16,-1
 659 111 l 2,17,18
 668 111 668 111 675 117.5 c 128,-1,19
 682 124 682 124 682 133 c 2,20,-1
 682 604 l 2,21,22
 682 613 682 613 675.5 620 c 128,-1,23
 669 627 669 627 659 627 c 2,24,-1
 188 627 l 2,25,26
 179 627 179 627 172.5 620 c 128,-1,27
 166 613 166 613 166 604 c 2,28,-1
 166 133 l 2,29,30
 166 124 166 124 172.5 117.5 c 128,-1,31
 179 111 179 111 188 111 c 2,16,-1
566 950 m 1,32,-1
 566 840 l 1,33,-1
 456 840 l 1,34,-1
 456 950 l 1,35,-1
 566 950 l 1,32,-1
392 950 m 1,36,-1
 392 840 l 1,37,-1
 282 840 l 1,38,-1
 282 950 l 1,39,-1
 392 950 l 1,36,-1
EndSplineSet
Validated: 1
EndChar

StartChar: multiply
Encoding: 215 215 128
Width: 559
GlyphClass: 2
Flags: W
LayerCount: 2
Fore
SplineSet
505 522 m 1,0,-1
 505 507 l 1,1,-1
 351 307 l 1,2,-1
 505 108 l 1,3,-1
 505 92 l 1,4,-1
 374 92 l 1,5,-1
 280 221 l 1,6,-1
 185 92 l 1,7,-1
 54 92 l 1,8,-1
 54 108 l 1,9,-1
 207 307 l 1,10,-1
 54 507 l 1,11,-1
 54 522 l 1,12,-1
 185 522 l 1,13,-1
 280 393 l 1,14,-1
 374 522 l 1,15,-1
 505 522 l 1,0,-1
EndSplineSet
Validated: 1
EndChar

StartChar: Ugrave
Encoding: 217 217 129
Width: 847
GlyphClass: 2
Flags: W
LayerCount: 2
Fore
SplineSet
682 133 m 2,0,-1
 682 737 l 1,1,-1
 793 737 l 1,2,-1
 793 133 l 2,3,4
 793 78 793 78 754 39 c 128,-1,5
 715 0 715 0 659 0 c 2,6,-1
 188 0 l 2,7,8
 133 0 133 0 94 39 c 128,-1,9
 55 78 55 78 55 133 c 2,10,-1
 55 737 l 1,11,-1
 166 737 l 1,12,-1
 166 133 l 2,13,14
 166 124 166 124 172.5 117.5 c 128,-1,15
 179 111 179 111 188 111 c 2,16,-1
 659 111 l 2,17,18
 668 111 668 111 675 117.5 c 128,-1,19
 682 124 682 124 682 133 c 2,0,-1
459 1006 m 1,20,-1
 500 840 l 1,21,-1
 389 840 l 1,22,-1
 348 1006 l 1,23,-1
 459 1006 l 1,20,-1
EndSplineSet
Validated: 1
EndChar

StartChar: Uacute
Encoding: 218 218 130
Width: 847
GlyphClass: 2
Flags: W
LayerCount: 2
Fore
SplineSet
682 133 m 2,0,-1
 682 737 l 1,1,-1
 793 737 l 1,2,-1
 793 133 l 2,3,4
 793 78 793 78 754 39 c 128,-1,5
 715 0 715 0 659 0 c 2,6,-1
 188 0 l 2,7,8
 133 0 133 0 94 39 c 128,-1,9
 55 78 55 78 55 133 c 2,10,-1
 55 737 l 1,11,-1
 166 737 l 1,12,-1
 166 133 l 2,13,14
 166 124 166 124 172.5 117.5 c 128,-1,15
 179 111 179 111 188 111 c 2,16,-1
 659 111 l 2,17,18
 668 111 668 111 675 117.5 c 128,-1,19
 682 124 682 124 682 133 c 2,0,-1
348 840 m 1,20,-1
 389 1006 l 1,21,-1
 500 1006 l 1,22,-1
 459 840 l 1,23,-1
 348 840 l 1,20,-1
EndSplineSet
Validated: 1
EndChar

StartChar: Ucircumflex
Encoding: 219 219 131
Width: 847
GlyphClass: 2
Flags: W
LayerCount: 2
Fore
SplineSet
682 133 m 2,0,-1
 682 737 l 1,1,-1
 793 737 l 1,2,-1
 793 133 l 2,3,4
 793 78 793 78 754 39 c 128,-1,5
 715 0 715 0 659 0 c 2,6,-1
 188 0 l 2,7,8
 133 0 133 0 94 39 c 128,-1,9
 55 78 55 78 55 133 c 2,10,-1
 55 737 l 1,11,-1
 166 737 l 1,12,-1
 166 133 l 2,13,14
 166 124 166 124 172.5 117.5 c 128,-1,15
 179 111 179 111 188 111 c 2,16,-1
 659 111 l 2,17,18
 668 111 668 111 675 117.5 c 128,-1,19
 682 124 682 124 682 133 c 2,0,-1
375 839 m 1,20,-1
 299 839 l 1,21,-1
 386 983 l 1,22,-1
 462 983 l 1,23,-1
 549 839 l 1,24,-1
 472 839 l 1,25,-1
 424 916 l 1,26,-1
 375 839 l 1,20,-1
EndSplineSet
Validated: 1
EndChar

StartChar: Udieresis
Encoding: 220 220 132
Width: 847
GlyphClass: 2
Flags: W
LayerCount: 2
Fore
SplineSet
682 133 m 2,0,-1
 682 737 l 1,1,-1
 793 737 l 1,2,-1
 793 133 l 2,3,4
 793 78 793 78 754 39 c 128,-1,5
 715 0 715 0 659 0 c 2,6,-1
 188 0 l 2,7,8
 133 0 133 0 94 39 c 128,-1,9
 55 78 55 78 55 133 c 2,10,-1
 55 737 l 1,11,-1
 166 737 l 1,12,-1
 166 133 l 2,13,14
 166 124 166 124 172.5 117.5 c 128,-1,15
 179 111 179 111 188 111 c 2,16,-1
 659 111 l 2,17,18
 668 111 668 111 675 117.5 c 128,-1,19
 682 124 682 124 682 133 c 2,0,-1
566 950 m 1,20,-1
 566 840 l 1,21,-1
 456 840 l 1,22,-1
 456 950 l 1,23,-1
 566 950 l 1,20,-1
392 950 m 1,24,-1
 392 840 l 1,25,-1
 282 840 l 1,26,-1
 282 950 l 1,27,-1
 392 950 l 1,24,-1
EndSplineSet
Validated: 1
EndChar

StartChar: Yacute
Encoding: 221 221 133
Width: 825
GlyphClass: 2
Flags: W
LayerCount: 2
Fore
SplineSet
677 737 m 1,0,-1
 808 737 l 1,1,-1
 468 276 l 1,2,-1
 468 0 l 1,3,-1
 357 0 l 1,4,-1
 357 276 l 1,5,-1
 17 737 l 1,6,-1
 147 737 l 1,7,-1
 413 401 l 1,8,-1
 677 737 l 1,0,-1
337 840 m 1,9,-1
 378 1006 l 1,10,-1
 488 1006 l 1,11,-1
 447 840 l 1,12,-1
 337 840 l 1,9,-1
EndSplineSet
Validated: 1
EndChar

StartChar: germandbls
Encoding: 223 223 134
Width: 852
GlyphClass: 2
Flags: W
LayerCount: 2
Fore
SplineSet
796 627 m 1,0,-1
 796 457 l 2,1,2
 796 413 796 413 770 379 c 1,3,4
 796 345 796 345 796 301 c 2,5,-1
 796 133 l 2,6,7
 796 78 796 78 757 39 c 128,-1,8
 718 0 718 0 663 0 c 2,9,-1
 280 0 l 1,10,-1
 280 111 l 1,11,-1
 663 111 l 2,12,13
 672 111 672 111 678.5 117.5 c 128,-1,14
 685 124 685 124 685 133 c 2,15,-1
 685 301 l 2,16,17
 685 310 685 310 678.5 317 c 128,-1,18
 672 324 672 324 663 324 c 2,19,-1
 280 324 l 1,20,-1
 280 423 l 1,21,-1
 663 423 l 2,22,23
 672 423 672 423 678.5 429.5 c 128,-1,24
 685 436 685 436 685 445 c 2,25,-1
 685 603 l 2,26,27
 685 612 685 612 678.5 619 c 128,-1,28
 672 626 672 626 663 626 c 2,29,-1
 191 626 l 2,30,31
 182 626 182 626 175.5 619 c 128,-1,32
 169 612 169 612 169 603 c 2,33,-1
 169 0 l 1,34,-1
 58 0 l 1,35,-1
 58 604 l 2,36,37
 58 659 58 659 97 698 c 128,-1,38
 136 737 136 737 191 737 c 2,39,-1
 663 737 l 2,40,41
 712 737 712 737 750 705.5 c 128,-1,42
 788 674 788 674 796 627 c 1,0,-1
EndSplineSet
Validated: 1
EndChar

StartChar: agrave
Encoding: 224 224 135
Width: 742
GlyphClass: 2
Flags: W
LayerCount: 2
Fore
SplineSet
524 594 m 2,0,1
 579 594 579 594 618 555 c 128,-1,2
 657 516 657 516 657 461 c 2,3,-1
 657 0 l 1,4,-1
 186 0 l 2,5,6
 131 0 131 0 92 39 c 128,-1,7
 53 78 53 78 53 133 c 2,8,-1
 53 352 l 1,9,-1
 547 352 l 1,10,-1
 547 461 l 2,11,12
 547 470 547 470 540.5 476.5 c 128,-1,13
 534 483 534 483 524 483 c 2,14,-1
 53 483 l 1,15,-1
 53 594 l 1,16,-1
 524 594 l 2,0,1
547 111 m 1,17,-1
 547 242 l 1,18,-1
 164 242 l 1,19,-1
 164 133 l 2,20,21
 164 124 164 124 170.5 117.5 c 128,-1,22
 177 111 177 111 186 111 c 2,23,-1
 547 111 l 1,17,-1
406 901 m 1,24,-1
 446 735 l 1,25,-1
 336 735 l 1,26,-1
 295 901 l 1,27,-1
 406 901 l 1,24,-1
EndSplineSet
Validated: 1
EndChar

StartChar: aacute
Encoding: 225 225 136
Width: 742
GlyphClass: 2
Flags: W
LayerCount: 2
Fore
SplineSet
524 594 m 2,0,1
 579 594 579 594 618 555 c 128,-1,2
 657 516 657 516 657 461 c 2,3,-1
 657 0 l 1,4,-1
 186 0 l 2,5,6
 131 0 131 0 92 39 c 128,-1,7
 53 78 53 78 53 133 c 2,8,-1
 53 352 l 1,9,-1
 547 352 l 1,10,-1
 547 461 l 2,11,12
 547 470 547 470 540.5 476.5 c 128,-1,13
 534 483 534 483 524 483 c 2,14,-1
 53 483 l 1,15,-1
 53 594 l 1,16,-1
 524 594 l 2,0,1
547 111 m 1,17,-1
 547 242 l 1,18,-1
 164 242 l 1,19,-1
 164 133 l 2,20,21
 164 124 164 124 170.5 117.5 c 128,-1,22
 177 111 177 111 186 111 c 2,23,-1
 547 111 l 1,17,-1
295 735 m 1,24,-1
 336 901 l 1,25,-1
 446 901 l 1,26,-1
 406 735 l 1,27,-1
 295 735 l 1,24,-1
EndSplineSet
Validated: 1
EndChar

StartChar: acircumflex
Encoding: 226 226 137
Width: 742
GlyphClass: 2
Flags: W
LayerCount: 2
Fore
SplineSet
524 594 m 2,0,1
 579 594 579 594 618 555 c 128,-1,2
 657 516 657 516 657 461 c 2,3,-1
 657 0 l 1,4,-1
 186 0 l 2,5,6
 131 0 131 0 92 39 c 128,-1,7
 53 78 53 78 53 133 c 2,8,-1
 53 352 l 1,9,-1
 547 352 l 1,10,-1
 547 461 l 2,11,12
 547 470 547 470 540.5 476.5 c 128,-1,13
 534 483 534 483 524 483 c 2,14,-1
 53 483 l 1,15,-1
 53 594 l 1,16,-1
 524 594 l 2,0,1
547 111 m 1,17,-1
 547 242 l 1,18,-1
 164 242 l 1,19,-1
 164 133 l 2,20,21
 164 124 164 124 170.5 117.5 c 128,-1,22
 177 111 177 111 186 111 c 2,23,-1
 547 111 l 1,17,-1
322 735 m 1,24,-1
 246 735 l 1,25,-1
 333 880 l 1,26,-1
 409 880 l 1,27,-1
 496 735 l 1,28,-1
 419 735 l 1,29,-1
 371 813 l 1,30,-1
 322 735 l 1,24,-1
EndSplineSet
Validated: 1
EndChar

StartChar: atilde
Encoding: 227 227 138
Width: 742
GlyphClass: 2
Flags: W
LayerCount: 2
Fore
SplineSet
524 594 m 2,0,1
 579 594 579 594 618 555 c 128,-1,2
 657 516 657 516 657 461 c 2,3,-1
 657 0 l 1,4,-1
 186 0 l 2,5,6
 131 0 131 0 92 39 c 128,-1,7
 53 78 53 78 53 133 c 2,8,-1
 53 352 l 1,9,-1
 547 352 l 1,10,-1
 547 461 l 2,11,12
 547 470 547 470 540.5 476.5 c 128,-1,13
 534 483 534 483 524 483 c 2,14,-1
 53 483 l 1,15,-1
 53 594 l 1,16,-1
 524 594 l 2,0,1
547 111 m 1,17,-1
 547 242 l 1,18,-1
 164 242 l 1,19,-1
 164 133 l 2,20,21
 164 124 164 124 170.5 117.5 c 128,-1,22
 177 111 177 111 186 111 c 2,23,-1
 547 111 l 1,17,-1
471 806 m 1,24,25
 511 806 511 806 551 833 c 1,26,-1
 551 757 l 1,27,28
 508 739 508 739 471 738 c 0,29,30
 435 738 435 738 370.5 773 c 128,-1,31
 306 808 306 808 266 808 c 0,32,33
 205 808 205 808 190 784 c 1,34,-1
 190 861 l 1,35,36
 224 875 224 875 266 876 c 0,37,38
 306 876 306 876 371 843 c 128,-1,39
 436 810 436 810 471 806 c 1,24,25
EndSplineSet
Validated: 1
EndChar

StartChar: adieresis
Encoding: 228 228 139
Width: 742
GlyphClass: 2
Flags: W
LayerCount: 2
Fore
SplineSet
524 594 m 2,0,1
 579 594 579 594 618 555 c 128,-1,2
 657 516 657 516 657 461 c 2,3,-1
 657 0 l 1,4,-1
 186 0 l 2,5,6
 131 0 131 0 92 39 c 128,-1,7
 53 78 53 78 53 133 c 2,8,-1
 53 352 l 1,9,-1
 547 352 l 1,10,-1
 547 461 l 2,11,12
 547 470 547 470 540.5 476.5 c 128,-1,13
 534 483 534 483 524 483 c 2,14,-1
 53 483 l 1,15,-1
 53 594 l 1,16,-1
 524 594 l 2,0,1
547 111 m 1,17,-1
 547 242 l 1,18,-1
 164 242 l 1,19,-1
 164 133 l 2,20,21
 164 124 164 124 170.5 117.5 c 128,-1,22
 177 111 177 111 186 111 c 2,23,-1
 547 111 l 1,17,-1
513 846 m 1,24,-1
 513 735 l 1,25,-1
 402 735 l 1,26,-1
 402 846 l 1,27,-1
 513 846 l 1,24,-1
339 846 m 1,28,-1
 339 735 l 1,29,-1
 228 735 l 1,30,-1
 228 846 l 1,31,-1
 339 846 l 1,28,-1
EndSplineSet
Validated: 1
EndChar

StartChar: aring
Encoding: 229 229 140
Width: 742
GlyphClass: 2
Flags: W
LayerCount: 2
Fore
SplineSet
524 594 m 2,0,1
 579 594 579 594 618 555 c 128,-1,2
 657 516 657 516 657 461 c 2,3,-1
 657 0 l 1,4,-1
 186 0 l 2,5,6
 131 0 131 0 92 39 c 128,-1,7
 53 78 53 78 53 133 c 2,8,-1
 53 352 l 1,9,-1
 547 352 l 1,10,-1
 547 461 l 2,11,12
 547 470 547 470 540.5 476.5 c 128,-1,13
 534 483 534 483 524 483 c 2,14,-1
 53 483 l 1,15,-1
 53 594 l 1,16,-1
 524 594 l 2,0,1
547 111 m 1,17,-1
 547 242 l 1,18,-1
 164 242 l 1,19,-1
 164 133 l 2,20,21
 164 124 164 124 170.5 117.5 c 128,-1,22
 177 111 177 111 186 111 c 2,23,-1
 547 111 l 1,17,-1
342 899 m 2,24,-1
 399 899 l 2,25,26
 422 899 422 899 438.5 883 c 128,-1,27
 455 867 455 867 455 845 c 2,28,-1
 455 790 l 2,29,30
 455 767 455 767 438.5 751 c 128,-1,31
 422 735 422 735 399 735 c 2,32,-1
 342 735 l 2,33,34
 319 735 319 735 303 751 c 128,-1,35
 287 767 287 767 287 790 c 2,36,-1
 287 845 l 2,37,38
 287 868 287 868 303 883.5 c 128,-1,39
 319 899 319 899 342 899 c 2,24,-1
337 776 m 2,40,-1
 404 776 l 2,41,42
 413 776 413 776 414 786 c 2,43,-1
 414 848 l 2,44,45
 414 858 414 858 404 858 c 2,46,-1
 337 858 l 2,47,48
 328 858 328 858 328 848 c 2,49,-1
 328 786 l 2,50,51
 328 776 328 776 337 776 c 2,40,-1
EndSplineSet
Validated: 1
EndChar

StartChar: ae
Encoding: 230 230 141
Width: 1206
GlyphClass: 2
Flags: W
LayerCount: 2
Fore
SplineSet
1019 594 m 2,0,1
 1074 594 1074 594 1113 555 c 128,-1,2
 1152 516 1152 516 1152 461 c 2,3,-1
 1152 242 l 1,4,-1
 658 242 l 1,5,-1
 658 130 l 2,6,7
 660 111 660 111 681 111 c 2,8,-1
 1152 111 l 1,9,-1
 1152 0 l 1,10,-1
 187 0 l 2,11,12
 132 0 132 0 93 39 c 128,-1,13
 54 78 54 78 54 133 c 2,14,-1
 54 352 l 1,15,-1
 548 352 l 1,16,-1
 548 461 l 2,17,18
 548 470 548 470 541.5 476.5 c 128,-1,19
 535 483 535 483 525 483 c 2,20,-1
 54 483 l 1,21,-1
 54 594 l 1,22,-1
 1019 594 l 2,0,1
548 111 m 1,23,-1
 548 242 l 1,24,-1
 165 242 l 1,25,-1
 165 133 l 2,26,27
 165 124 165 124 171.5 117.5 c 128,-1,28
 178 111 178 111 187 111 c 2,29,-1
 548 111 l 1,23,-1
658 352 m 1,30,-1
 1041 352 l 1,31,-1
 1041 461 l 2,32,33
 1041 470 1041 470 1034.5 476.5 c 128,-1,34
 1028 483 1028 483 1019 483 c 2,35,-1
 681 483 l 2,36,37
 672 483 672 483 665 476.5 c 128,-1,38
 658 470 658 470 658 461 c 2,39,-1
 658 352 l 1,30,-1
EndSplineSet
Validated: 1
EndChar

StartChar: ccedilla
Encoding: 231 231 142
Width: 709
GlyphClass: 2
Flags: W
LayerCount: 2
Fore
SplineSet
185 111 m 2,0,-1
 656 111 l 1,1,-1
 656 0 l 1,2,-1
 430 0 l 1,3,-1
 389 -166 l 1,4,-1
 279 -166 l 1,5,-1
 319 0 l 1,6,-1
 185 0 l 2,7,8
 130 0 130 0 91 39 c 128,-1,9
 52 78 52 78 52 133 c 2,10,-1
 52 461 l 2,11,12
 52 516 52 516 91 555 c 128,-1,13
 130 594 130 594 185 594 c 2,14,-1
 654 594 l 1,15,-1
 654 483 l 1,16,-1
 185 483 l 2,17,18
 176 483 176 483 169.5 476.5 c 128,-1,19
 163 470 163 470 163 461 c 2,20,-1
 163 133 l 2,21,22
 163 124 163 124 169.5 117.5 c 128,-1,23
 176 111 176 111 185 111 c 2,0,-1
EndSplineSet
Validated: 1
EndChar

StartChar: egrave
Encoding: 232 232 143
Width: 653
GlyphClass: 2
Flags: W
LayerCount: 2
Fore
SplineSet
523 594 m 2,0,1
 578 594 578 594 617 555 c 128,-1,2
 656 516 656 516 656 461 c 2,3,-1
 656 242 l 1,4,-1
 163 242 l 1,5,-1
 163 133 l 2,6,7
 163 124 163 124 169.5 117.5 c 128,-1,8
 176 111 176 111 185 111 c 2,9,-1
 656 111 l 1,10,-1
 656 0 l 1,11,-1
 185 0 l 2,12,13
 130 0 130 0 91 39 c 128,-1,14
 52 78 52 78 52 133 c 2,15,-1
 52 461 l 2,16,17
 52 516 52 516 91 555 c 128,-1,18
 130 594 130 594 185 594 c 2,19,-1
 523 594 l 2,0,1
163 352 m 1,20,-1
 546 352 l 1,21,-1
 546 461 l 2,22,23
 546 470 546 470 539 476.5 c 128,-1,24
 532 483 532 483 523 483 c 2,25,-1
 185 483 l 2,26,27
 176 483 176 483 169.5 476.5 c 128,-1,28
 163 470 163 470 163 461 c 2,29,-1
 163 352 l 1,20,-1
361 901 m 1,30,-1
 402 735 l 1,31,-1
 292 735 l 1,32,-1
 251 901 l 1,33,-1
 361 901 l 1,30,-1
EndSplineSet
Validated: 1
EndChar

StartChar: eacute
Encoding: 233 233 144
Width: 653
GlyphClass: 2
Flags: W
LayerCount: 2
Fore
SplineSet
523 594 m 2,0,1
 578 594 578 594 617 555 c 128,-1,2
 656 516 656 516 656 461 c 2,3,-1
 656 242 l 1,4,-1
 163 242 l 1,5,-1
 163 133 l 2,6,7
 163 124 163 124 169.5 117.5 c 128,-1,8
 176 111 176 111 185 111 c 2,9,-1
 656 111 l 1,10,-1
 656 0 l 1,11,-1
 185 0 l 2,12,13
 130 0 130 0 91 39 c 128,-1,14
 52 78 52 78 52 133 c 2,15,-1
 52 461 l 2,16,17
 52 516 52 516 91 555 c 128,-1,18
 130 594 130 594 185 594 c 2,19,-1
 523 594 l 2,0,1
163 352 m 1,20,-1
 546 352 l 1,21,-1
 546 461 l 2,22,23
 546 470 546 470 539 476.5 c 128,-1,24
 532 483 532 483 523 483 c 2,25,-1
 185 483 l 2,26,27
 176 483 176 483 169.5 476.5 c 128,-1,28
 163 470 163 470 163 461 c 2,29,-1
 163 352 l 1,20,-1
251 736 m 1,30,-1
 292 902 l 1,31,-1
 402 902 l 1,32,-1
 361 736 l 1,33,-1
 251 736 l 1,30,-1
EndSplineSet
Validated: 1
EndChar

StartChar: ecircumflex
Encoding: 234 234 145
Width: 653
GlyphClass: 2
Flags: W
LayerCount: 2
Fore
SplineSet
523 594 m 2,0,1
 578 594 578 594 617 555 c 128,-1,2
 656 516 656 516 656 461 c 2,3,-1
 656 242 l 1,4,-1
 163 242 l 1,5,-1
 163 133 l 2,6,7
 163 124 163 124 169.5 117.5 c 128,-1,8
 176 111 176 111 185 111 c 2,9,-1
 656 111 l 1,10,-1
 656 0 l 1,11,-1
 185 0 l 2,12,13
 130 0 130 0 91 39 c 128,-1,14
 52 78 52 78 52 133 c 2,15,-1
 52 461 l 2,16,17
 52 516 52 516 91 555 c 128,-1,18
 130 594 130 594 185 594 c 2,19,-1
 523 594 l 2,0,1
163 352 m 1,20,-1
 546 352 l 1,21,-1
 546 461 l 2,22,23
 546 470 546 470 539 476.5 c 128,-1,24
 532 483 532 483 523 483 c 2,25,-1
 185 483 l 2,26,27
 176 483 176 483 169.5 476.5 c 128,-1,28
 163 470 163 470 163 461 c 2,29,-1
 163 352 l 1,20,-1
278 735 m 1,30,-1
 202 735 l 1,31,-1
 289 880 l 1,32,-1
 365 880 l 1,33,-1
 452 735 l 1,34,-1
 375 735 l 1,35,-1
 327 813 l 1,36,-1
 278 735 l 1,30,-1
EndSplineSet
Validated: 1
EndChar

StartChar: edieresis
Encoding: 235 235 146
Width: 653
GlyphClass: 2
Flags: W
LayerCount: 2
Fore
SplineSet
523 594 m 2,0,1
 578 594 578 594 617 555 c 128,-1,2
 656 516 656 516 656 461 c 2,3,-1
 656 242 l 1,4,-1
 163 242 l 1,5,-1
 163 133 l 2,6,7
 163 124 163 124 169.5 117.5 c 128,-1,8
 176 111 176 111 185 111 c 2,9,-1
 656 111 l 1,10,-1
 656 0 l 1,11,-1
 185 0 l 2,12,13
 130 0 130 0 91 39 c 128,-1,14
 52 78 52 78 52 133 c 2,15,-1
 52 461 l 2,16,17
 52 516 52 516 91 555 c 128,-1,18
 130 594 130 594 185 594 c 2,19,-1
 523 594 l 2,0,1
163 352 m 1,20,-1
 546 352 l 1,21,-1
 546 461 l 2,22,23
 546 470 546 470 539 476.5 c 128,-1,24
 532 483 532 483 523 483 c 2,25,-1
 185 483 l 2,26,27
 176 483 176 483 169.5 476.5 c 128,-1,28
 163 470 163 470 163 461 c 2,29,-1
 163 352 l 1,20,-1
469 846 m 1,30,-1
 469 735 l 1,31,-1
 358 735 l 1,32,-1
 358 846 l 1,33,-1
 469 846 l 1,30,-1
295 846 m 1,34,-1
 295 735 l 1,35,-1
 184 735 l 1,36,-1
 184 846 l 1,37,-1
 295 846 l 1,34,-1
EndSplineSet
Validated: 1
EndChar

StartChar: igrave
Encoding: 236 236 147
Width: 219
GlyphClass: 2
Flags: W
LayerCount: 2
Fore
SplineSet
57 0 m 1,0,-1
 57 594 l 1,1,-1
 168 594 l 1,2,-1
 168 0 l 1,3,-1
 57 0 l 1,0,-1
127 902 m 1,4,-1
 168 736 l 1,5,-1
 57 736 l 1,6,-1
 16 902 l 1,7,-1
 127 902 l 1,4,-1
EndSplineSet
Validated: 1
EndChar

StartChar: iacute
Encoding: 237 237 148
Width: 219
GlyphClass: 2
Flags: W
LayerCount: 2
Fore
SplineSet
52 0 m 1,0,-1
 52 594 l 1,1,-1
 163 594 l 1,2,-1
 163 0 l 1,3,-1
 52 0 l 1,0,-1
50 735 m 1,4,-1
 91 901 l 1,5,-1
 202 901 l 1,6,-1
 161 735 l 1,7,-1
 50 735 l 1,4,-1
EndSplineSet
Validated: 1
EndChar

StartChar: icircumflex
Encoding: 238 238 149
Width: 219
GlyphClass: 2
Flags: W
LayerCount: 2
Fore
SplineSet
52 0 m 1,0,-1
 52 594 l 1,1,-1
 163 594 l 1,2,-1
 163 0 l 1,3,-1
 52 0 l 1,0,-1
60 735 m 1,4,-1
 -15 735 l 1,5,-1
 72 880 l 1,6,-1
 147 880 l 1,7,-1
 234 735 l 1,8,-1
 158 735 l 1,9,-1
 110 813 l 1,10,-1
 60 735 l 1,4,-1
EndSplineSet
Validated: 1
EndChar

StartChar: idieresis
Encoding: 239 239 150
Width: 219
GlyphClass: 2
Flags: W
LayerCount: 2
Fore
SplineSet
56 0 m 1,0,-1
 56 594 l 1,1,-1
 167 594 l 1,2,-1
 167 0 l 1,3,-1
 56 0 l 1,0,-1
252 848 m 1,4,-1
 252 737 l 1,5,-1
 141 737 l 1,6,-1
 141 848 l 1,7,-1
 252 848 l 1,4,-1
78 848 m 1,8,-1
 78 737 l 1,9,-1
 -33 737 l 1,10,-1
 -33 848 l 1,11,-1
 78 848 l 1,8,-1
EndSplineSet
Validated: 1
EndChar

StartChar: ntilde
Encoding: 241 241 151
Width: 724
GlyphClass: 2
Flags: W
LayerCount: 2
Fore
SplineSet
526 594 m 2,0,1
 581 594 581 594 620 555 c 128,-1,2
 659 516 659 516 659 461 c 2,3,-1
 659 0 l 1,4,-1
 549 0 l 1,5,-1
 549 461 l 2,6,7
 549 470 549 470 542.5 476.5 c 128,-1,8
 536 483 536 483 526 483 c 2,9,-1
 188 483 l 2,10,11
 179 483 179 483 172.5 476.5 c 128,-1,12
 166 470 166 470 166 461 c 2,13,-1
 166 0 l 1,14,-1
 55 0 l 1,15,-1
 55 594 l 1,16,-1
 526 594 l 2,0,1
463 805 m 1,17,18
 503 805 503 805 543 831 c 1,19,-1
 543 756 l 1,20,21
 500 738 500 738 463 737 c 0,22,23
 427 737 427 737 362.5 772 c 128,-1,24
 298 807 298 807 258 807 c 0,25,26
 197 807 197 807 182 783 c 1,27,-1
 182 860 l 1,28,29
 216 874 216 874 258 874 c 0,30,31
 298 874 298 874 363 841.5 c 128,-1,32
 428 809 428 809 463 805 c 1,17,18
EndSplineSet
Validated: 1
EndChar

StartChar: ograve
Encoding: 242 242 152
Width: 708
GlyphClass: 2
Flags: W
LayerCount: 2
Fore
SplineSet
185 594 m 2,0,-1
 523 594 l 2,1,2
 578 594 578 594 617 555 c 128,-1,3
 656 516 656 516 656 461 c 2,4,-1
 656 133 l 2,5,6
 656 78 656 78 617.5 39 c 128,-1,7
 579 0 579 0 523 0 c 2,8,-1
 185 0 l 2,9,10
 130 0 130 0 91 39 c 128,-1,11
 52 78 52 78 52 133 c 2,12,-1
 52 461 l 2,13,14
 52 516 52 516 91 555 c 128,-1,15
 130 594 130 594 185 594 c 2,0,-1
523 483 m 2,16,-1
 185 483 l 2,17,18
 176 483 176 483 169.5 476.5 c 128,-1,19
 163 470 163 470 163 461 c 2,20,-1
 163 133 l 2,21,22
 163 124 163 124 169.5 117.5 c 128,-1,23
 176 111 176 111 185 111 c 2,24,-1
 523 111 l 2,25,26
 532 111 532 111 539 117.5 c 128,-1,27
 546 124 546 124 546 133 c 2,28,-1
 546 461 l 2,29,30
 546 470 546 470 539 476.5 c 128,-1,31
 532 483 532 483 523 483 c 2,16,-1
389 902 m 1,32,-1
 430 736 l 1,33,-1
 319 736 l 1,34,-1
 279 902 l 1,35,-1
 389 902 l 1,32,-1
EndSplineSet
Validated: 1
EndChar

StartChar: oacute
Encoding: 243 243 153
Width: 708
GlyphClass: 2
Flags: W
LayerCount: 2
Fore
SplineSet
185 594 m 2,0,-1
 523 594 l 2,1,2
 578 594 578 594 617 555 c 128,-1,3
 656 516 656 516 656 461 c 2,4,-1
 656 133 l 2,5,6
 656 78 656 78 617.5 39 c 128,-1,7
 579 0 579 0 523 0 c 2,8,-1
 185 0 l 2,9,10
 130 0 130 0 91 39 c 128,-1,11
 52 78 52 78 52 133 c 2,12,-1
 52 461 l 2,13,14
 52 516 52 516 91 555 c 128,-1,15
 130 594 130 594 185 594 c 2,0,-1
523 483 m 2,16,-1
 185 483 l 2,17,18
 176 483 176 483 169.5 476.5 c 128,-1,19
 163 470 163 470 163 461 c 2,20,-1
 163 133 l 2,21,22
 163 124 163 124 169.5 117.5 c 128,-1,23
 176 111 176 111 185 111 c 2,24,-1
 523 111 l 2,25,26
 532 111 532 111 539 117.5 c 128,-1,27
 546 124 546 124 546 133 c 2,28,-1
 546 461 l 2,29,30
 546 470 546 470 539 476.5 c 128,-1,31
 532 483 532 483 523 483 c 2,16,-1
279 736 m 1,32,-1
 319 902 l 1,33,-1
 430 902 l 1,34,-1
 389 736 l 1,35,-1
 279 736 l 1,32,-1
EndSplineSet
Validated: 1
EndChar

StartChar: ocircumflex
Encoding: 244 244 154
Width: 708
GlyphClass: 2
Flags: W
LayerCount: 2
Fore
SplineSet
185 594 m 2,0,-1
 523 594 l 2,1,2
 578 594 578 594 617 555 c 128,-1,3
 656 516 656 516 656 461 c 2,4,-1
 656 133 l 2,5,6
 656 78 656 78 617.5 39 c 128,-1,7
 579 0 579 0 523 0 c 2,8,-1
 185 0 l 2,9,10
 130 0 130 0 91 39 c 128,-1,11
 52 78 52 78 52 133 c 2,12,-1
 52 461 l 2,13,14
 52 516 52 516 91 555 c 128,-1,15
 130 594 130 594 185 594 c 2,0,-1
523 483 m 2,16,-1
 185 483 l 2,17,18
 176 483 176 483 169.5 476.5 c 128,-1,19
 163 470 163 470 163 461 c 2,20,-1
 163 133 l 2,21,22
 163 124 163 124 169.5 117.5 c 128,-1,23
 176 111 176 111 185 111 c 2,24,-1
 523 111 l 2,25,26
 532 111 532 111 539 117.5 c 128,-1,27
 546 124 546 124 546 133 c 2,28,-1
 546 461 l 2,29,30
 546 470 546 470 539 476.5 c 128,-1,31
 532 483 532 483 523 483 c 2,16,-1
305 735 m 1,32,-1
 229 735 l 1,33,-1
 316 880 l 1,34,-1
 392 880 l 1,35,-1
 479 735 l 1,36,-1
 402 735 l 1,37,-1
 354 813 l 1,38,-1
 305 735 l 1,32,-1
EndSplineSet
Validated: 1
EndChar

StartChar: otilde
Encoding: 245 245 155
Width: 708
GlyphClass: 2
Flags: W
LayerCount: 2
Fore
SplineSet
185 594 m 2,0,-1
 523 594 l 2,1,2
 578 594 578 594 617 555 c 128,-1,3
 656 516 656 516 656 461 c 2,4,-1
 656 133 l 2,5,6
 656 78 656 78 617.5 39 c 128,-1,7
 579 0 579 0 523 0 c 2,8,-1
 185 0 l 2,9,10
 130 0 130 0 91 39 c 128,-1,11
 52 78 52 78 52 133 c 2,12,-1
 52 461 l 2,13,14
 52 516 52 516 91 555 c 128,-1,15
 130 594 130 594 185 594 c 2,0,-1
523 483 m 2,16,-1
 185 483 l 2,17,18
 176 483 176 483 169.5 476.5 c 128,-1,19
 163 470 163 470 163 461 c 2,20,-1
 163 133 l 2,21,22
 163 124 163 124 169.5 117.5 c 128,-1,23
 176 111 176 111 185 111 c 2,24,-1
 523 111 l 2,25,26
 532 111 532 111 539 117.5 c 128,-1,27
 546 124 546 124 546 133 c 2,28,-1
 546 461 l 2,29,30
 546 470 546 470 539 476.5 c 128,-1,31
 532 483 532 483 523 483 c 2,16,-1
455 805 m 1,32,33
 495 805 495 805 535 831 c 1,34,-1
 535 756 l 1,35,36
 492 738 492 738 455 737 c 0,37,38
 419 737 419 737 354.5 772 c 128,-1,39
 290 807 290 807 250 807 c 0,40,41
 189 807 189 807 174 783 c 1,42,-1
 174 860 l 1,43,44
 208 874 208 874 250 874 c 0,45,46
 290 874 290 874 355 841.5 c 128,-1,47
 420 809 420 809 455 805 c 1,32,33
EndSplineSet
Validated: 1
EndChar

StartChar: odieresis
Encoding: 246 246 156
Width: 708
GlyphClass: 2
Flags: W
LayerCount: 2
Fore
SplineSet
185 594 m 2,0,-1
 523 594 l 2,1,2
 578 594 578 594 617 555 c 128,-1,3
 656 516 656 516 656 461 c 2,4,-1
 656 133 l 2,5,6
 656 78 656 78 617.5 39 c 128,-1,7
 579 0 579 0 523 0 c 2,8,-1
 185 0 l 2,9,10
 130 0 130 0 91 39 c 128,-1,11
 52 78 52 78 52 133 c 2,12,-1
 52 461 l 2,13,14
 52 516 52 516 91 555 c 128,-1,15
 130 594 130 594 185 594 c 2,0,-1
523 483 m 2,16,-1
 185 483 l 2,17,18
 176 483 176 483 169.5 476.5 c 128,-1,19
 163 470 163 470 163 461 c 2,20,-1
 163 133 l 2,21,22
 163 124 163 124 169.5 117.5 c 128,-1,23
 176 111 176 111 185 111 c 2,24,-1
 523 111 l 2,25,26
 532 111 532 111 539 117.5 c 128,-1,27
 546 124 546 124 546 133 c 2,28,-1
 546 461 l 2,29,30
 546 470 546 470 539 476.5 c 128,-1,31
 532 483 532 483 523 483 c 2,16,-1
497 848 m 1,32,-1
 497 737 l 1,33,-1
 386 737 l 1,34,-1
 386 848 l 1,35,-1
 497 848 l 1,32,-1
323 848 m 1,36,-1
 323 737 l 1,37,-1
 212 737 l 1,38,-1
 212 848 l 1,39,-1
 323 848 l 1,36,-1
EndSplineSet
Validated: 1
EndChar

StartChar: divide
Encoding: 247 247 157
Width: 514
GlyphClass: 2
Flags: W
LayerCount: 2
Fore
SplineSet
510 358 m 1,0,-1
 510 248 l 1,1,-1
 18 248 l 1,2,-1
 18 358 l 1,3,-1
 510 358 l 1,0,-1
206 111 m 1,4,-1
 316 111 l 1,5,-1
 316 0 l 1,6,-1
 206 0 l 1,7,-1
 206 111 l 1,4,-1
316 602 m 1,8,-1
 316 492 l 1,9,-1
 206 492 l 1,10,-1
 206 602 l 1,11,-1
 316 602 l 1,8,-1
EndSplineSet
Validated: 1
EndChar

StartChar: ugrave
Encoding: 249 249 158
Width: 711
GlyphClass: 2
Flags: W
LayerCount: 2
Fore
SplineSet
548 594 m 1,0,-1
 658 594 l 1,1,-1
 658 133 l 2,2,3
 658 78 658 78 619.5 39 c 128,-1,4
 581 0 581 0 525 0 c 2,5,-1
 187 0 l 2,6,7
 132 0 132 0 93 39 c 128,-1,8
 54 78 54 78 54 133 c 2,9,-1
 54 594 l 1,10,-1
 165 594 l 1,11,-1
 165 133 l 2,12,13
 165 124 165 124 171.5 117.5 c 128,-1,14
 178 111 178 111 187 111 c 2,15,-1
 525 111 l 2,16,17
 534 111 534 111 541 117.5 c 128,-1,18
 548 124 548 124 548 133 c 2,19,-1
 548 594 l 1,0,-1
390 902 m 1,20,-1
 431 736 l 1,21,-1
 321 736 l 1,22,-1
 280 902 l 1,23,-1
 390 902 l 1,20,-1
EndSplineSet
Validated: 1
EndChar

StartChar: uacute
Encoding: 250 250 159
Width: 711
GlyphClass: 2
Flags: W
LayerCount: 2
Fore
SplineSet
548 594 m 1,0,-1
 658 594 l 1,1,-1
 658 133 l 2,2,3
 658 78 658 78 619.5 39 c 128,-1,4
 581 0 581 0 525 0 c 2,5,-1
 187 0 l 2,6,7
 132 0 132 0 93 39 c 128,-1,8
 54 78 54 78 54 133 c 2,9,-1
 54 594 l 1,10,-1
 165 594 l 1,11,-1
 165 133 l 2,12,13
 165 124 165 124 171.5 117.5 c 128,-1,14
 178 111 178 111 187 111 c 2,15,-1
 525 111 l 2,16,17
 534 111 534 111 541 117.5 c 128,-1,18
 548 124 548 124 548 133 c 2,19,-1
 548 594 l 1,0,-1
280 736 m 1,20,-1
 321 902 l 1,21,-1
 431 902 l 1,22,-1
 390 736 l 1,23,-1
 280 736 l 1,20,-1
EndSplineSet
Validated: 1
EndChar

StartChar: ucircumflex
Encoding: 251 251 160
Width: 711
GlyphClass: 2
Flags: W
LayerCount: 2
Fore
SplineSet
548 594 m 1,0,-1
 658 594 l 1,1,-1
 658 133 l 2,2,3
 658 78 658 78 619.5 39 c 128,-1,4
 581 0 581 0 525 0 c 2,5,-1
 187 0 l 2,6,7
 132 0 132 0 93 39 c 128,-1,8
 54 78 54 78 54 133 c 2,9,-1
 54 594 l 1,10,-1
 165 594 l 1,11,-1
 165 133 l 2,12,13
 165 124 165 124 171.5 117.5 c 128,-1,14
 178 111 178 111 187 111 c 2,15,-1
 525 111 l 2,16,17
 534 111 534 111 541 117.5 c 128,-1,18
 548 124 548 124 548 133 c 2,19,-1
 548 594 l 1,0,-1
306 736 m 1,20,-1
 230 736 l 1,21,-1
 317 881 l 1,22,-1
 393 881 l 1,23,-1
 480 736 l 1,24,-1
 403 736 l 1,25,-1
 355 814 l 1,26,-1
 306 736 l 1,20,-1
EndSplineSet
Validated: 1
EndChar

StartChar: udieresis
Encoding: 252 252 161
Width: 711
GlyphClass: 2
Flags: W
LayerCount: 2
Fore
SplineSet
548 594 m 1,0,-1
 658 594 l 1,1,-1
 658 133 l 2,2,3
 658 78 658 78 619.5 39 c 128,-1,4
 581 0 581 0 525 0 c 2,5,-1
 187 0 l 2,6,7
 132 0 132 0 93 39 c 128,-1,8
 54 78 54 78 54 133 c 2,9,-1
 54 594 l 1,10,-1
 165 594 l 1,11,-1
 165 133 l 2,12,13
 165 124 165 124 171.5 117.5 c 128,-1,14
 178 111 178 111 187 111 c 2,15,-1
 525 111 l 2,16,17
 534 111 534 111 541 117.5 c 128,-1,18
 548 124 548 124 548 133 c 2,19,-1
 548 594 l 1,0,-1
498 846 m 1,20,-1
 498 735 l 1,21,-1
 387 735 l 1,22,-1
 387 846 l 1,23,-1
 498 846 l 1,20,-1
324 846 m 1,24,-1
 324 735 l 1,25,-1
 213 735 l 1,26,-1
 213 846 l 1,27,-1
 324 846 l 1,24,-1
EndSplineSet
Validated: 1
EndChar

StartChar: yacute
Encoding: 253 253 162
Width: 704
GlyphClass: 2
Flags: W
LayerCount: 2
Fore
SplineSet
647 227 m 1,0,-1
 647 225 l 1,1,-1
 647 -102 l 2,2,3
 647 -157 647 -157 608 -196.5 c 128,-1,4
 569 -236 569 -236 514 -236 c 2,5,-1
 147 -236 l 1,6,-1
 147 -125 l 1,7,-1
 514 -125 l 2,8,9
 523 -125 523 -125 530 -118.5 c 128,-1,10
 537 -112 537 -112 537 -102 c 2,11,-1
 537 0 l 1,12,-1
 176 0 l 2,13,14
 121 0 121 0 82 39 c 128,-1,15
 43 78 43 78 43 133 c 2,16,-1
 43 592 l 1,17,-1
 154 592 l 1,18,-1
 154 133 l 2,19,20
 154 124 154 124 160.5 117.5 c 128,-1,21
 167 111 167 111 176 111 c 2,22,-1
 514 111 l 2,23,24
 523 111 523 111 530 117.5 c 128,-1,25
 537 124 537 124 537 133 c 2,26,-1
 537 592 l 1,27,-1
 647 592 l 1,28,-1
 647 227 l 1,0,-1
276 736 m 1,29,-1
 317 902 l 1,30,-1
 428 902 l 1,31,-1
 387 736 l 1,32,-1
 276 736 l 1,29,-1
EndSplineSet
Validated: 1
EndChar

StartChar: ydieresis
Encoding: 255 255 163
Width: 704
GlyphClass: 2
Flags: W
LayerCount: 2
Fore
SplineSet
647 227 m 1,0,-1
 647 225 l 1,1,-1
 647 -102 l 2,2,3
 647 -157 647 -157 608 -196.5 c 128,-1,4
 569 -236 569 -236 514 -236 c 2,5,-1
 147 -236 l 1,6,-1
 147 -125 l 1,7,-1
 514 -125 l 2,8,9
 523 -125 523 -125 530 -118.5 c 128,-1,10
 537 -112 537 -112 537 -102 c 2,11,-1
 537 0 l 1,12,-1
 176 0 l 2,13,14
 121 0 121 0 82 39 c 128,-1,15
 43 78 43 78 43 133 c 2,16,-1
 43 592 l 1,17,-1
 154 592 l 1,18,-1
 154 133 l 2,19,20
 154 124 154 124 160.5 117.5 c 128,-1,21
 167 111 167 111 176 111 c 2,22,-1
 514 111 l 2,23,24
 523 111 523 111 530 117.5 c 128,-1,25
 537 124 537 124 537 133 c 2,26,-1
 537 592 l 1,27,-1
 647 592 l 1,28,-1
 647 227 l 1,0,-1
495 848 m 1,29,-1
 495 737 l 1,30,-1
 384 737 l 1,31,-1
 384 848 l 1,32,-1
 495 848 l 1,29,-1
321 848 m 1,33,-1
 321 737 l 1,34,-1
 210 737 l 1,35,-1
 210 848 l 1,36,-1
 321 848 l 1,33,-1
EndSplineSet
Validated: 1
EndChar

StartChar: dotlessi
Encoding: 305 305 164
Width: 219
GlyphClass: 2
Flags: W
LayerCount: 2
Fore
SplineSet
53 0 m 1,0,-1
 53 594 l 1,1,-1
 164 594 l 1,2,-1
 164 0 l 1,3,-1
 53 0 l 1,0,-1
EndSplineSet
Validated: 1
EndChar

StartChar: OE
Encoding: 338 338 165
Width: 1406
GlyphClass: 2
Flags: W
LayerCount: 2
Fore
SplineSet
792 627 m 1,0,-1
 792 424 l 1,1,-1
 1246 424 l 1,2,-1
 1246 313 l 1,3,-1
 792 313 l 1,4,-1
 792 111 l 1,5,-1
 1357 111 l 1,6,-1
 1357 0 l 1,7,-1
 187 0 l 2,8,9
 132 0 132 0 93 39 c 128,-1,10
 54 78 54 78 54 133 c 2,11,-1
 54 604 l 2,12,13
 54 659 54 659 93 698 c 128,-1,14
 132 737 132 737 187 737 c 2,15,-1
 1357 737 l 1,16,-1
 1357 627 l 1,17,-1
 792 627 l 1,0,-1
658 111 m 2,18,19
 667 111 667 111 674 117.5 c 128,-1,20
 681 124 681 124 681 133 c 2,21,-1
 681 604 l 2,22,23
 681 613 681 613 674.5 620 c 128,-1,24
 668 627 668 627 658 627 c 2,25,-1
 187 627 l 2,26,27
 178 627 178 627 171.5 620 c 128,-1,28
 165 613 165 613 165 604 c 2,29,-1
 165 133 l 2,30,31
 165 124 165 124 171.5 117.5 c 128,-1,32
 178 111 178 111 187 111 c 2,33,-1
 658 111 l 2,18,19
EndSplineSet
Validated: 1
EndChar

StartChar: oe
Encoding: 339 339 166
Width: 1205
GlyphClass: 2
Flags: W
LayerCount: 2
Fore
SplineSet
1151 242 m 1,0,-1
 657 242 l 1,1,-1
 657 133 l 2,2,3
 657 124 657 124 664 117.5 c 128,-1,4
 671 111 671 111 680 111 c 2,5,-1
 1151 111 l 1,6,-1
 1151 0 l 1,7,-1
 186 0 l 2,8,9
 131 0 131 0 92 39 c 128,-1,10
 53 78 53 78 53 133 c 2,11,-1
 53 461 l 2,12,13
 53 516 53 516 92 555 c 128,-1,14
 131 594 131 594 186 594 c 2,15,-1
 1018 594 l 2,16,17
 1073 594 1073 594 1112 555 c 128,-1,18
 1151 516 1151 516 1151 461 c 2,19,-1
 1151 242 l 1,0,-1
680 483 m 2,20,21
 671 483 671 483 664 476.5 c 128,-1,22
 657 470 657 470 657 461 c 2,23,-1
 657 352 l 1,24,-1
 1040 352 l 1,25,-1
 1040 461 l 2,26,27
 1040 470 1040 470 1033.5 476.5 c 128,-1,28
 1027 483 1027 483 1018 483 c 2,29,-1
 680 483 l 2,20,21
524 111 m 2,30,31
 533 111 533 111 540 117.5 c 128,-1,32
 547 124 547 124 547 133 c 2,33,-1
 547 461 l 2,34,35
 547 470 547 470 540.5 476.5 c 128,-1,36
 534 483 534 483 524 483 c 2,37,-1
 186 483 l 2,38,39
 177 483 177 483 170.5 476.5 c 128,-1,40
 164 470 164 470 164 461 c 2,41,-1
 164 133 l 2,42,43
 164 124 164 124 170.5 117.5 c 128,-1,44
 177 111 177 111 186 111 c 2,45,-1
 524 111 l 2,30,31
EndSplineSet
Validated: 1
EndChar

StartChar: Scaron
Encoding: 352 352 167
Width: 841
GlyphClass: 2
Flags: W
LayerCount: 2
Fore
SplineSet
790 604 m 2,0,-1
 790 561 l 1,1,-1
 679 561 l 1,2,-1
 679 604 l 2,3,4
 679 613 679 613 672.5 620 c 128,-1,5
 666 627 666 627 656 627 c 2,6,-1
 185 627 l 2,7,8
 176 627 176 627 169.5 620 c 128,-1,9
 163 613 163 613 163 604 c 2,10,-1
 163 446 l 2,11,12
 163 437 163 437 169.5 430.5 c 128,-1,13
 176 424 176 424 185 424 c 2,14,-1
 656 424 l 2,15,16
 711 424 711 424 750.5 385 c 128,-1,17
 790 346 790 346 790 291 c 2,18,-1
 790 133 l 2,19,20
 790 78 790 78 751 39 c 128,-1,21
 712 0 712 0 656 0 c 2,22,-1
 185 0 l 2,23,24
 130 0 130 0 91 39 c 128,-1,25
 52 78 52 78 52 133 c 2,26,-1
 52 176 l 1,27,-1
 163 176 l 1,28,-1
 163 133 l 2,29,30
 163 124 163 124 169.5 117.5 c 128,-1,31
 176 111 176 111 185 111 c 2,32,-1
 656 111 l 2,33,34
 665 111 665 111 672 117.5 c 128,-1,35
 679 124 679 124 679 133 c 2,36,-1
 679 291 l 2,37,38
 679 300 679 300 672.5 306.5 c 128,-1,39
 666 313 666 313 656 313 c 2,40,-1
 185 313 l 2,41,42
 130 313 130 313 91 352 c 128,-1,43
 52 391 52 391 52 446 c 2,44,-1
 52 604 l 2,45,46
 52 659 52 659 91 698 c 128,-1,47
 130 737 130 737 185 737 c 2,48,-1
 656 737 l 2,49,50
 711 737 711 737 750.5 698 c 128,-1,51
 790 659 790 659 790 604 c 2,0,-1
296 983 m 1,52,-1
 372 983 l 1,53,-1
 421 905 l 1,54,-1
 469 983 l 1,55,-1
 546 983 l 1,56,-1
 459 839 l 1,57,-1
 383 839 l 1,58,-1
 296 983 l 1,52,-1
EndSplineSet
Validated: 1
EndChar

StartChar: scaron
Encoding: 353 353 168
Width: 703
GlyphClass: 2
Flags: W
LayerCount: 2
Fore
SplineSet
653 461 m 2,0,-1
 653 438 l 1,1,-1
 543 438 l 1,2,-1
 543 461 l 2,3,4
 543 470 543 470 536 476.5 c 128,-1,5
 529 483 529 483 520 483 c 2,6,-1
 182 483 l 2,7,8
 173 483 173 483 166.5 476.5 c 128,-1,9
 160 470 160 470 160 461 c 2,10,-1
 160 375 l 2,11,12
 160 366 160 366 166.5 359 c 128,-1,13
 173 352 173 352 182 352 c 2,14,-1
 520 352 l 2,15,16
 575 352 575 352 614 313 c 128,-1,17
 653 274 653 274 653 219 c 2,18,-1
 653 133 l 2,19,20
 653 78 653 78 614 39 c 128,-1,21
 575 0 575 0 520 0 c 2,22,-1
 182 0 l 2,23,24
 127 0 127 0 88 39 c 128,-1,25
 49 78 49 78 49 133 c 2,26,-1
 49 156 l 1,27,-1
 160 156 l 1,28,-1
 160 133 l 2,29,30
 160 124 160 124 166.5 117.5 c 128,-1,31
 173 111 173 111 182 111 c 2,32,-1
 520 111 l 2,33,34
 529 111 529 111 536 117.5 c 128,-1,35
 543 124 543 124 543 133 c 2,36,-1
 543 219 l 2,37,38
 543 228 543 228 536 235 c 128,-1,39
 529 242 529 242 520 242 c 2,40,-1
 182 242 l 2,41,42
 127 242 127 242 88 280.5 c 128,-1,43
 49 319 49 319 49 375 c 2,44,-1
 49 461 l 2,45,46
 49 516 49 516 88 555 c 128,-1,47
 127 594 127 594 182 594 c 2,48,-1
 520 594 l 2,49,50
 575 594 575 594 614 555 c 128,-1,51
 653 516 653 516 653 461 c 2,0,-1
226 880 m 1,52,-1
 302 880 l 1,53,-1
 351 802 l 1,54,-1
 399 880 l 1,55,-1
 476 880 l 1,56,-1
 389 735 l 1,57,-1
 313 735 l 1,58,-1
 226 880 l 1,52,-1
EndSplineSet
Validated: 1
EndChar

StartChar: Ydieresis
Encoding: 376 376 169
Width: 825
GlyphClass: 2
Flags: W
LayerCount: 2
Fore
SplineSet
677 737 m 1,0,-1
 808 737 l 1,1,-1
 468 276 l 1,2,-1
 468 0 l 1,3,-1
 357 0 l 1,4,-1
 357 276 l 1,5,-1
 17 737 l 1,6,-1
 147 737 l 1,7,-1
 413 401 l 1,8,-1
 677 737 l 1,0,-1
555 950 m 1,9,-1
 555 840 l 1,10,-1
 444 840 l 1,11,-1
 444 950 l 1,12,-1
 555 950 l 1,9,-1
381 950 m 1,13,-1
 381 840 l 1,14,-1
 270 840 l 1,15,-1
 270 950 l 1,16,-1
 381 950 l 1,13,-1
EndSplineSet
Validated: 1
EndChar

StartChar: Zcaron
Encoding: 381 381 170
Width: 840
GlyphClass: 2
Flags: W
LayerCount: 2
Fore
SplineSet
52 627 m 1,0,-1
 52 737 l 1,1,-1
 790 737 l 1,2,-1
 790 606 l 1,3,-1
 200 111 l 1,4,-1
 790 111 l 1,5,-1
 790 0 l 1,6,-1
 52 0 l 1,7,-1
 52 131 l 1,8,-1
 642 627 l 1,9,-1
 52 627 l 1,0,-1
295 983 m 1,10,-1
 371 983 l 1,11,-1
 420 905 l 1,12,-1
 468 983 l 1,13,-1
 545 983 l 1,14,-1
 458 839 l 1,15,-1
 382 839 l 1,16,-1
 295 983 l 1,10,-1
EndSplineSet
Validated: 1
EndChar

StartChar: zcaron
Encoding: 382 382 171
Width: 714
GlyphClass: 2
Flags: W
LayerCount: 2
Fore
SplineSet
55 483 m 1,0,-1
 55 594 l 1,1,-1
 659 594 l 1,2,-1
 659 463 l 1,3,-1
 203 111 l 1,4,-1
 659 111 l 1,5,-1
 659 0 l 1,6,-1
 55 0 l 1,7,-1
 55 131 l 1,8,-1
 512 483 l 1,9,-1
 55 483 l 1,0,-1
232 883 m 1,10,-1
 308 883 l 1,11,-1
 357 805 l 1,12,-1
 406 883 l 1,13,-1
 482 883 l 1,14,-1
 395 738 l 1,15,-1
 319 738 l 1,16,-1
 232 883 l 1,10,-1
EndSplineSet
Validated: 1
EndChar

StartChar: circumflex
Encoding: 710 710 172
Width: 307
GlyphClass: 2
Flags: W
LayerCount: 2
Fore
SplineSet
104 846 m 1,0,-1
 29 846 l 1,1,-1
 116 990 l 1,2,-1
 191 990 l 1,3,-1
 279 846 l 1,4,-1
 202 846 l 1,5,-1
 154 924 l 1,6,-1
 104 846 l 1,0,-1
EndSplineSet
Validated: 1
EndChar

StartChar: caron
Encoding: 711 711 173
Width: 304
GlyphClass: 2
Flags: W
LayerCount: 2
Fore
SplineSet
28 990 m 1,0,-1
 103 990 l 1,1,-1
 153 912 l 1,2,-1
 201 990 l 1,3,-1
 278 990 l 1,4,-1
 190 846 l 1,5,-1
 115 846 l 1,6,-1
 28 990 l 1,0,-1
EndSplineSet
Validated: 1
EndChar

StartChar: breve
Encoding: 728 728 174
Width: 293
GlyphClass: 2
Flags: W
LayerCount: 2
Fore
SplineSet
200 933 m 1,0,-1
 252 933 l 1,1,-1
 252 926 l 2,2,3
 252 893 252 893 229.5 870 c 128,-1,4
 207 847 207 847 173 847 c 2,5,-1
 120 847 l 2,6,7
 86 847 86 847 63.5 870 c 128,-1,8
 41 893 41 893 41 926 c 2,9,-1
 41 933 l 1,10,-1
 93 933 l 1,11,-1
 93 914 l 2,12,13
 93 900 93 900 108 900 c 2,14,-1
 185 900 l 2,15,16
 199 900 199 900 200 914 c 2,17,-1
 200 933 l 1,0,-1
EndSplineSet
Validated: 1
EndChar

StartChar: dotaccent
Encoding: 729 729 175
Width: 238
GlyphClass: 2
Flags: W
LayerCount: 2
Fore
SplineSet
101 991 m 2,0,-1
 138 991 l 2,1,2
 161 991 161 991 177.5 975 c 128,-1,3
 194 959 194 959 194 937 c 2,4,-1
 194 902 l 2,5,6
 194 879 194 879 177.5 863.5 c 128,-1,7
 161 848 161 848 138 848 c 2,8,-1
 101 848 l 2,9,10
 78 848 78 848 62 864 c 128,-1,11
 46 880 46 880 46 902 c 2,12,-1
 46 937 l 2,13,14
 46 960 46 960 62 975.5 c 128,-1,15
 78 991 78 991 101 991 c 2,0,-1
EndSplineSet
Validated: 1
EndChar

StartChar: ring
Encoding: 730 730 176
Width: 238
GlyphClass: 2
Flags: W
LayerCount: 2
Fore
SplineSet
91 1012 m 2,0,-1
 148 1012 l 2,1,2
 171 1012 171 1012 187.5 996 c 128,-1,3
 204 980 204 980 204 957 c 2,4,-1
 204 902 l 2,5,6
 204 879 204 879 187.5 863.5 c 128,-1,7
 171 848 171 848 148 848 c 2,8,-1
 91 848 l 2,9,10
 68 848 68 848 52 864 c 128,-1,11
 36 880 36 880 36 902 c 2,12,-1
 36 957 l 2,13,14
 36 980 36 980 52 996 c 128,-1,15
 68 1012 68 1012 91 1012 c 2,0,-1
86 889 m 2,16,-1
 154 889 l 2,17,18
 163 889 163 889 163 899 c 2,19,-1
 163 961 l 2,20,21
 163 971 163 971 154 971 c 2,22,-1
 86 971 l 2,23,24
 77 971 77 971 77 961 c 2,25,-1
 77 899 l 2,26,27
 77 889 77 889 86 889 c 2,16,-1
EndSplineSet
Validated: 1
EndChar

StartChar: tilde
Encoding: 732 732 177
Width: 412
GlyphClass: 2
Flags: W
LayerCount: 2
Fore
SplineSet
304 919 m 1,0,1
 344 919 344 919 384 945 c 1,2,-1
 384 869 l 1,3,4
 341 851 341 851 304 851 c 0,5,6
 268 851 268 851 203.5 886 c 128,-1,7
 139 921 139 921 99 921 c 0,8,9
 38 921 38 921 24 897 c 1,10,-1
 24 974 l 1,11,12
 58 988 58 988 99 988 c 0,13,14
 139 988 139 988 204 955.5 c 128,-1,15
 269 923 269 923 304 919 c 1,0,1
EndSplineSet
Validated: 1
EndChar

StartChar: endash
Encoding: 8211 8211 178
Width: 724
GlyphClass: 2
Flags: W
LayerCount: 2
Fore
SplineSet
670 357 m 1,0,-1
 670 247 l 1,1,-1
 55 247 l 1,2,-1
 55 357 l 1,3,-1
 670 357 l 1,0,-1
EndSplineSet
Validated: 1
EndChar

StartChar: emdash
Encoding: 8212 8212 179
Width: 841
GlyphClass: 2
Flags: W
LayerCount: 2
Fore
SplineSet
786 357 m 1,0,-1
 786 247 l 1,1,-1
 55 247 l 1,2,-1
 55 357 l 1,3,-1
 786 357 l 1,0,-1
EndSplineSet
Validated: 1
EndChar

StartChar: quoteleft
Encoding: 8216 8216 180
Width: 198
GlyphClass: 2
Flags: W
LayerCount: 2
Fore
SplineSet
145 496 m 1,0,-1
 35 496 l 1,1,-1
 35 606 l 2,2,3
 35 655 35 655 66.5 692 c 128,-1,4
 98 729 98 729 145 737 c 1,5,-1
 145 496 l 1,0,-1
EndSplineSet
Validated: 1
EndChar

StartChar: quoteright
Encoding: 8217 8217 181
Width: 197
GlyphClass: 2
Flags: W
LayerCount: 2
Fore
SplineSet
55 737 m 1,0,-1
 166 737 l 1,1,-1
 166 627 l 2,2,3
 166 578 166 578 134 541 c 128,-1,4
 102 504 102 504 55 496 c 1,5,-1
 55 737 l 1,0,-1
EndSplineSet
Validated: 1
EndChar

StartChar: quotedblleft
Encoding: 8220 8220 182
Width: 387
GlyphClass: 2
Flags: W
LayerCount: 2
Fore
SplineSet
158 496 m 1,0,-1
 47 496 l 1,1,-1
 47 606 l 2,2,3
 47 655 47 655 79 692 c 128,-1,4
 111 729 111 729 158 737 c 1,5,-1
 158 496 l 1,0,-1
333 496 m 1,6,-1
 222 496 l 1,7,-1
 222 606 l 2,8,9
 222 655 222 655 254 692 c 128,-1,10
 286 729 286 729 333 737 c 1,11,-1
 333 496 l 1,6,-1
EndSplineSet
Validated: 1
EndChar

StartChar: quotedblright
Encoding: 8221 8221 183
Width: 387
GlyphClass: 2
Flags: W
LayerCount: 2
Fore
SplineSet
230 737 m 1,0,-1
 341 737 l 1,1,-1
 341 627 l 2,2,3
 341 578 341 578 309.5 541 c 128,-1,4
 278 504 278 504 230 496 c 1,5,-1
 230 737 l 1,0,-1
55 737 m 1,6,-1
 166 737 l 1,7,-1
 166 627 l 2,8,9
 166 578 166 578 134 541 c 128,-1,10
 102 504 102 504 55 496 c 1,11,-1
 55 737 l 1,6,-1
EndSplineSet
Validated: 1
EndChar

StartChar: bullet
Encoding: 8226 8226 184
Width: 379
GlyphClass: 2
Flags: W
LayerCount: 2
Fore
SplineSet
177 422 m 2,0,-1
 201 422 l 2,1,2
 245 422 245 422 245 379 c 2,3,-1
 245 358 l 2,4,5
 245 315 245 315 201 315 c 2,6,-1
 177 315 l 2,7,8
 134 315 134 315 134 358 c 2,9,-1
 134 379 l 2,10,11
 134 422 134 422 177 422 c 2,0,-1
EndSplineSet
Validated: 1
EndChar

StartChar: ellipsis
Encoding: 8230 8230 185
Width: 587
GlyphClass: 2
Flags: W
LayerCount: 2
Fore
SplineSet
166 111 m 1,0,-1
 166 0 l 1,1,-1
 55 0 l 1,2,-1
 55 111 l 1,3,-1
 166 111 l 1,0,-1
532 111 m 1,4,-1
 532 0 l 1,5,-1
 422 0 l 1,6,-1
 422 111 l 1,7,-1
 532 111 l 1,4,-1
349 111 m 1,8,-1
 349 0 l 1,9,-1
 239 0 l 1,10,-1
 239 111 l 1,11,-1
 349 111 l 1,8,-1
EndSplineSet
Validated: 1
EndChar

StartChar: Euro
Encoding: 8364 8364 186
Width: 818
GlyphClass: 2
Flags: W
LayerCount: 2
Fore
SplineSet
271 111 m 2,0,-1
 771 111 l 1,1,-1
 771 0 l 1,2,-1
 271 0 l 2,3,4
 216 0 216 0 177 39 c 128,-1,5
 138 78 138 78 138 133 c 2,6,-1
 138 223 l 1,7,-1
 36 223 l 1,8,-1
 36 334 l 1,9,-1
 138 334 l 1,10,-1
 138 403 l 1,11,-1
 36 403 l 1,12,-1
 36 514 l 1,13,-1
 138 514 l 1,14,-1
 138 604 l 2,15,16
 138 659 138 659 177 698 c 128,-1,17
 216 737 216 737 271 737 c 2,18,-1
 771 737 l 1,19,-1
 771 627 l 1,20,-1
 271 627 l 2,21,22
 262 627 262 627 255.5 620 c 128,-1,23
 249 613 249 613 249 604 c 2,24,-1
 249 514 l 1,25,-1
 660 514 l 1,26,-1
 660 403 l 1,27,-1
 249 403 l 1,28,-1
 249 334 l 1,29,-1
 660 334 l 1,30,-1
 660 223 l 1,31,-1
 249 223 l 1,32,-1
 249 133 l 2,33,34
 249 124 249 124 255.5 117.5 c 128,-1,35
 262 111 262 111 271 111 c 2,0,-1
EndSplineSet
Validated: 1
EndChar

StartChar: minus
Encoding: 8722 8722 187
Width: 529
GlyphClass: 2
Flags: W
LayerCount: 2
Fore
SplineSet
470 358 m 1,0,-1
 470 248 l 1,1,-1
 60 248 l 1,2,-1
 60 358 l 1,3,-1
 470 358 l 1,0,-1
EndSplineSet
Validated: 1
EndChar

StartChar: seven.alt
Encoding: 57346 57346 189
Width: 789
GlyphClass: 2
Flags: W
LayerCount: 2
Fore
SplineSet
47 737 m 1,0,-1
 653 737 l 1,1,-1
 784 737 l 1,2,-1
 784 722 l 1,3,-1
 178 0 l 1,4,-1
 47 0 l 1,5,-1
 47 15 l 1,6,-1
 560 627 l 1,7,-1
 47 627 l 1,8,-1
 47 737 l 1,0,-1
EndSplineSet
Validated: 1
EndChar

StartChar: nine.alt
Encoding: 57347 57347 190
Width: 802
GlyphClass: 2
Flags: W
LayerCount: 2
Fore
SplineSet
145 735 m 2,0,-1
 616 735 l 2,1,2
 671 735 671 735 710.5 696 c 128,-1,3
 750 657 750 657 750 602 c 2,4,-1
 750 0 l 1,5,-1
 639 0 l 1,6,-1
 639 279 l 2,7,8
 639 288 639 288 632.5 294.5 c 128,-1,9
 626 301 626 301 616 301 c 2,10,-1
 145 301 l 2,11,12
 90 301 90 301 51 340 c 128,-1,13
 12 379 12 379 12 434 c 2,14,-1
 12 602 l 2,15,16
 12 657 12 657 51 696 c 128,-1,17
 90 735 90 735 145 735 c 2,0,-1
447 412 m 1,18,-1
 639 412 l 1,19,-1
 639 602 l 2,20,21
 639 611 639 611 632.5 618 c 128,-1,22
 626 625 626 625 616 625 c 2,23,-1
 145 625 l 2,24,25
 136 625 136 625 129.5 618 c 128,-1,26
 123 611 123 611 123 602 c 2,27,-1
 123 434 l 2,28,29
 123 425 123 425 129.5 418.5 c 128,-1,30
 136 412 136 412 145 412 c 2,31,-1
 447 412 l 1,18,-1
EndSplineSet
Validated: 1
EndChar

StartChar: two.alt
Encoding: 57349 57349 191
Width: 834
GlyphClass: 2
Flags: W
LayerCount: 2
Fore
SplineSet
785 486 m 1,0,-1
 675 429 l 1,1,-1
 161 162 l 1,2,-1
 161 111 l 1,3,-1
 785 111 l 1,4,-1
 785 0 l 1,5,-1
 181 0 l 2,6,7
 134 0 134 0 97.5 29.5 c 128,-1,8
 61 59 61 59 51 104 c 1,9,-1
 50 229 l 1,10,-1
 675 554 l 1,11,-1
 675 627 l 1,12,-1
 183 627 l 2,13,14
 174 627 174 627 167.5 620 c 128,-1,15
 161 613 161 613 161 604 c 2,16,-1
 161 548 l 1,17,-1
 50 548 l 1,18,-1
 50 604 l 2,19,20
 50 659 50 659 89 698 c 128,-1,21
 128 737 128 737 183 737 c 2,22,-1
 654 737 l 2,23,24
 703 737 703 737 740 705.5 c 128,-1,25
 777 674 777 674 785 627 c 1,26,-1
 785 486 l 1,0,-1
EndSplineSet
Validated: 1
EndChar

StartChar: question.alt
Encoding: 57350 57350 192
Width: 683
GlyphClass: 2
Flags: W
LayerCount: 2
Fore
SplineSet
445 393 m 1,0,-1
 438 393 l 1,1,-1
 445 393 l 1,0,-1
159 737 m 2,2,-1
 527 737 l 2,3,4
 582 737 582 737 621 698 c 128,-1,5
 660 659 660 659 660 604 c 2,6,-1
 660 416 l 2,7,8
 660 361 660 361 621.5 322 c 128,-1,9
 583 283 583 283 527 283 c 2,10,-1
 333 283 l 2,11,12
 324 283 324 283 317 276 c 128,-1,13
 310 269 310 269 310 260 c 2,14,-1
 310 155 l 1,15,-1
 200 155 l 1,16,-1
 200 260 l 2,17,18
 200 315 200 315 239 354 c 128,-1,19
 278 393 278 393 333 393 c 2,20,-1
 527 393 l 2,21,22
 536 393 536 393 543 400 c 128,-1,23
 550 407 550 407 550 416 c 2,24,-1
 550 604 l 2,25,26
 550 613 550 613 543.5 620 c 128,-1,27
 537 627 537 627 527 627 c 2,28,-1
 138 627 l 1,29,-1
 138 516 l 1,30,-1
 28 516 l 1,31,-1
 28 627 l 1,32,33
 36 674 36 674 73 705.5 c 128,-1,34
 110 737 110 737 159 737 c 2,2,-1
310 0 m 1,35,-1
 200 0 l 1,36,-1
 200 111 l 1,37,-1
 310 111 l 1,38,-1
 310 0 l 1,35,-1
EndSplineSet
Validated: 1
EndChar

StartChar: four.alt
Encoding: 57351 57351 193
Width: 740
GlyphClass: 2
Flags: W
LayerCount: 2
Fore
SplineSet
607 298 m 1,0,-1
 716 298 l 1,1,-1
 716 187 l 1,2,-1
 607 187 l 1,3,-1
 607 0 l 1,4,-1
 497 0 l 1,5,-1
 497 187 l 1,6,-1
 9 187 l 1,7,-1
 9 298 l 1,8,-1
 384 737 l 1,9,-1
 495 737 l 1,10,-1
 495 686 l 1,11,-1
 143 298 l 1,12,-1
 497 298 l 1,13,-1
 497 451 l 1,14,-1
 607 451 l 1,15,-1
 607 298 l 1,0,-1
EndSplineSet
Validated: 1
EndChar

StartChar: W.alt2
Encoding: 57352 57352 194
Width: 1158
GlyphClass: 2
Flags: W
LayerCount: 2
Fore
SplineSet
0 737 m 1,0,-1
 131 737 l 1,1,-1
 627 147 l 1,2,-1
 627 438 l 1,3,-1
 388 722 l 1,4,-1
 388 737 l 1,5,-1
 519 737 l 1,6,-1
 1015 147 l 1,7,-1
 1015 737 l 1,8,-1
 1125 737 l 1,9,-1
 1125 0 l 1,10,-1
 994 0 l 1,11,-1
 737 306 l 1,12,-1
 737 0 l 1,13,-1
 606 0 l 1,14,-1
 0 722 l 1,15,-1
 0 737 l 1,0,-1
EndSplineSet
Validated: 1
EndChar

StartChar: W.alt
Encoding: 57353 57353 195
Width: 1176
GlyphClass: 2
Flags: W
LayerCount: 2
Fore
SplineSet
1042 737 m 1,0,-1
 1174 737 l 1,1,-1
 1174 722 l 1,2,-1
 567 0 l 1,3,-1
 436 0 l 1,4,-1
 436 306 l 1,5,-1
 179 0 l 1,6,-1
 48 0 l 1,7,-1
 48 737 l 1,8,-1
 159 737 l 1,9,-1
 159 147 l 1,10,-1
 654 737 l 1,11,-1
 785 737 l 1,12,-1
 785 722 l 1,13,-1
 547 438 l 1,14,-1
 547 147 l 1,15,-1
 1042 737 l 1,0,-1
EndSplineSet
Validated: 1
EndChar

StartChar: V.alt
Encoding: 57354 57354 196
Width: 792
GlyphClass: 2
Flags: W
LayerCount: 2
Fore
SplineSet
55 737 m 1,0,-1
 166 737 l 1,1,-1
 166 147 l 1,2,-1
 662 737 l 1,3,-1
 793 737 l 1,4,-1
 793 722 l 1,5,-1
 186 0 l 1,6,-1
 55 0 l 1,7,-1
 55 737 l 1,0,-1
EndSplineSet
Validated: 1
EndChar

StartChar: A.alt
Encoding: 57355 57355 197
Width: 792
GlyphClass: 2
Flags: W
LayerCount: 2
Fore
SplineSet
0 0 m 1,0,-1
 0 15 l 1,1,-1
 606 737 l 1,2,-1
 737 737 l 1,3,-1
 737 0 l 1,4,-1
 627 0 l 1,5,-1
 627 197 l 1,6,-1
 296 197 l 1,7,-1
 131 0 l 1,8,-1
 0 0 l 1,0,-1
627 590 m 1,9,-1
 389 307 l 1,10,-1
 627 307 l 1,11,-1
 627 590 l 1,9,-1
EndSplineSet
Validated: 1
EndChar

StartChar: A.alt2
Encoding: 57356 57356 198
Width: 792
GlyphClass: 2
Flags: W
LayerCount: 2
Fore
SplineSet
55 737 m 1,0,-1
 186 737 l 1,1,-1
 793 15 l 1,2,-1
 793 0 l 1,3,-1
 662 0 l 1,4,-1
 496 197 l 1,5,-1
 166 197 l 1,6,-1
 166 0 l 1,7,-1
 55 0 l 1,8,-1
 55 737 l 1,0,-1
166 590 m 1,9,-1
 166 307 l 1,10,-1
 403 307 l 1,11,-1
 166 590 l 1,9,-1
EndSplineSet
Validated: 1
EndChar

StartChar: A.alt3
Encoding: 65540 -1 200
Width: 846
GlyphClass: 2
Flags: W
LayerCount: 2
Fore
SplineSet
871 0 m 1,0,-1
 744 0 l 1,1,-1
 640 179 l 1,2,-1
 203 179 l 1,3,-1
 99 0 l 1,4,-1
 -29 0 l 1,5,-1
 367 737 l 1,6,-1
 477 737 l 1,7,-1
 871 0 l 1,0,-1
422 611 m 1,8,-1
 266 290 l 1,9,-1
 577 290 l 1,10,-1
 422 611 l 1,8,-1
EndSplineSet
Validated: 1
EndChar

StartChar: C.alt
Encoding: 65541 -1 201
Width: 841
GlyphClass: 2
Flags: W
LayerCount: 2
Fore
SplineSet
792 627 m 1,0,-1
 792 516 l 1,1,-1
 681 516 l 1,2,-1
 681 627 l 1,3,-1
 186 627 l 2,4,5
 177 627 177 627 170.5 620 c 128,-1,6
 164 613 164 613 164 604 c 2,7,-1
 164 133 l 2,8,9
 164 124 164 124 170.5 117.5 c 128,-1,10
 177 111 177 111 186 111 c 2,11,-1
 681 111 l 1,12,-1
 681 221 l 1,13,-1
 788 221 l 1,14,-1
 788 111 l 1,15,16
 780 64 780 64 743.5 32 c 128,-1,17
 707 0 707 0 657 0 c 2,18,-1
 186 0 l 2,19,20
 131 0 131 0 92 39 c 128,-1,21
 53 78 53 78 53 133 c 2,22,-1
 53 604 l 2,23,24
 53 659 53 659 92 698 c 128,-1,25
 131 737 131 737 186 737 c 2,26,-1
 657 737 l 2,27,28
 706 737 706 737 743 705.5 c 128,-1,29
 780 674 780 674 788 627 c 1,30,-1
 792 627 l 1,0,-1
EndSplineSet
Validated: 1
EndChar

StartChar: I.alt
Encoding: 65542 -1 202
Width: 837
GlyphClass: 2
Flags: W
LayerCount: 2
Fore
SplineSet
787 737 m 1,0,-1
 787 627 l 1,1,-1
 474 627 l 1,2,-1
 474 111 l 1,3,-1
 787 111 l 1,4,-1
 787 0 l 1,5,-1
 50 0 l 1,6,-1
 50 111 l 1,7,-1
 364 111 l 1,8,-1
 364 627 l 1,9,-1
 50 627 l 1,10,-1
 50 737 l 1,11,-1
 787 737 l 1,0,-1
EndSplineSet
Validated: 1
EndChar

StartChar: J.alt
Encoding: 65543 -1 203
Width: 660
GlyphClass: 2
Flags: W
LayerCount: 2
Fore
SplineSet
497 133 m 2,0,-1
 497 737 l 1,1,-1
 607 737 l 1,2,-1
 607 133 l 2,3,4
 607 78 607 78 568 39 c 128,-1,5
 529 0 529 0 474 0 c 2,6,-1
 3 0 l 1,7,-1
 3 111 l 1,8,-1
 474 111 l 2,9,10
 483 111 483 111 490 117.5 c 128,-1,11
 497 124 497 124 497 133 c 2,0,-1
EndSplineSet
Validated: 1
EndChar

StartChar: K.alt
Encoding: 65544 -1 204
Width: 848
GlyphClass: 2
Flags: W
LayerCount: 2
Fore
SplineSet
683 443 m 2,0,-1
 683 737 l 1,1,-1
 794 737 l 1,2,-1
 794 464 l 2,3,4
 794 426 794 426 750.5 396 c 128,-1,5
 707 366 707 366 642 366 c 1,6,7
 707 366 707 366 750 336 c 128,-1,8
 793 306 793 306 793 267 c 2,9,-1
 793 0 l 1,10,-1
 682 0 l 1,11,-1
 682 288 l 2,12,13
 682 297 682 297 675.5 303.5 c 128,-1,14
 669 310 669 310 659 310 c 2,15,-1
 188 310 l 2,16,17
 179 310 179 310 172.5 303.5 c 128,-1,18
 166 297 166 297 166 288 c 2,19,-1
 166 0 l 1,20,-1
 55 0 l 1,21,-1
 55 737 l 1,22,-1
 166 737 l 1,23,-1
 166 443 l 2,24,25
 166 434 166 434 172.5 427.5 c 128,-1,26
 179 421 179 421 188 421 c 2,27,-1
 660 421 l 2,28,29
 669 421 669 421 676 427.5 c 128,-1,30
 683 434 683 434 683 443 c 2,0,-1
EndSplineSet
Validated: 1
EndChar

StartChar: M.alt
Encoding: 65545 -1 205
Width: 1182
GlyphClass: 2
Flags: W
LayerCount: 2
Fore
SplineSet
995 737 m 2,0,1
 1050 737 1050 737 1089 698 c 128,-1,2
 1128 659 1128 659 1128 604 c 2,3,-1
 1128 0 l 1,4,-1
 1018 0 l 1,5,-1
 1018 604 l 2,6,7
 1018 613 1018 613 1011.5 620 c 128,-1,8
 1005 627 1005 627 995 627 c 2,9,-1
 635 627 l 1,10,-1
 635 0 l 1,11,-1
 524 0 l 1,12,-1
 524 604 l 2,13,14
 524 613 524 613 517.5 620 c 128,-1,15
 511 627 511 627 502 627 c 2,16,-1
 166 627 l 1,17,-1
 166 0 l 1,18,-1
 55 0 l 1,19,-1
 55 737 l 1,20,-1
 995 737 l 2,0,1
EndSplineSet
Validated: 1
EndChar

StartChar: N.alt
Encoding: 65546 -1 206
Width: 846
GlyphClass: 2
Flags: W
LayerCount: 2
Fore
SplineSet
166 0 m 1,0,-1
 55 0 l 1,1,-1
 55 737 l 1,2,-1
 659 737 l 2,3,4
 714 737 714 737 753.5 698 c 128,-1,5
 793 659 793 659 793 604 c 2,6,-1
 793 0 l 1,7,-1
 682 0 l 1,8,-1
 682 604 l 2,9,10
 682 613 682 613 675.5 620 c 128,-1,11
 669 627 669 627 659 627 c 2,12,-1
 166 627 l 1,13,-1
 166 0 l 1,0,-1
EndSplineSet
Validated: 1
EndChar

StartChar: O.alt
Encoding: 65547 -1 207
Width: 843
GlyphClass: 2
Flags: W
LayerCount: 2
Fore
SplineSet
186 737 m 2,0,-1
 657 737 l 2,1,2
 712 737 712 737 751.5 698 c 128,-1,3
 791 659 791 659 791 604 c 2,4,-1
 791 133 l 2,5,6
 791 78 791 78 752 39 c 128,-1,7
 713 0 713 0 657 0 c 2,8,-1
 186 0 l 2,9,10
 131 0 131 0 92 39 c 128,-1,11
 53 78 53 78 53 133 c 2,12,-1
 53 604 l 2,13,14
 53 659 53 659 92 698 c 128,-1,15
 131 737 131 737 186 737 c 2,0,-1
680 133 m 2,16,-1
 680 604 l 2,17,18
 680 613 680 613 673.5 620 c 128,-1,19
 667 627 667 627 657 627 c 2,20,-1
 186 627 l 2,21,22
 177 627 177 627 170.5 620 c 128,-1,23
 164 613 164 613 164 604 c 2,24,-1
 164 133 l 2,25,26
 164 124 164 124 170.5 117.5 c 128,-1,27
 177 111 177 111 186 111 c 2,28,-1
 657 111 l 2,29,30
 666 111 666 111 673 117.5 c 128,-1,31
 680 124 680 124 680 133 c 2,16,-1
477 313 m 1,32,-1
 367 313 l 1,33,-1
 367 424 l 1,34,-1
 477 424 l 1,35,-1
 477 313 l 1,32,-1
EndSplineSet
Validated: 1
EndChar

StartChar: Q.alt
Encoding: 65548 -1 208
Width: 888
GlyphClass: 2
Flags: W
LayerCount: 2
Fore
SplineSet
659 737 m 2,0,1
 714 737 714 737 753.5 698 c 128,-1,2
 793 659 793 659 793 604 c 2,3,-1
 793 133 l 2,4,5
 793 78 793 78 754 39 c 128,-1,6
 715 0 715 0 659 0 c 2,7,-1
 479 0 l 1,8,-1
 479 -111 l 1,9,-1
 369 -111 l 1,10,-1
 369 0 l 1,11,-1
 188 0 l 2,12,13
 133 0 133 0 94 39 c 128,-1,14
 55 78 55 78 55 133 c 2,15,-1
 55 604 l 2,16,17
 55 659 55 659 94 698 c 128,-1,18
 133 737 133 737 188 737 c 2,19,-1
 659 737 l 2,0,1
682 133 m 2,20,-1
 682 604 l 2,21,22
 682 613 682 613 675.5 620 c 128,-1,23
 669 627 669 627 659 627 c 2,24,-1
 188 627 l 2,25,26
 179 627 179 627 172.5 620 c 128,-1,27
 166 613 166 613 166 604 c 2,28,-1
 166 133 l 2,29,30
 166 124 166 124 172.5 117.5 c 128,-1,31
 179 111 179 111 188 111 c 2,32,-1
 659 111 l 2,33,34
 668 111 668 111 675 117.5 c 128,-1,35
 682 124 682 124 682 133 c 2,20,-1
EndSplineSet
Validated: 1
EndChar

StartChar: R.alt
Encoding: 65549 -1 209
Width: 845
GlyphClass: 2
Flags: W
LayerCount: 2
Fore
SplineSet
793 603 m 2,0,-1
 793 396 l 2,1,2
 793 371 793 371 779 354.5 c 128,-1,3
 765 338 765 338 743.5 331 c 128,-1,4
 722 324 722 324 705 321 c 128,-1,5
 688 318 688 318 672 318 c 1,6,7
 688 318 688 318 705 315.5 c 128,-1,8
 722 313 722 313 744 306 c 128,-1,9
 766 299 766 299 779.5 282 c 128,-1,10
 793 265 793 265 793 241 c 2,11,-1
 793 0 l 1,12,-1
 682 0 l 1,13,-1
 682 241 l 2,14,15
 682 250 682 250 675.5 256.5 c 128,-1,16
 669 263 669 263 659 263 c 2,17,-1
 188 263 l 2,18,19
 179 263 179 263 172.5 256.5 c 128,-1,20
 166 250 166 250 166 241 c 2,21,-1
 166 0 l 1,22,-1
 55 0 l 1,23,-1
 55 737 l 1,24,-1
 659 736 l 2,25,26
 714 736 714 736 753.5 696.5 c 128,-1,27
 793 657 793 657 793 603 c 2,0,-1
659 626 m 2,28,-1
 188 626 l 2,29,30
 179 626 179 626 172.5 619 c 128,-1,31
 166 612 166 612 166 603 c 2,32,-1
 166 396 l 2,33,34
 166 387 166 387 172.5 380.5 c 128,-1,35
 179 374 179 374 188 374 c 2,36,-1
 659 374 l 2,37,38
 668 374 668 374 675 380.5 c 128,-1,39
 682 387 682 387 682 396 c 2,40,-1
 682 603 l 2,41,42
 682 612 682 612 675 619 c 128,-1,43
 668 626 668 626 659 626 c 2,28,-1
EndSplineSet
Validated: 1
EndChar

StartChar: S.alt
Encoding: 65550 -1 210
Width: 831
GlyphClass: 2
Flags: W
LayerCount: 2
Fore
SplineSet
528 424 m 1,0,-1
 651 424 l 2,1,2
 706 424 706 424 745 385 c 128,-1,3
 784 346 784 346 784 291 c 2,4,-1
 784 133 l 2,5,6
 784 78 784 78 745.5 39 c 128,-1,7
 707 0 707 0 651 0 c 2,8,-1
 47 0 l 1,9,-1
 47 111 l 1,10,-1
 651 111 l 2,11,12
 660 111 660 111 667 117.5 c 128,-1,13
 674 124 674 124 674 133 c 2,14,-1
 674 291 l 2,15,16
 674 300 674 300 667 306.5 c 128,-1,17
 660 313 660 313 651 313 c 2,18,-1
 180 313 l 2,19,20
 125 313 125 313 86 352 c 128,-1,21
 47 391 47 391 47 446 c 2,22,-1
 47 604 l 2,23,24
 47 659 47 659 86 698 c 128,-1,25
 125 737 125 737 180 737 c 2,26,-1
 784 737 l 1,27,-1
 784 627 l 1,28,-1
 180 627 l 2,29,30
 171 627 171 627 164.5 620 c 128,-1,31
 158 613 158 613 158 604 c 2,32,-1
 158 446 l 2,33,34
 158 437 158 437 164.5 430.5 c 128,-1,35
 171 424 171 424 180 424 c 2,36,-1
 528 424 l 1,0,-1
EndSplineSet
Validated: 1
EndChar

StartChar: V.alt2
Encoding: 65551 -1 211
Width: 792
GlyphClass: 2
Flags: W
LayerCount: 2
Fore
SplineSet
627 147 m 1,0,-1
 627 737 l 1,1,-1
 737 737 l 1,2,-1
 737 0 l 1,3,-1
 606 0 l 1,4,-1
 0 722 l 1,5,-1
 0 737 l 1,6,-1
 131 737 l 1,7,-1
 627 147 l 1,0,-1
EndSplineSet
Validated: 1
EndChar

StartChar: V.alt3
Encoding: 65552 -1 212
Width: 846
GlyphClass: 2
Flags: W
LayerCount: 2
Fore
SplineSet
681 737 m 1,0,-1
 792 737 l 1,1,-1
 792 0 l 1,2,-1
 187 0 l 2,3,4
 132 0 132 0 93 39 c 128,-1,5
 54 78 54 78 54 133 c 2,6,-1
 54 737 l 1,7,-1
 165 737 l 1,8,-1
 165 133 l 2,9,10
 165 124 165 124 171.5 117.5 c 128,-1,11
 178 111 178 111 187 111 c 2,12,-1
 681 111 l 1,13,-1
 681 737 l 1,0,-1
EndSplineSet
Validated: 1
EndChar

StartChar: W.alt3
Encoding: 65553 -1 213
Width: 1052
GlyphClass: 2
Flags: W
LayerCount: 2
Fore
SplineSet
526 404 m 1,0,-1
 186 0 l 1,1,-1
 55 0 l 1,2,-1
 55 737 l 1,3,-1
 166 737 l 1,4,-1
 166 147 l 1,5,-1
 526 577 l 1,6,-1
 887 147 l 1,7,-1
 887 737 l 1,8,-1
 997 737 l 1,9,-1
 997 0 l 1,10,-1
 866 0 l 1,11,-1
 526 404 l 1,0,-1
EndSplineSet
Validated: 1
EndChar

StartChar: W.alt4
Encoding: 65554 -1 214
Width: 1182
GlyphClass: 2
Flags: W
LayerCount: 2
Fore
SplineSet
187 0 m 2,0,1
 132 0 132 0 93 39 c 128,-1,2
 54 78 54 78 54 133 c 2,3,-1
 54 737 l 1,4,-1
 165 737 l 1,5,-1
 165 133 l 2,6,7
 165 124 165 124 171.5 117.5 c 128,-1,8
 178 111 178 111 187 111 c 2,9,-1
 548 111 l 1,10,-1
 548 737 l 1,11,-1
 658 737 l 1,12,-1
 658 133 l 2,13,14
 658 124 658 124 665 117.5 c 128,-1,15
 672 111 672 111 681 111 c 2,16,-1
 1017 111 l 1,17,-1
 1017 737 l 1,18,-1
 1127 737 l 1,19,-1
 1127 0 l 1,20,-1
 187 0 l 2,0,1
EndSplineSet
Validated: 1
EndChar

StartChar: X.alt
Encoding: 65555 -1 215
Width: 848
GlyphClass: 2
Flags: W
LayerCount: 2
Fore
SplineSet
683 737 m 1,0,-1
 794 737 l 1,1,-1
 794 464 l 2,2,3
 794 421 794 421 748.5 393.5 c 128,-1,4
 703 366 703 366 642 366 c 1,5,6
 703 366 703 366 748 338 c 128,-1,7
 793 310 793 310 793 267 c 2,8,-1
 793 0 l 1,9,-1
 682 0 l 1,10,-1
 682 288 l 2,11,12
 682 297 682 297 675.5 303.5 c 128,-1,13
 669 310 669 310 659 310 c 2,14,-1
 189 310 l 2,15,16
 180 310 180 310 173.5 303.5 c 128,-1,17
 167 297 167 297 167 288 c 2,18,-1
 167 0 l 1,19,-1
 56 0 l 1,20,-1
 56 267 l 2,21,22
 56 310 56 310 100.5 338 c 128,-1,23
 145 366 145 366 207 366 c 1,24,25
 145 366 145 366 100 393.5 c 128,-1,26
 55 421 55 421 55 464 c 2,27,-1
 55 737 l 1,28,-1
 166 737 l 1,29,-1
 166 443 l 2,30,31
 166 434 166 434 172.5 427.5 c 128,-1,32
 179 421 179 421 188 421 c 2,33,-1
 660 421 l 2,34,35
 669 421 669 421 676 427.5 c 128,-1,36
 683 434 683 434 683 443 c 2,37,-1
 683 737 l 1,0,-1
EndSplineSet
Validated: 1
EndChar

StartChar: Y.alt
Encoding: 65556 -1 216
Width: 843
GlyphClass: 2
Flags: W
LayerCount: 2
Fore
SplineSet
679 737 m 1,0,-1
 790 737 l 1,1,-1
 790 133 l 2,2,3
 790 78 790 78 751 39 c 128,-1,4
 712 0 712 0 656 0 c 2,5,-1
 52 0 l 1,6,-1
 52 111 l 1,7,-1
 656 111 l 2,8,9
 665 111 665 111 672 117.5 c 128,-1,10
 679 124 679 124 679 133 c 2,11,-1
 679 291 l 2,12,13
 679 300 679 300 672.5 306.5 c 128,-1,14
 666 313 666 313 656 313 c 2,15,-1
 185 313 l 2,16,17
 130 313 130 313 91 352 c 128,-1,18
 52 391 52 391 52 446 c 2,19,-1
 52 737 l 1,20,-1
 163 737 l 1,21,-1
 163 446 l 2,22,23
 163 437 163 437 169.5 430.5 c 128,-1,24
 176 424 176 424 185 424 c 2,25,-1
 679 424 l 1,26,-1
 679 737 l 1,0,-1
EndSplineSet
Validated: 1
EndChar

StartChar: Z.alt
Encoding: 65557 -1 217
Width: 837
GlyphClass: 2
Flags: W
LayerCount: 2
Fore
SplineSet
183 424 m 2,0,-1
 306 424 l 1,1,-1
 654 424 l 2,2,3
 663 424 663 424 670 430.5 c 128,-1,4
 677 437 677 437 677 446 c 2,5,-1
 677 604 l 2,6,7
 677 613 677 613 670.5 620 c 128,-1,8
 664 627 664 627 654 627 c 2,9,-1
 50 627 l 1,10,-1
 50 737 l 1,11,-1
 654 737 l 2,12,13
 709 737 709 737 748 698 c 128,-1,14
 787 659 787 659 787 604 c 2,15,-1
 787 446 l 2,16,17
 787 391 787 391 748.5 352 c 128,-1,18
 710 313 710 313 654 313 c 2,19,-1
 183 313 l 2,20,21
 174 313 174 313 167.5 306.5 c 128,-1,22
 161 300 161 300 161 291 c 2,23,-1
 161 133 l 2,24,25
 161 124 161 124 167.5 117.5 c 128,-1,26
 174 111 174 111 183 111 c 2,27,-1
 787 111 l 1,28,-1
 787 0 l 1,29,-1
 183 0 l 2,30,31
 128 0 128 0 89 39 c 128,-1,32
 50 78 50 78 50 133 c 2,33,-1
 50 291 l 2,34,35
 50 346 50 346 89 385 c 128,-1,36
 128 424 128 424 183 424 c 2,0,-1
EndSplineSet
Validated: 1
EndChar

StartChar: a.alt
Encoding: 65558 -1 218
Width: 709
GlyphClass: 2
Flags: W
LayerCount: 2
Fore
SplineSet
523 594 m 2,0,1
 578 594 578 594 617 555 c 128,-1,2
 656 516 656 516 656 461 c 2,3,-1
 656 0 l 1,4,-1
 185 0 l 2,5,6
 130 0 130 0 91 39 c 128,-1,7
 52 78 52 78 52 133 c 2,8,-1
 52 461 l 2,9,10
 52 516 52 516 91 555 c 128,-1,11
 130 594 130 594 185 594 c 2,12,-1
 523 594 l 2,0,1
185 111 m 2,13,-1
 546 111 l 1,14,-1
 546 461 l 2,15,16
 546 470 546 470 539 476.5 c 128,-1,17
 532 483 532 483 523 483 c 2,18,-1
 185 483 l 2,19,20
 176 483 176 483 169.5 476.5 c 128,-1,21
 163 470 163 470 163 461 c 2,22,-1
 163 133 l 2,23,24
 163 124 163 124 169.5 117.5 c 128,-1,25
 176 111 176 111 185 111 c 2,13,-1
EndSplineSet
Validated: 1
EndChar

StartChar: a.sc
Encoding: 65559 -1 219
Width: 742
GlyphClass: 2
Flags: W
LayerCount: 2
Fore
SplineSet
187 594 m 2,0,-1
 556 594 l 2,1,2
 611 594 611 594 650 555 c 128,-1,3
 689 516 689 516 689 461 c 2,4,-1
 689 0 l 1,5,-1
 579 0 l 1,6,-1
 579 156 l 1,7,-1
 165 156 l 1,8,-1
 165 0 l 1,9,-1
 54 0 l 1,10,-1
 54 461 l 2,11,12
 54 516 54 516 93 555 c 128,-1,13
 132 594 132 594 187 594 c 2,0,-1
165 266 m 1,14,-1
 579 266 l 1,15,-1
 579 461 l 2,16,17
 579 470 579 470 572 476.5 c 128,-1,18
 565 483 565 483 556 483 c 2,19,-1
 187 483 l 2,20,21
 178 483 178 483 171.5 476.5 c 128,-1,22
 165 470 165 470 165 461 c 2,23,-1
 165 266 l 1,14,-1
EndSplineSet
Validated: 1
EndChar

StartChar: b.sc
Encoding: 65560 -1 220
Width: 716
GlyphClass: 2
Flags: W
LayerCount: 2
Fore
SplineSet
626 314 m 1,0,1
 670 275 670 275 670 216 c 2,2,-1
 670 133 l 2,3,4
 670 78 670 78 631 39 c 128,-1,5
 592 0 592 0 537 0 c 2,6,-1
 55 0 l 1,7,-1
 55 595 l 1,8,-1
 506 595 l 2,9,10
 561 595 561 595 600 556 c 128,-1,11
 639 517 639 517 639 462 c 2,12,-1
 639 372 l 2,13,14
 639 343 639 343 626 314 c 1,0,1
506 484 m 2,15,-1
 188 484 l 2,16,17
 179 484 179 484 172.5 477.5 c 128,-1,18
 166 471 166 471 166 462 c 2,19,-1
 166 372 l 2,20,21
 166 363 166 363 172.5 356 c 128,-1,22
 179 349 179 349 188 349 c 2,23,-1
 506 349 l 2,24,25
 515 349 515 349 521.5 355.5 c 128,-1,26
 528 362 528 362 528 372 c 2,27,-1
 528 462 l 2,28,29
 528 471 528 471 521.5 477.5 c 128,-1,30
 515 484 515 484 506 484 c 2,15,-1
559 133 m 2,31,-1
 559 216 l 2,32,33
 559 225 559 225 552.5 232 c 128,-1,34
 546 239 546 239 537 239 c 2,35,-1
 188 239 l 2,36,37
 179 239 179 239 172.5 232 c 128,-1,38
 166 225 166 225 166 216 c 2,39,-1
 166 133 l 2,40,41
 166 124 166 124 172.5 117.5 c 128,-1,42
 179 111 179 111 188 111 c 2,43,-1
 537 111 l 2,44,45
 546 111 546 111 552.5 117.5 c 128,-1,46
 559 124 559 124 559 133 c 2,31,-1
EndSplineSet
Validated: 1
EndChar

StartChar: c.sc
Encoding: 65561 -1 221
Width: 709
GlyphClass: 2
Flags: W
LayerCount: 2
Fore
SplineSet
654 484 m 1,0,-1
 185 484 l 2,1,2
 176 484 176 484 169.5 477.5 c 128,-1,3
 163 471 163 471 163 462 c 2,4,-1
 163 133 l 2,5,6
 163 124 163 124 169.5 117.5 c 128,-1,7
 176 111 176 111 185 111 c 2,8,-1
 654 111 l 1,9,-1
 654 0 l 1,10,-1
 185 0 l 2,11,12
 130 0 130 0 91 39 c 128,-1,13
 52 78 52 78 52 133 c 2,14,-1
 52 462 l 2,15,16
 52 517 52 517 91 556 c 128,-1,17
 130 595 130 595 185 595 c 2,18,-1
 654 595 l 1,19,-1
 654 484 l 1,0,-1
EndSplineSet
Validated: 1
EndChar

StartChar: d.sc
Encoding: 65562 -1 222
Width: 721
GlyphClass: 2
Flags: W
LayerCount: 2
Fore
SplineSet
55 595 m 1,0,-1
 537 595 l 2,1,2
 592 595 592 595 631 556 c 128,-1,3
 670 517 670 517 670 462 c 2,4,-1
 670 133 l 2,5,6
 670 78 670 78 631 39 c 128,-1,7
 592 0 592 0 537 0 c 2,8,-1
 55 0 l 1,9,-1
 55 595 l 1,0,-1
559 133 m 2,10,-1
 559 462 l 2,11,12
 559 471 559 471 552.5 477.5 c 128,-1,13
 546 484 546 484 537 484 c 2,14,-1
 188 484 l 2,15,16
 179 484 179 484 172.5 477.5 c 128,-1,17
 166 471 166 471 166 462 c 2,18,-1
 166 133 l 2,19,20
 166 124 166 124 172.5 117.5 c 128,-1,21
 179 111 179 111 188 111 c 2,22,-1
 537 111 l 2,23,24
 546 111 546 111 552.5 117.5 c 128,-1,25
 559 124 559 124 559 133 c 2,10,-1
EndSplineSet
Validated: 1
EndChar

StartChar: e.sc
Encoding: 65563 -1 223
Width: 653
GlyphClass: 2
Flags: W
LayerCount: 2
Fore
SplineSet
598 595 m 1,0,-1
 598 484 l 1,1,-1
 166 484 l 1,2,-1
 166 352 l 1,3,-1
 487 352 l 1,4,-1
 487 242 l 1,5,-1
 166 242 l 1,6,-1
 166 111 l 1,7,-1
 598 111 l 1,8,-1
 598 0 l 1,9,-1
 55 0 l 1,10,-1
 55 595 l 1,11,-1
 598 595 l 1,0,-1
EndSplineSet
Validated: 1
EndChar

StartChar: f.sc
Encoding: 65564 -1 224
Width: 605
GlyphClass: 2
Flags: W
LayerCount: 2
Fore
SplineSet
55 595 m 1,0,-1
 598 595 l 1,1,-1
 598 484 l 1,2,-1
 166 484 l 1,3,-1
 166 352 l 1,4,-1
 487 352 l 1,5,-1
 487 242 l 1,6,-1
 166 242 l 1,7,-1
 166 0 l 1,8,-1
 55 0 l 1,9,-1
 55 595 l 1,0,-1
EndSplineSet
Validated: 1
EndChar

StartChar: g.sc
Encoding: 65565 -1 225
Width: 706
GlyphClass: 2
Flags: W
LayerCount: 2
Fore
SplineSet
656 462 m 2,0,-1
 656 433 l 1,1,-1
 546 433 l 1,2,-1
 546 462 l 2,3,4
 546 471 546 471 539 477.5 c 128,-1,5
 532 484 532 484 523 484 c 2,6,-1
 185 484 l 2,7,8
 176 484 176 484 169.5 477.5 c 128,-1,9
 163 471 163 471 163 462 c 2,10,-1
 163 133 l 2,11,12
 163 124 163 124 169.5 117.5 c 128,-1,13
 176 111 176 111 185 111 c 2,14,-1
 523 111 l 2,15,16
 532 111 532 111 539 117.5 c 128,-1,17
 546 124 546 124 546 133 c 2,18,-1
 546 211 l 1,19,-1
 372 211 l 1,20,-1
 372 322 l 1,21,-1
 656 322 l 1,22,-1
 656 133 l 2,23,24
 656 78 656 78 617.5 39 c 128,-1,25
 579 0 579 0 523 0 c 2,26,-1
 185 0 l 2,27,28
 130 0 130 0 91 39 c 128,-1,29
 52 78 52 78 52 133 c 2,30,-1
 52 462 l 2,31,32
 52 517 52 517 91 556 c 128,-1,33
 130 595 130 595 185 595 c 2,34,-1
 523 595 l 2,35,36
 578 595 578 595 617 556 c 128,-1,37
 656 517 656 517 656 462 c 2,0,-1
EndSplineSet
Validated: 1
EndChar

StartChar: h.sc
Encoding: 65566 -1 226
Width: 732
GlyphClass: 2
Flags: W
LayerCount: 2
Fore
SplineSet
566 594 m 1,0,-1
 677 594 l 1,1,-1
 677 0 l 1,2,-1
 566 0 l 1,3,-1
 566 242 l 1,4,-1
 166 242 l 1,5,-1
 166 0 l 1,6,-1
 55 0 l 1,7,-1
 55 594 l 1,8,-1
 166 594 l 1,9,-1
 166 352 l 1,10,-1
 566 352 l 1,11,-1
 566 594 l 1,0,-1
EndSplineSet
Validated: 1
EndChar

StartChar: i.sc
Encoding: 65567 -1 227
Width: 219
GlyphClass: 2
Flags: W
LayerCount: 2
Fore
SplineSet
55 0 m 1,0,-1
 55 594 l 1,1,-1
 166 594 l 1,2,-1
 166 0 l 1,3,-1
 55 0 l 1,0,-1
EndSplineSet
Validated: 1
EndChar

StartChar: j.sc
Encoding: 65568 -1 228
Width: 672
GlyphClass: 2
Flags: W
LayerCount: 2
Fore
SplineSet
509 133 m 2,0,-1
 509 594 l 1,1,-1
 620 594 l 1,2,-1
 620 133 l 2,3,4
 620 78 620 78 581 39 c 128,-1,5
 542 0 542 0 486 0 c 2,6,-1
 138 0 l 2,7,8
 83 0 83 0 44 39 c 128,-1,9
 5 78 5 78 5 133 c 2,10,-1
 5 195 l 1,11,-1
 116 195 l 1,12,-1
 116 133 l 2,13,14
 116 124 116 124 122.5 117.5 c 128,-1,15
 129 111 129 111 138 111 c 2,16,-1
 486 111 l 2,17,18
 495 111 495 111 502 117.5 c 128,-1,19
 509 124 509 124 509 133 c 2,0,-1
EndSplineSet
Validated: 1
EndChar

StartChar: k.alt
Encoding: 65569 -1 229
Width: 685
GlyphClass: 2
Flags: W
LayerCount: 2
Fore
SplineSet
659 594 m 1,0,-1
 659 375 l 2,1,2
 659 332 659 332 635 297 c 1,3,4
 659 263 659 263 659 222 c 0,5,6
 659 221 659 221 659 219 c 2,7,-1
 659 0 l 1,8,-1
 549 0 l 1,9,-1
 549 219 l 2,10,11
 549 228 549 228 542.5 235 c 128,-1,12
 536 242 536 242 526 242 c 2,13,-1
 166 242 l 1,14,-1
 166 0 l 1,15,-1
 55 0 l 1,16,-1
 55 788 l 1,17,-1
 166 788 l 1,18,-1
 166 352 l 1,19,-1
 526 352 l 2,20,21
 535 352 535 352 542 359 c 128,-1,22
 549 366 549 366 549 375 c 2,23,-1
 549 594 l 1,24,-1
 659 594 l 1,0,-1
EndSplineSet
Validated: 1
EndChar

StartChar: k.sc
Encoding: 65570 -1 230
Width: 698
GlyphClass: 2
Flags: W
LayerCount: 2
Fore
SplineSet
521 594 m 1,0,-1
 652 594 l 1,1,-1
 652 579 l 1,2,-1
 397 297 l 1,3,-1
 652 15 l 1,4,-1
 652 0 l 1,5,-1
 521 0 l 1,6,-1
 299 242 l 1,7,-1
 166 242 l 1,8,-1
 166 0 l 1,9,-1
 55 0 l 1,10,-1
 55 594 l 1,11,-1
 166 594 l 1,12,-1
 166 352 l 1,13,-1
 299 352 l 1,14,-1
 521 594 l 1,0,-1
EndSplineSet
Validated: 1
EndChar

StartChar: l.sc
Encoding: 65571 -1 231
Width: 674
GlyphClass: 2
Flags: W
LayerCount: 2
Fore
SplineSet
55 0 m 1,0,-1
 55 594 l 1,1,-1
 166 594 l 1,2,-1
 166 111 l 1,3,-1
 670 111 l 1,4,-1
 670 0 l 1,5,-1
 55 0 l 1,0,-1
EndSplineSet
Validated: 1
EndChar

StartChar: m.sc
Encoding: 65572 -1 232
Width: 843
GlyphClass: 2
Flags: W
LayerCount: 2
Fore
SplineSet
422 258 m 1,0,-1
 656 595 l 1,1,-1
 788 595 l 1,2,-1
 788 0 l 1,3,-1
 678 0 l 1,4,-1
 678 457 l 1,5,-1
 422 91 l 1,6,-1
 166 457 l 1,7,-1
 166 0 l 1,8,-1
 55 0 l 1,9,-1
 55 595 l 1,10,-1
 186 595 l 1,11,-1
 422 258 l 1,0,-1
EndSplineSet
Validated: 1
EndChar

StartChar: n.sc
Encoding: 65573 -1 233
Width: 724
GlyphClass: 2
Flags: W
LayerCount: 2
Fore
SplineSet
559 147 m 1,0,-1
 559 594 l 1,1,-1
 670 594 l 1,2,-1
 670 0 l 1,3,-1
 539 0 l 1,4,-1
 166 447 l 1,5,-1
 166 0 l 1,6,-1
 55 0 l 1,7,-1
 55 594 l 1,8,-1
 186 594 l 1,9,-1
 559 147 l 1,0,-1
EndSplineSet
Validated: 1
EndChar

StartChar: o.sc
Encoding: 65574 -1 234
Width: 708
GlyphClass: 2
Flags: W
LayerCount: 2
Fore
SplineSet
185 594 m 2,0,-1
 523 594 l 2,1,2
 578 594 578 594 617 555 c 128,-1,3
 656 516 656 516 656 461 c 2,4,-1
 656 133 l 2,5,6
 656 78 656 78 617.5 39 c 128,-1,7
 579 0 579 0 523 0 c 2,8,-1
 185 0 l 2,9,10
 130 0 130 0 91 39 c 128,-1,11
 52 78 52 78 52 133 c 2,12,-1
 52 461 l 2,13,14
 52 516 52 516 91 555 c 128,-1,15
 130 594 130 594 185 594 c 2,0,-1
185 111 m 2,16,-1
 523 111 l 2,17,18
 532 111 532 111 539 117.5 c 128,-1,19
 546 124 546 124 546 133 c 2,20,-1
 546 461 l 2,21,22
 546 470 546 470 539 476.5 c 128,-1,23
 532 483 532 483 523 483 c 2,24,-1
 185 483 l 2,25,26
 176 483 176 483 169.5 476.5 c 128,-1,27
 163 470 163 470 163 461 c 2,28,-1
 163 133 l 2,29,30
 163 124 163 124 169.5 117.5 c 128,-1,31
 176 111 176 111 185 111 c 2,16,-1
EndSplineSet
Validated: 1
EndChar

StartChar: p.sc
Encoding: 65575 -1 235
Width: 675
GlyphClass: 2
Flags: W
LayerCount: 2
Fore
SplineSet
55 594 m 1,0,-1
 526 594 l 2,1,2
 581 594 581 594 620 554.5 c 128,-1,3
 659 515 659 515 659 461 c 2,4,-1
 659 335 l 2,5,6
 659 281 659 281 620.5 241.5 c 128,-1,7
 582 202 582 202 526 202 c 2,8,-1
 188 202 l 2,9,10
 180 202 180 202 166 204 c 1,11,-1
 166 0 l 1,12,-1
 55 0 l 1,13,-1
 55 594 l 1,0,-1
549 335 m 2,14,-1
 549 461 l 2,15,16
 549 470 549 470 542.5 476.5 c 128,-1,17
 536 483 536 483 526 483 c 2,18,-1
 188 483 l 2,19,20
 179 483 179 483 172.5 476.5 c 128,-1,21
 166 470 166 470 166 461 c 2,22,-1
 166 335 l 2,23,24
 166 326 166 326 172.5 319 c 128,-1,25
 179 312 179 312 188 312 c 2,26,-1
 526 312 l 2,27,28
 535 312 535 312 542 319 c 128,-1,29
 549 326 549 326 549 335 c 2,14,-1
EndSplineSet
Validated: 1
EndChar

StartChar: q.sc
Encoding: 65576 -1 236
Width: 788
GlyphClass: 2
Flags: W
LayerCount: 2
Fore
SplineSet
655 111 m 1,0,-1
 750 111 l 1,1,-1
 750 0 l 1,2,-1
 186 0 l 2,3,4
 131 0 131 0 92 39 c 128,-1,5
 53 78 53 78 53 133 c 2,6,-1
 53 461 l 2,7,8
 53 516 53 516 92 555 c 128,-1,9
 131 594 131 594 186 594 c 2,10,-1
 524 594 l 2,11,12
 579 594 579 594 618 555 c 128,-1,13
 657 516 657 516 657 461 c 2,14,-1
 657 133 l 2,15,16
 657 125 657 125 655 111 c 1,0,-1
186 111 m 2,17,-1
 524 111 l 2,18,19
 533 111 533 111 540 117.5 c 128,-1,20
 547 124 547 124 547 133 c 2,21,-1
 547 461 l 2,22,23
 547 470 547 470 540.5 476.5 c 128,-1,24
 534 483 534 483 524 483 c 2,25,-1
 186 483 l 2,26,27
 177 483 177 483 170.5 476.5 c 128,-1,28
 164 470 164 470 164 461 c 2,29,-1
 164 133 l 2,30,31
 164 124 164 124 170.5 117.5 c 128,-1,32
 177 111 177 111 186 111 c 2,17,-1
EndSplineSet
Validated: 1
EndChar

StartChar: r.sc
Encoding: 65577 -1 237
Width: 716
GlyphClass: 2
Flags: W
LayerCount: 2
Fore
SplineSet
659 461 m 2,0,-1
 659 335 l 2,1,2
 659 281 659 281 620.5 241.5 c 128,-1,3
 582 202 582 202 526 202 c 2,4,-1
 462 202 l 1,5,-1
 670 15 l 1,6,-1
 670 0 l 1,7,-1
 539 0 l 1,8,-1
 317 202 l 1,9,-1
 166 202 l 1,10,-1
 166 0 l 1,11,-1
 55 0 l 1,12,-1
 55 594 l 1,13,-1
 526 594 l 2,14,15
 581 594 581 594 620 554.5 c 128,-1,16
 659 515 659 515 659 461 c 2,0,-1
188 312 m 2,17,-1
 526 312 l 2,18,19
 535 312 535 312 542 319 c 128,-1,20
 549 326 549 326 549 335 c 2,21,-1
 549 461 l 2,22,23
 549 470 549 470 542.5 476.5 c 128,-1,24
 536 483 536 483 526 483 c 2,25,-1
 188 483 l 2,26,27
 179 483 179 483 172.5 476.5 c 128,-1,28
 166 470 166 470 166 461 c 2,29,-1
 166 335 l 2,30,31
 166 326 166 326 172.5 319 c 128,-1,32
 179 312 179 312 188 312 c 2,17,-1
EndSplineSet
Validated: 1
EndChar

StartChar: s.sc
Encoding: 65578 -1 238
Width: 703
GlyphClass: 2
Flags: W
LayerCount: 2
Fore
SplineSet
654 461 m 2,0,-1
 654 428 l 1,1,-1
 544 428 l 1,2,-1
 544 461 l 2,3,4
 544 470 544 470 537 476.5 c 128,-1,5
 530 483 530 483 521 483 c 2,6,-1
 183 483 l 2,7,8
 174 483 174 483 167.5 476.5 c 128,-1,9
 161 470 161 470 161 461 c 2,10,-1
 161 375 l 2,11,12
 161 366 161 366 167.5 359 c 128,-1,13
 174 352 174 352 183 352 c 2,14,-1
 521 352 l 2,15,16
 576 352 576 352 615 313 c 128,-1,17
 654 274 654 274 654 219 c 2,18,-1
 654 133 l 2,19,20
 654 78 654 78 615.5 39 c 128,-1,21
 577 0 577 0 521 0 c 2,22,-1
 183 0 l 2,23,24
 128 0 128 0 89 39 c 128,-1,25
 50 78 50 78 50 133 c 2,26,-1
 50 166 l 1,27,-1
 161 166 l 1,28,-1
 161 133 l 2,29,30
 161 124 161 124 167.5 117.5 c 128,-1,31
 174 111 174 111 183 111 c 2,32,-1
 521 111 l 2,33,34
 530 111 530 111 537 117.5 c 128,-1,35
 544 124 544 124 544 133 c 2,36,-1
 544 219 l 2,37,38
 544 228 544 228 537 235 c 128,-1,39
 530 242 530 242 521 242 c 2,40,-1
 183 242 l 2,41,42
 128 242 128 242 89 280.5 c 128,-1,43
 50 319 50 319 50 375 c 2,44,-1
 50 461 l 2,45,46
 50 516 50 516 89 555 c 128,-1,47
 128 594 128 594 183 594 c 2,48,-1
 521 594 l 2,49,50
 576 594 576 594 615 555 c 128,-1,51
 654 516 654 516 654 461 c 2,0,-1
EndSplineSet
Validated: 1
EndChar

StartChar: t.sc
Encoding: 65579 -1 239
Width: 659
GlyphClass: 2
Flags: W
LayerCount: 2
Fore
SplineSet
23 594 m 1,0,-1
 637 594 l 1,1,-1
 637 483 l 1,2,-1
 385 483 l 1,3,-1
 385 0 l 1,4,-1
 274 0 l 1,5,-1
 274 483 l 1,6,-1
 23 483 l 1,7,-1
 23 594 l 1,0,-1
EndSplineSet
Validated: 1
EndChar

StartChar: u.sc
Encoding: 65580 -1 240
Width: 711
GlyphClass: 2
Flags: W
LayerCount: 2
Fore
SplineSet
548 133 m 2,0,-1
 548 594 l 1,1,-1
 658 594 l 1,2,-1
 658 133 l 2,3,4
 658 78 658 78 619.5 39 c 128,-1,5
 581 0 581 0 525 0 c 2,6,-1
 187 0 l 2,7,8
 132 0 132 0 93 39 c 128,-1,9
 54 78 54 78 54 133 c 2,10,-1
 54 594 l 1,11,-1
 165 594 l 1,12,-1
 165 133 l 2,13,14
 165 124 165 124 171.5 117.5 c 128,-1,15
 178 111 178 111 187 111 c 2,16,-1
 525 111 l 2,17,18
 534 111 534 111 541 117.5 c 128,-1,19
 548 124 548 124 548 133 c 2,0,-1
EndSplineSet
Validated: 1
EndChar

StartChar: v.alt
Encoding: 65581 -1 241
Width: 713
GlyphClass: 2
Flags: W
LayerCount: 2
Fore
SplineSet
548 594 m 1,0,-1
 658 594 l 1,1,-1
 658 0 l 1,2,-1
 187 0 l 2,3,4
 132 0 132 0 93 39 c 128,-1,5
 54 78 54 78 54 133 c 2,6,-1
 54 594 l 1,7,-1
 165 594 l 1,8,-1
 165 133 l 2,9,10
 165 124 165 124 171.5 117.5 c 128,-1,11
 178 111 178 111 187 111 c 2,12,-1
 548 111 l 1,13,-1
 548 594 l 1,0,-1
EndSplineSet
Validated: 1
EndChar

StartChar: v.sc
Encoding: 65582 -1 242
Width: 820
GlyphClass: 2
Flags: W
LayerCount: 2
Fore
SplineSet
411 125 m 1,0,-1
 672 594 l 1,1,-1
 799 594 l 1,2,-1
 466 0 l 1,3,-1
 355 0 l 1,4,-1
 22 594 l 1,5,-1
 150 594 l 1,6,-1
 411 125 l 1,0,-1
EndSplineSet
Validated: 1
EndChar

StartChar: w.alt
Encoding: 65583 -1 243
Width: 1001
GlyphClass: 2
Flags: W
LayerCount: 2
Fore
SplineSet
187 0 m 2,0,1
 132 0 132 0 93 39 c 128,-1,2
 54 78 54 78 54 133 c 2,3,-1
 54 594 l 1,4,-1
 164 594 l 1,5,-1
 164 133 l 2,6,7
 164 124 164 124 170.5 117.5 c 128,-1,8
 177 111 177 111 187 111 c 2,9,-1
 422 111 l 2,10,11
 431 111 431 111 437.5 117.5 c 128,-1,12
 444 124 444 124 444 133 c 2,13,-1
 444 594 l 1,14,-1
 555 594 l 1,15,-1
 555 133 l 2,16,17
 555 124 555 124 561.5 117.5 c 128,-1,18
 568 111 568 111 578 111 c 2,19,-1
 813 111 l 2,20,21
 822 111 822 111 829 117.5 c 128,-1,22
 836 124 836 124 836 133 c 2,23,-1
 836 594 l 1,24,-1
 946 594 l 1,25,-1
 946 0 l 1,26,-1
 187 0 l 2,0,1
EndSplineSet
Validated: 1
EndChar

StartChar: w.sc
Encoding: 65584 -1 244
Width: 1103
GlyphClass: 2
Flags: W
LayerCount: 2
Fore
SplineSet
950 594 m 1,0,-1
 1068 594 l 1,1,-1
 841 0 l 1,2,-1
 751 0 l 1,3,-1
 551 431 l 1,4,-1
 362 0 l 1,5,-1
 360 1 l 1,6,-1
 361 0 l 1,7,-1
 272 0 l 1,8,-1
 35 594 l 1,9,-1
 153 594 l 1,10,-1
 317 200 l 1,11,-1
 493 594 l 1,12,-1
 610 594 l 1,13,-1
 796 200 l 1,14,-1
 950 594 l 1,0,-1
EndSplineSet
Validated: 1
EndChar

StartChar: x.alt
Encoding: 65585 -1 245
Width: 714
GlyphClass: 2
Flags: W
LayerCount: 2
Fore
SplineSet
659 594 m 1,0,-1
 659 375 l 2,1,2
 659 332 659 332 635 297 c 1,3,4
 659 263 659 263 659 222 c 0,5,6
 659 221 659 221 659 219 c 2,7,-1
 659 0 l 1,8,-1
 549 0 l 1,9,-1
 549 219 l 2,10,11
 549 228 549 228 542.5 235 c 128,-1,12
 536 242 536 242 526 242 c 2,13,-1
 188 242 l 2,14,15
 179 242 179 242 172.5 235 c 128,-1,16
 166 228 166 228 166 219 c 2,17,-1
 166 0 l 1,18,-1
 55 0 l 1,19,-1
 55 219 l 2,20,21
 55 262 55 262 80 297 c 1,22,23
 55 332 55 332 55 375 c 2,24,-1
 55 594 l 1,25,-1
 166 594 l 1,26,-1
 166 375 l 2,27,28
 166 366 166 366 172.5 359 c 128,-1,29
 179 352 179 352 188 352 c 2,30,-1
 526 352 l 2,31,32
 535 352 535 352 542 359 c 128,-1,33
 549 366 549 366 549 375 c 2,34,-1
 549 594 l 1,35,-1
 659 594 l 1,0,-1
EndSplineSet
Validated: 1
EndChar

StartChar: x.sc
Encoding: 65586 -1 246
Width: 708
GlyphClass: 2
Flags: W
LayerCount: 2
Fore
SplineSet
530 594 m 1,0,-1
 662 594 l 1,1,-1
 662 579 l 1,2,-1
 426 303 l 1,3,-1
 662 15 l 1,4,-1
 662 0 l 1,5,-1
 530 0 l 1,6,-1
 354 217 l 1,7,-1
 178 0 l 1,8,-1
 47 0 l 1,9,-1
 47 15 l 1,10,-1
 282 303 l 1,11,-1
 47 579 l 1,12,-1
 47 594 l 1,13,-1
 178 594 l 1,14,-1
 354 389 l 1,15,-1
 530 594 l 1,0,-1
EndSplineSet
Validated: 1
EndChar

StartChar: y.sc
Encoding: 65587 -1 247
Width: 704
GlyphClass: 2
Flags: W
LayerCount: 2
Fore
SplineSet
555 594 m 1,0,-1
 686 594 l 1,1,-1
 408 205 l 1,2,-1
 408 0 l 1,3,-1
 297 0 l 1,4,-1
 297 205 l 1,5,-1
 18 594 l 1,6,-1
 148 594 l 1,7,-1
 352 330 l 1,8,-1
 555 594 l 1,0,-1
EndSplineSet
Validated: 1
EndChar

StartChar: z.alt
Encoding: 65588 -1 248
Width: 708
GlyphClass: 2
Flags: W
LayerCount: 2
Fore
SplineSet
185 242 m 2,0,1
 176 242 176 242 169.5 235 c 128,-1,2
 163 228 163 228 163 219 c 2,3,-1
 163 133 l 2,4,5
 163 124 163 124 169.5 117.5 c 128,-1,6
 176 111 176 111 185 111 c 2,7,-1
 656 111 l 1,8,-1
 656 0 l 1,9,-1
 185 0 l 2,10,11
 130 0 130 0 91 39 c 128,-1,12
 52 78 52 78 52 133 c 2,13,-1
 52 219 l 2,14,15
 52 274 52 274 91 313 c 128,-1,16
 130 352 130 352 185 352 c 2,17,-1
 523 352 l 2,18,19
 532 352 532 352 539 359 c 128,-1,20
 546 366 546 366 546 375 c 2,21,-1
 546 461 l 2,22,23
 546 470 546 470 539 476.5 c 128,-1,24
 532 483 532 483 523 483 c 2,25,-1
 52 483 l 1,26,-1
 52 594 l 1,27,-1
 523 594 l 2,28,29
 578 594 578 594 617 555 c 128,-1,30
 656 516 656 516 656 461 c 2,31,-1
 656 375 l 2,32,33
 656 320 656 320 617.5 281 c 128,-1,34
 579 242 579 242 523 242 c 2,35,-1
 185 242 l 2,0,1
EndSplineSet
Validated: 1
EndChar

StartChar: z.sc
Encoding: 65589 -1 249
Width: 714
GlyphClass: 2
Flags: W
LayerCount: 2
Fore
SplineSet
55 483 m 1,0,-1
 55 594 l 1,1,-1
 659 594 l 1,2,-1
 659 463 l 1,3,-1
 203 111 l 1,4,-1
 659 111 l 1,5,-1
 659 0 l 1,6,-1
 55 0 l 1,7,-1
 55 131 l 1,8,-1
 512 483 l 1,9,-1
 55 483 l 1,0,-1
EndSplineSet
Validated: 1
EndChar

StartChar: asciicircum
Encoding: 94 94 250
Width: 307
Flags: W
LayerCount: 2
Fore
SplineSet
104 846 m 1,0,-1
 29 846 l 1,1,-1
 116 990 l 1,2,-1
 191 990 l 1,3,-1
 279 846 l 1,4,-1
 202 846 l 1,5,-1
 154 924 l 1,6,-1
 104 846 l 1,0,-1
EndSplineSet
Validated: 1
EndChar
